<svg width="24" height="24" viewBox="0 0 24 24" fill="none" xmlns="http://www.w3.org/2000/svg">
<path d="M12 2C17.5138 2 22 6.48625 22 12C22 17.5138 17.5138 22 12 22C6.48625 22 2 17.5138 2 12C2 6.48625 6.48625 2 12 2ZM12 0C5.3725 0 0 5.3725 0 12C0 18.6275 5.3725 24 12 24C18.6275 24 24 18.6275 24 12C24 5.3725 18.6275 0 12 0Z" fill="white"/>
<path d="M10.2 9.56365L8.1075 8.5174C8.08875 8.5074 8.06625 8.5074 8.04625 8.5174L5.95375 9.56365C5.4875 9.7974 4.9375 9.4574 4.9375 8.93615C4.9375 8.6699 5.0875 8.4274 5.325 8.30865L7.81875 7.0624C7.98125 6.98115 8.17125 6.98115 8.33375 7.0624L10.8275 8.30865C11.065 8.4274 11.215 8.67115 11.215 8.93615C11.215 9.4574 10.6662 9.7974 10.1987 9.56365H10.2Z" fill="white"/>
<path d="M18.0477 9.56365L15.9552 8.5174C15.9364 8.5074 15.9139 8.5074 15.8939 8.5174L13.8014 9.56365C13.3352 9.7974 12.7852 9.4574 12.7852 8.93615C12.7852 8.6699 12.9352 8.4274 13.1727 8.30865L15.6664 7.0624C15.8289 6.98115 16.0189 6.98115 16.1814 7.0624L18.6752 8.30865C18.9127 8.4274 19.0627 8.67115 19.0627 8.93615C19.0627 9.4574 18.5139 9.7974 18.0464 9.56365H18.0477Z" fill="white"/>
</svg>
