<svg width="24" height="24" viewBox="0 0 24 24" fill="none" xmlns="http://www.w3.org/2000/svg">
<path d="M12 0C5.3725 0 0 5.3725 0 12C0 18.6275 5.3725 24 12 24C18.6275 24 24 18.6275 24 12C24 5.3725 18.6275 0 12 0ZM9.705 9.905L7.03875 8.57125C7.01375 8.55875 6.98625 8.55875 6.96125 8.57125L4.295 9.905C3.7 10.2025 3 9.77 3 9.105C3 8.76625 3.19125 8.45625 3.495 8.305L6.6725 6.71625C6.87875 6.6125 7.1225 6.6125 7.32875 6.71625L10.5063 8.305C10.8088 8.45625 11.0013 8.76625 11.0013 9.105C11.0013 9.77 10.3013 10.2025 9.70625 9.905H9.705ZM19.705 9.905L17.0387 8.57125C17.0137 8.55875 16.9863 8.55875 16.9613 8.57125L14.295 9.905C13.7 10.2025 13 9.77 13 9.105C13 8.76625 13.1913 8.45625 13.495 8.305L16.6725 6.71625C16.8788 6.6125 17.1225 6.6125 17.3288 6.71625L20.5063 8.305C20.8088 8.45625 21.0012 8.76625 21.0012 9.105C21.0012 9.77 20.3012 10.2025 19.7062 9.905H19.705Z" fill="white"/>
</svg>
