<svg width="77" height="85" viewBox="0 0 77 85" fill="none" xmlns="http://www.w3.org/2000/svg">
<path fill-rule="evenodd" clip-rule="evenodd" d="M65.7454 1.94287H70.4204L70.2735 2.76839H69.3971C68.9589 2.76839 68.667 2.67175 68.667 2.67175V4.17751C68.667 4.71124 68.5207 5.2462 68.5207 5.77992C68.5207 6.31427 68.3745 6.84861 68.3745 7.14041H67.2062V5.77992C67.2062 5.2462 67.3525 4.71124 67.3525 4.17751C67.3525 3.59454 67.4975 2.91492 67.4975 2.67175H66.9137H66.3286C66.0367 2.67175 65.7448 2.76839 65.7448 2.76839L65.7454 1.94287ZM71.0036 1.94287H72.61C72.61 2.23405 72.7563 2.52585 72.7563 2.67113C72.7563 2.91429 73.0482 3.35075 73.1945 3.88509C73.1945 4.03099 73.3407 4.41943 73.3407 4.71061C73.4857 5.24496 73.7789 5.7793 73.7789 5.7793C73.7789 5.48812 74.0708 5.09968 74.2171 4.56534C74.3621 4.17689 74.6553 3.59391 74.8009 3.20547C74.9472 2.76777 75.2391 2.23405 75.2391 1.94287H76.9924V3.59391C76.9924 4.17689 76.8462 4.95378 76.8462 5.48812V7.13979H75.6779V6.0711V4.71061C75.6779 4.27353 75.8242 3.88509 75.8242 3.59329V3.06019L74.2177 7.14041H73.0482C73.0482 6.84861 72.7563 6.31489 72.7563 5.92582C72.61 5.2462 72.3181 4.71124 72.3181 4.56596C72.3181 4.27478 72.0262 3.74044 71.8799 3.20609V4.56596C71.8799 4.9544 71.7337 5.48875 71.7337 5.92582V7.14041H70.5654C70.5654 6.60607 70.7116 5.92582 70.7116 5.34347C70.7116 4.85776 70.8567 4.17751 70.8567 3.59454C70.8573 3.06019 71.0036 2.52585 71.0036 1.94287ZM14.8113 84.659H11.6947L10.4777 80.2882H4.73129L3.51426 84.659H0.495117L5.80267 65.3278H9.21124L14.8113 84.659ZM9.60066 77.1308L7.55602 69.8457L5.65641 77.1308H9.60066ZM26.0109 84.659H23.3812V82.6681C22.943 83.5423 22.3586 84.1259 21.8229 84.3684C21.2878 84.6596 20.7027 85.0006 20.1183 85.0006C19.0469 85.0006 17.9761 84.2712 17.1966 83.0572C16.3203 81.9405 15.9309 79.9983 15.9309 77.715C15.9309 75.3843 16.3209 73.343 17.051 72.129C17.8298 70.9637 18.95 70.2354 20.2652 70.2354C21.2878 70.2354 22.3592 70.9637 23.2837 72.2749V65.3284H26.0109V84.659ZM18.6093 77.3746C18.6093 78.8311 18.8043 80.1423 19.0475 80.7259C19.4863 81.6001 20.1189 82.1824 20.8496 82.1824C21.5309 82.1824 22.0666 81.7453 22.5048 81.2116C22.943 80.4821 23.2837 79.2681 23.2837 77.8116C23.2837 76.2566 23.0405 74.946 22.6023 74.2165C22.2123 73.4883 21.5309 73.0025 20.8496 73.0025C20.2652 73.0025 19.7295 73.4883 19.2425 74.0719C18.8037 74.8001 18.6093 75.9168 18.6093 77.3746ZM28.2506 77.3746C28.2506 76.2566 28.3962 75.0426 28.835 73.9259C29.3219 72.7606 29.9552 71.8865 30.734 71.3029C31.5616 70.6719 32.5842 70.2348 33.5587 70.2348C35.0683 70.2348 36.4804 70.9631 37.4055 72.2743C38.4281 73.7308 38.9638 75.6743 38.9638 77.7144C38.9638 79.7545 38.4281 81.6001 37.4055 82.9119C36.3341 84.2712 35.0683 85.0006 33.5587 85.0006C32.6336 85.0006 31.7085 84.6596 30.8321 84.1265C29.9558 83.5429 29.3226 82.6687 28.8356 81.6007C28.3975 80.4827 28.2512 79.0262 28.2512 77.5685L28.2506 77.3746ZM30.9772 77.7144C30.9772 79.1721 31.1234 80.2888 31.5616 81.0171C32.0485 81.7453 32.7793 82.1824 33.4612 82.1824C34.0938 82.1824 34.8245 81.7453 35.2627 81.0171C35.7496 80.2888 36.0416 79.1721 36.0416 77.7144C36.0416 76.2566 35.7496 75.0426 35.2627 74.3144C34.8245 73.4889 34.0938 73.0025 33.4612 73.0025C32.7793 73.0025 32.0979 73.4883 31.7079 74.2165C31.2697 75.042 30.9772 76.2566 30.9772 77.7144ZM41.106 84.659V65.3278H43.8319V72.2743C44.612 70.9624 45.7316 70.2348 46.8023 70.2348C48.0681 70.2348 49.1401 70.9631 49.9677 72.1284C50.7953 73.3423 51.2829 75.1885 51.2829 77.5685C51.2829 79.9004 50.796 81.9405 49.9677 83.0572C49.0914 84.2712 48.0206 85.0006 46.9486 85.0006C46.3648 85.0006 45.7316 84.6596 45.1952 84.3684C44.6114 84.1259 44.0757 83.3976 43.7826 82.6681V84.659H41.106ZM43.8319 77.3746C43.8319 78.8311 44.0763 80.1423 44.3189 80.7259C44.7571 81.6001 45.4884 82.1824 46.2673 82.1824C46.9486 82.1824 47.4843 81.7453 47.8737 81.2116C48.3119 80.628 48.555 79.2681 48.555 77.8116C48.555 76.2566 48.3119 74.946 47.8737 74.2165C47.4843 73.4883 46.8017 73.0025 46.1204 73.0025C45.4878 73.0025 44.9521 73.4883 44.5139 74.0719C44.0763 74.8001 43.8319 75.9168 43.8319 77.3746ZM59.5602 80.2888L62.2874 80.7259C61.9943 82.1824 61.3129 83.3976 60.6322 83.9313C59.8534 84.5149 58.7814 85.0006 57.6618 85.0006C56.0066 85.0006 54.5452 84.1265 53.717 82.6687C53.0356 81.4548 52.7425 79.7545 52.7425 77.8123C52.7425 75.529 53.1319 73.5868 54.0082 72.2749C54.8846 70.9631 56.151 70.2354 57.5143 70.2354C59.0233 70.2354 60.2415 70.9637 61.0698 72.2749C61.9943 73.7314 62.53 75.9174 62.53 78.6864H55.4709C55.4709 79.9004 55.6172 80.7259 56.1048 81.3569C56.5417 81.9405 57.078 82.1824 57.6625 82.1824C58.1494 82.1824 58.5876 82.0864 58.782 81.7453C59.0245 81.4542 59.3177 80.8718 59.5602 80.2888ZM59.8046 76.4025C59.8046 75.3831 59.4152 74.4603 59.122 73.9253C58.7326 73.3417 58.1488 73.0025 57.6131 73.0025C56.9793 73.0025 56.396 73.4883 56.1041 74.0719C55.6172 74.6542 55.4703 75.5284 55.4703 76.4025H59.8046Z" fill="white"/>
<path fill-rule="evenodd" clip-rule="evenodd" d="M0.0078125 0H23.3808L0.0078125 56.7801V0ZM39.3035 0H62.9684V56.0506L39.3035 0ZM31.61 21.7111L44.5142 55.7601H36.5281L31.0256 44.9778H22.2607L31.61 21.7111Z" fill="white"/>
</svg>
