<svg width="63" height="85" viewBox="0 0 63 85" fill="none" xmlns="http://www.w3.org/2000/svg">
<g clip-path="url(#clip0_229_19)">
<path d="M55.8165 26.3442C51.532 22.0597 45.7685 19.688 39.6734 19.688C33.5782 19.688 27.8147 22.0597 23.5302 26.3442L23.0712 26.8032C21.9746 26.6247 20.98 26.5227 19.8834 26.5227C14.7829 26.5227 9.83537 28.5374 6.18851 32.2607C-1.38575 39.835 -1.38575 52.0762 6.18851 59.6505C9.83537 63.2973 14.6809 65.3121 19.8834 65.3121H40.1579C46.1765 65.21 51.7616 62.8383 55.944 58.6559C64.7679 49.7045 64.7679 35.1935 55.8165 26.3442ZM19.9344 61.1296C15.8285 61.1296 12.0796 59.3955 9.24881 56.4627C3.30672 50.5206 3.30672 40.9571 9.24881 35.0915C12.0796 32.2607 15.905 30.6286 19.9344 30.6286H20.0364C20.8525 30.6286 21.49 30.7306 22.2296 30.8071C23.0457 30.9856 23.7853 31.0876 24.6013 31.3427C26.055 31.8017 27.4321 32.5413 28.6052 33.3574C29.1408 33.8164 29.8039 34.1734 30.2374 34.7345L30.6965 35.1935L36.8936 41.3907C37.7097 42.2067 37.7097 43.4819 36.8936 44.4C36.4345 44.859 35.9755 45.0375 35.4399 45.0375C34.9044 45.0375 34.3433 44.859 33.9863 44.4L28.8858 39.2995L27.7892 38.2028C27.6106 38.0243 27.4321 37.9223 27.3301 37.7438C25.8765 36.4687 24.1423 35.6526 22.2296 35.27C21.592 35.0915 20.8525 35.0915 20.2149 35.0915H19.9344C17.1036 35.1935 14.5533 36.2902 12.5386 38.2794C8.25421 42.5638 8.25421 49.424 12.5386 53.7084C14.6299 55.7996 17.2821 56.8962 20.2914 56.8962H22.2041L24.0403 58.6304C24.9584 59.5485 25.8765 60.4666 26.9731 61.1041H19.9344V61.1296ZM52.8837 55.6466C50.971 57.5593 48.6758 59.0129 46.1255 59.931C45.3094 60.2115 44.5698 60.3901 43.7538 60.6706C42.5551 60.9511 41.28 61.1296 40.0049 61.1296H39.6479C35.2614 61.1296 31.1555 59.676 27.8657 56.9217C27.4066 56.5647 26.9476 56.1056 26.4885 55.7231L17.7157 46.9502C16.8996 46.1341 16.8996 44.859 17.7157 43.9409C18.1747 43.4819 18.6338 43.3034 19.1693 43.3034C19.7049 43.3034 20.2659 43.4819 20.6229 43.9409L29.2938 52.6118C30.1099 53.4279 31.028 54.0654 31.9461 54.703C34.1393 56.0801 36.6896 56.7942 39.4183 56.7942C40.6169 56.7942 41.8921 56.6157 42.9887 56.3352C43.7283 56.1566 44.4423 55.8761 45.0799 55.5956C46.7121 54.856 48.2677 53.8614 49.6449 52.4843C55.2044 46.9247 55.2044 37.7948 49.6449 32.2097C46.8141 29.379 43.1672 28.0018 39.5203 28.0018C36.6896 28.0018 33.9608 28.8179 31.487 30.4756C30.2884 29.5575 29.0133 28.7414 27.5596 28.1038C31.028 25.273 35.3124 23.8194 39.5203 23.8194C44.2638 23.8194 49.0073 25.6556 52.6542 29.2004C60.1009 36.5707 60.1009 48.3529 52.8837 55.6466Z" fill="white"/>
</g>
<defs>
<clipPath id="clip0_229_19">
<rect width="63" height="85" fill="white"/>
</clipPath>
</defs>
</svg>
