<svg width="141" height="87" viewBox="0 0 141 87" fill="none" xmlns="http://www.w3.org/2000/svg">
<path d="M116.475 24.8241C108.986 23.1295 101.536 24.4637 95.3125 28.0183C95.3125 28.0183 95.1957 28.0768 94.9912 28.1936C94.962 28.2131 94.923 28.2326 94.8938 28.2521C89.1285 31.5924 24.8823 68.3657 0 62.7368C0 62.7368 92.0306 86.5479 106.726 86.246C121.889 87.9502 136.176 77.6467 139.526 61.9479C143.11 45.139 132.797 28.515 116.475 24.8241ZM132.281 60.8182C132.281 62.6004 130.878 64.0418 129.145 64.0418H128.95C127.216 64.0418 125.814 62.6004 125.814 60.8182V46.853C125.814 45.0708 127.216 43.6295 128.95 43.6295H129.145C130.878 43.6295 132.281 45.0708 132.281 46.853V60.8182Z" fill="#F4F4F4"/>
<path d="M5.87212 47.8656L6.4954 50.8262L4.79113 51.1865L3.06738 42.9866L6.81678 42.1977C7.60561 42.0322 8.27758 42.1393 8.83269 42.5094C9.38779 42.8794 9.74812 43.4735 9.91368 44.2916C10.0305 44.8661 9.98185 45.431 9.7676 45.9763C9.45596 46.7554 8.81321 47.2521 7.83934 47.4566L5.87212 47.8656ZM5.57023 46.4535L7.15763 46.1224C7.703 46.0056 8.04385 45.7621 8.17045 45.3823C8.23863 45.1778 8.23863 44.9051 8.17045 44.574C8.08281 44.1747 7.90751 43.9117 7.63482 43.7851C7.36214 43.6585 6.96286 43.6488 6.42723 43.7657L5.06381 44.0481L5.57023 46.4535Z" fill="#F4F4F4"/>
<path d="M12.7578 49.4329L10.4595 41.379L14.54 40.2201C15.4749 39.9572 16.2443 40.0448 16.8578 40.5026C17.2863 40.8239 17.5687 41.2524 17.7148 41.7686C17.8414 42.2166 17.8414 42.6451 17.7148 43.0541C17.5882 43.4631 17.3545 43.7942 17.0039 44.0377C17.4324 44.0961 17.744 44.213 17.9291 44.3786C18.1823 44.6123 18.4062 45.0797 18.6108 45.7907C18.7958 46.4334 18.9321 46.8424 19.0198 47.008C19.1074 47.1736 19.2438 47.2709 19.4385 47.2904L19.497 47.5047L17.6271 48.0403C17.5103 47.8358 17.3934 47.6313 17.3058 47.417C17.2181 47.2028 17.1013 46.8814 16.9844 46.4626C16.8091 45.8491 16.6338 45.4693 16.4682 45.333C16.2345 45.1479 15.8255 45.1382 15.2314 45.3135L13.4785 45.8101L14.3744 48.9655L12.7286 49.4329H12.7578ZM13.1084 44.4467L15.0854 43.8819C15.5333 43.7553 15.845 43.58 16.0008 43.3463C16.1566 43.1125 16.1858 42.8106 16.0787 42.4113C16.0008 42.1387 15.8644 41.9244 15.6697 41.7881C15.397 41.603 15.0367 41.5641 14.5984 41.6907L12.4949 42.2945L13.1084 44.437V44.4467Z" fill="#F4F4F4"/>
<path d="M19.3316 43.172C18.942 42.0326 18.8836 41.0392 19.1465 40.1725C19.351 39.5005 19.7601 38.9259 20.3541 38.439C20.7632 38.1079 21.2209 37.8644 21.7273 37.6891C22.224 37.5138 22.7401 37.4359 23.266 37.4456C24.0256 37.4651 24.6976 37.6794 25.2722 38.0787C26.0123 38.6045 26.5772 39.4323 26.957 40.562C27.3465 41.7014 27.4049 42.6948 27.142 43.5615C26.9375 44.2432 26.5382 44.8178 25.9539 45.2853C25.5449 45.6164 25.0871 45.8599 24.5807 46.0352C24.0743 46.2105 23.5582 46.2884 23.0323 46.2786C22.2824 46.2689 21.6104 46.0546 21.0261 45.6456C20.2762 45.1197 19.7114 44.2919 19.3218 43.1622L19.3316 43.172ZM20.9871 42.5974C21.328 43.6005 21.8344 44.253 22.4869 44.5646C22.9933 44.7983 23.5387 44.8276 24.1035 44.6328C24.6684 44.438 25.0677 44.0972 25.3209 43.6005C25.652 42.948 25.6422 42.13 25.3014 41.1269C24.9605 40.1238 24.4639 39.4615 23.8114 39.1499C23.3049 38.9064 22.7791 38.887 22.2045 39.0817C21.6396 39.2765 21.2306 39.6174 20.9774 40.114C20.6366 40.7665 20.6463 41.5943 20.9774 42.5974H20.9871Z" fill="#F4F4F4"/>
<path d="M28.232 41.799L29.8 41.1952C29.9266 41.5165 30.1213 41.7405 30.3843 41.8866C30.7836 42.0911 31.3095 42.0716 31.9425 41.8282C32.4099 41.6529 32.7508 41.4386 32.9845 41.2049C33.2669 40.903 33.3448 40.5621 33.1988 40.1823C33.0916 39.8999 32.8774 39.7344 32.556 39.6857C32.3418 39.6564 31.962 39.6857 31.4069 39.7538L30.4914 39.8804C29.576 40.007 28.9332 40.0168 28.5437 39.9291C27.8912 39.7733 27.414 39.3058 27.1218 38.5365C26.8881 37.9327 26.8784 37.3581 27.0829 36.803C27.375 36.0142 28.086 35.4104 29.2156 34.9721C30.2869 34.5631 31.2121 34.5534 31.9814 34.9527C32.5755 35.2546 32.9845 35.7123 33.228 36.3453L31.6601 36.9491C31.5042 36.6472 31.3192 36.4427 31.1147 36.3355C30.7349 36.131 30.2382 36.1505 29.6149 36.3842C29.2449 36.5303 28.9624 36.7056 28.7774 36.9296C28.5437 37.212 28.4852 37.5139 28.6118 37.845C28.719 38.1177 28.8943 38.2833 29.1377 38.3417C29.2741 38.3807 29.4786 38.3807 29.7513 38.3417L31.8451 38.0788C32.556 37.9911 33.1111 38.0203 33.5104 38.1567C34.0558 38.3417 34.4551 38.7605 34.6985 39.4032C35.0004 40.1921 34.9712 40.9127 34.6206 41.5458C34.2311 42.2469 33.5494 42.7826 32.595 43.1429C31.3192 43.6298 30.2869 43.6688 29.4883 43.2598C28.9137 42.9676 28.5047 42.4904 28.2418 41.8087L28.232 41.799Z" fill="#F4F4F4"/>
<path d="M35.4 39.0329L36.9582 38.3902C37.0848 38.7116 37.2893 38.9356 37.562 39.0622C37.971 39.2569 38.4871 39.2277 39.1104 38.9648C39.5681 38.77 39.909 38.5557 40.133 38.3123C40.4056 38.0006 40.4738 37.6598 40.318 37.2897C40.2011 37.0073 39.9869 36.8515 39.6655 36.8125C39.4513 36.7931 39.0715 36.8223 38.5163 36.9099L37.6009 37.056C36.6952 37.2021 36.0427 37.241 35.6532 37.1534C35.0007 37.0073 34.5137 36.5593 34.1924 35.7997C33.9489 35.2056 33.9197 34.6213 34.1047 34.0662C34.3774 33.2676 35.0688 32.6444 36.1791 32.1769C37.2406 31.7387 38.156 31.7095 38.9448 32.0795C39.5389 32.3619 39.9674 32.8197 40.2304 33.4332L38.6819 34.076C38.5163 33.7838 38.3313 33.5793 38.1171 33.4722C37.7372 33.2774 37.2308 33.3066 36.6173 33.5598C36.2472 33.7156 35.9745 33.9007 35.7895 34.1246C35.5655 34.4071 35.5168 34.7187 35.6532 35.0401C35.7603 35.303 35.9453 35.4686 36.1985 35.527C36.3349 35.566 36.5394 35.5562 36.8121 35.5173L38.8962 35.1959C39.5973 35.0888 40.1524 35.0985 40.5615 35.2251C41.1068 35.3907 41.5159 35.7997 41.7788 36.4425C42.1002 37.2313 42.1002 37.9422 41.7593 38.585C41.3893 39.2959 40.727 39.851 39.7726 40.2405C38.5163 40.7567 37.4743 40.8249 36.666 40.4353C36.0914 40.1626 35.6629 39.6854 35.3805 39.0135L35.4 39.0329Z" fill="#F4F4F4"/>
<path d="M42.1005 29.9272L45.4312 37.6208L43.8243 38.3123L40.4937 30.6187L42.1005 29.9272Z" fill="#F4F4F4"/>
<path d="M50.7964 26.0312L54.2536 33.6664L52.7636 34.3384L49.8712 27.9595L51.3125 34.9908L49.7446 35.7018L45.4596 29.9462L48.3325 36.3445L46.8425 37.0165L43.3853 29.3814L45.7128 28.3296L49.8225 33.7345L48.4786 27.0733L50.7867 26.0312H50.7964Z" fill="#F4F4F4"/>
<path d="M53.5726 29.3524C53.0564 28.2714 52.8714 27.2878 53.0369 26.3918C53.1635 25.7003 53.4946 25.0771 54.04 24.5317C54.4101 24.1616 54.8288 23.8597 55.3158 23.626C55.793 23.402 56.2896 23.2559 56.8155 23.2072C57.5751 23.1391 58.2666 23.2657 58.8801 23.6065C59.6787 24.035 60.3312 24.7946 60.8474 25.8756C61.3635 26.9566 61.5388 27.9402 61.383 28.8362C61.2564 29.5374 60.935 30.1509 60.4091 30.6866C60.039 31.0566 59.6203 31.3585 59.1333 31.5923C58.6464 31.826 58.1497 31.9623 57.6238 32.0208C56.874 32.0987 56.1825 31.9623 55.5592 31.6215C54.7509 31.1832 54.0984 30.4334 53.5823 29.3524H53.5726ZM55.16 28.5927C55.6177 29.5471 56.1923 30.1412 56.8837 30.3749C57.4193 30.5502 57.955 30.5113 58.5003 30.2483C59.036 29.9951 59.3963 29.6056 59.5911 29.0797C59.8443 28.398 59.7371 27.5799 59.2794 26.6255C58.8217 25.6711 58.2471 25.0771 57.5654 24.8433C57.0395 24.668 56.5039 24.707 55.9683 24.9602C55.4326 25.2134 55.0723 25.603 54.8678 26.1289C54.6048 26.8106 54.712 27.6383 55.1697 28.5927H55.16Z" fill="#F4F4F4"/>
<path d="M67.0022 24.103L68.3754 26.8006L66.8269 27.5894L63.0386 20.1198L66.4569 18.3863C67.1775 18.0163 67.8592 17.9481 68.4825 18.1624C69.1155 18.3766 69.6122 18.8538 69.992 19.6037C70.2549 20.1296 70.3621 20.6847 70.2842 21.269C70.1868 22.1065 69.6901 22.7493 68.8039 23.1973L67.0022 24.1127V24.103ZM66.34 22.8077L67.7911 22.0773C68.2877 21.8241 68.5507 21.5027 68.5799 21.1034C68.5896 20.8892 68.5215 20.6263 68.3656 20.3244C68.1806 19.9543 67.9371 19.7498 67.645 19.7011C67.3528 19.6524 66.9535 19.7498 66.4666 19.9932L65.2298 20.6263L66.34 22.8175V22.8077Z" fill="#F4F4F4"/>
<path d="M73.7319 24.0646L69.8364 16.6438L73.5956 14.6668C74.4623 14.2091 75.2317 14.1507 75.9231 14.472C76.41 14.7058 76.7704 15.0564 77.0236 15.5433C77.2378 15.9523 77.3352 16.3711 77.2963 16.7996C77.2573 17.2281 77.0917 17.5981 76.7996 17.9098C77.2281 17.8806 77.5592 17.9293 77.7735 18.0559C78.0656 18.2312 78.387 18.6499 78.7278 19.2927C79.0395 19.8867 79.2537 20.2568 79.3803 20.4029C79.4972 20.549 79.6628 20.6171 79.8478 20.5879L79.9549 20.7827L78.2409 21.6884C78.0753 21.5131 77.9293 21.3378 77.7929 21.143C77.6566 20.9483 77.491 20.6658 77.2865 20.2763C76.9846 19.7114 76.7412 19.3803 76.5464 19.2732C76.2834 19.1369 75.8744 19.2148 75.329 19.5069L73.7222 20.3542L75.2511 23.2563L73.7416 24.0549L73.7319 24.0646ZM73.0599 19.1174L74.8811 18.163C75.2901 17.9487 75.5628 17.7053 75.6699 17.4521C75.777 17.1989 75.7381 16.8872 75.553 16.5269C75.4167 16.2737 75.2414 16.0984 75.0271 16.001C74.7252 15.8744 74.3649 15.9134 73.9559 16.1276L72.0179 17.1404L73.0599 19.1174Z" fill="#F4F4F4"/>
<path d="M78.8252 16.6533C78.2506 15.6015 78.0169 14.6276 78.1338 13.7317C78.2214 13.0305 78.5233 12.3975 79.0297 11.8132C79.3706 11.4236 79.7796 11.0925 80.2568 10.8393C80.7243 10.5861 81.2112 10.4205 81.7273 10.3426C82.4869 10.2355 83.1784 10.3231 83.8114 10.625C84.6295 11.0146 85.3209 11.7352 85.8955 12.787C86.4701 13.8388 86.7038 14.8127 86.5869 15.7086C86.4993 16.4098 86.2071 17.0428 85.7105 17.6174C85.3696 18.007 84.9606 18.3381 84.4834 18.5913C84.0159 18.8445 83.5192 19.0198 83.0031 19.0977C82.2532 19.2146 81.5618 19.1172 80.919 18.8153C80.0912 18.4257 79.3901 17.7051 78.8252 16.6533ZM80.3639 15.806C80.8703 16.7409 81.4741 17.296 82.1753 17.4908C82.7207 17.6369 83.2563 17.5687 83.7822 17.2766C84.2983 16.9941 84.6392 16.5851 84.8048 16.0495C85.019 15.358 84.8729 14.54 84.3665 13.6148C83.8601 12.6896 83.2563 12.1248 82.5649 11.9203C82.0292 11.7645 81.5033 11.8326 80.9677 12.1248C80.4516 12.4072 80.101 12.8162 79.9354 13.3519C79.7114 14.0531 79.8575 14.8614 80.3639 15.7963V15.806Z" fill="#F4F4F4"/>
<path d="M91.0667 11.1119L90.4045 9.86535L93.5014 8.21952L95.6244 12.2124L94.6019 12.7577L93.9494 11.9105C93.8325 12.4072 93.7059 12.7967 93.5404 13.0694C93.2579 13.5563 92.8197 13.9556 92.2354 14.2672C91.281 14.7737 90.3168 14.871 89.3527 14.5691C88.2912 14.2283 87.4342 13.4394 86.772 12.1929C86.1877 11.0924 85.9929 10.0309 86.1974 9.01809C86.4214 7.86892 87.1323 6.97296 88.3107 6.34968C89.343 5.80431 90.3169 5.65824 91.242 5.91144C92.0211 6.12569 92.5665 6.53472 92.8781 7.12878L91.3297 7.94683C91.2128 7.73258 90.9596 7.56702 90.5603 7.44042C90.0442 7.2846 89.5475 7.33329 89.0606 7.5865C88.4568 7.90788 88.077 8.37534 87.9114 8.98887C87.7264 9.69006 87.8724 10.4886 88.3496 11.3748C88.8463 12.3 89.4306 12.8649 90.1123 13.0499C90.6577 13.196 91.2518 13.1083 91.875 12.7772C92.1964 12.6019 92.4496 12.3682 92.6444 12.0566C92.956 11.5404 93.0145 10.9171 92.81 10.1965L91.0765 11.1216L91.0667 11.1119Z" fill="#F4F4F4"/>
<path d="M99.8311 1.63623L100.318 3.0386L96.1207 4.51888L96.705 6.17446L100.561 4.82078L101.058 6.22315L97.2016 7.57683L97.9223 9.63169L102.305 8.09298L102.801 9.49535L96.7926 11.6086L94.0171 3.70084L99.8408 1.6557L99.8311 1.63623Z" fill="#F4F4F4"/>
<path d="M106.434 1.83051L107.301 8.66708L105.558 8.89106L104.691 2.05451L102.178 2.37589L101.993 0.905342L108.762 0.0483398L108.947 1.51888L106.434 1.84026V1.83051Z" fill="#F4F4F4"/>
<path d="M114.605 1.83087L114.04 8.70639L112.297 8.56031L112.862 1.6848L110.33 1.48028L110.446 0L117.244 0.555105L117.127 2.03538L114.605 1.83087Z" fill="#F4F4F4"/>
<path d="M117.887 4.85036C118.247 3.71093 118.792 2.86366 119.523 2.32804C120.088 1.90927 120.76 1.68528 121.529 1.65606C122.055 1.63659 122.571 1.70476 123.077 1.87032C123.584 2.03588 124.042 2.26961 124.451 2.59099C125.054 3.05844 125.463 3.63303 125.687 4.29526C125.97 5.15226 125.931 6.15534 125.571 7.29477C125.21 8.43419 124.665 9.28146 123.934 9.81709C123.37 10.2456 122.707 10.4696 121.948 10.4988C121.422 10.5183 120.906 10.4501 120.399 10.2845C119.883 10.119 119.425 9.87552 119.007 9.56388C118.413 9.10617 117.994 8.53158 117.77 7.85961C117.478 6.99287 117.517 5.98979 117.877 4.85036H117.887ZM119.552 5.38599C119.231 6.39881 119.24 7.21686 119.591 7.85961C119.864 8.35629 120.282 8.6874 120.847 8.87244C121.412 9.04773 121.938 9.01852 122.435 8.76531C123.087 8.44393 123.574 7.77197 123.896 6.75914C124.217 5.74632 124.207 4.92827 123.876 4.28552C123.613 3.79858 123.204 3.45773 122.629 3.27269C122.065 3.09739 121.529 3.12661 121.023 3.37982C120.36 3.70119 119.873 4.36342 119.552 5.37624V5.38599Z" fill="#F4F4F4"/>
</svg>
