<svg width="148" height="87" viewBox="0 0 148 87" fill="none" xmlns="http://www.w3.org/2000/svg">
<path d="M28.8879 23.4386C36.5454 21.706 44.1631 23.0702 50.5261 26.7048C50.5261 26.7048 50.6456 26.7645 50.8547 26.884C50.8846 26.9039 50.9244 26.9238 50.9543 26.9438C56.8493 30.3593 122.541 67.9598 147.983 62.2042C147.983 62.2042 53.8819 86.5509 38.8556 86.2422C23.3514 87.9848 8.74336 77.4495 5.31789 61.3976C1.65343 44.2105 12.1987 27.2126 28.8879 23.4386ZM12.7265 60.2425C12.7265 62.0648 14.1604 63.5385 15.9329 63.5385H16.132C17.9045 63.5385 19.3384 62.0648 19.3384 60.2425V45.9631C19.3384 44.1408 17.9045 42.6671 16.132 42.6671H15.9329C14.1604 42.6671 12.7265 44.1408 12.7265 45.9631V60.2425Z" fill="#F4F4F4"/>
<path d="M5.11829 17.574L7.309 19.7647L6.05432 21.0194L0 14.9551L2.77822 12.1869C3.36573 11.5994 4.00302 11.3106 4.68015 11.3206C5.35727 11.3305 6.00453 11.6392 6.602 12.2367C7.03018 12.6649 7.29904 13.1727 7.41853 13.7602C7.58781 14.6066 7.309 15.3833 6.59204 16.1003L5.13821 17.5541L5.11829 17.574ZM4.07273 16.5285L5.24775 15.3535C5.65601 14.9452 5.80538 14.5469 5.7058 14.1585C5.64606 13.9494 5.49669 13.7104 5.2577 13.4714C4.95897 13.1727 4.66024 13.0532 4.3615 13.093C4.06277 13.1428 3.70429 13.3619 3.31594 13.7503L2.3102 14.756L4.08269 16.5285H4.07273Z" fill="#F4F4F4"/>
<path d="M11.4612 15.771L6.92041 8.51179L10.5948 6.21155C11.4412 5.68379 12.2279 5.55433 12.9548 5.83315C13.4627 6.0323 13.861 6.36091 14.1597 6.83888C14.4087 7.24715 14.5381 7.66538 14.5381 8.10352C14.5381 8.54166 14.3987 8.93002 14.1199 9.26858C14.558 9.19888 14.8966 9.22874 15.1256 9.34824C15.4443 9.50756 15.8027 9.90588 16.1911 10.5432C16.5496 11.1207 16.8085 11.4892 16.9379 11.6286C17.0674 11.768 17.2367 11.8178 17.4259 11.7879L17.5454 11.9771L15.8625 13.0326C15.6832 12.8733 15.5239 12.694 15.3646 12.5148C15.2152 12.3256 15.0161 12.0468 14.7771 11.6684C14.4286 11.1108 14.1597 10.7921 13.9506 10.7025C13.6718 10.583 13.2635 10.7025 12.7258 11.0311L11.1525 12.0169L12.9349 14.8648L11.4512 15.7909L11.4612 15.771ZM10.3957 10.7722L12.1781 9.65693C12.5864 9.40799 12.8353 9.13913 12.9249 8.87027C13.0146 8.60141 12.9548 8.29272 12.7357 7.93424C12.5764 7.68529 12.3872 7.51601 12.1582 7.43635C11.8395 7.32681 11.4811 7.39652 11.0828 7.64546L9.19079 8.83044L10.4056 10.7622L10.3957 10.7722Z" fill="#F4F4F4"/>
<path d="M16.7589 7.58613C16.3805 6.42107 16.3407 5.39542 16.6294 4.51913C16.8585 3.83205 17.2767 3.2545 17.8941 2.76657C18.3123 2.43797 18.7903 2.18902 19.3081 2.01974C19.8259 1.85046 20.3437 1.78075 20.8814 1.80067C21.6581 1.83054 22.3452 2.05957 22.9227 2.48775C23.6696 3.03543 24.2272 3.8918 24.6056 5.05685C24.984 6.22191 25.0238 7.24756 24.7351 8.12385C24.516 8.81093 24.0978 9.39844 23.4903 9.86646C23.0721 10.1951 22.5941 10.444 22.0763 10.6133C21.5585 10.7826 21.0208 10.8523 20.493 10.8324C19.7263 10.8025 19.0392 10.5735 18.4517 10.1453C17.6949 9.5976 17.1373 8.74123 16.7589 7.57617V7.58613ZM18.4716 7.03845C18.8002 8.07405 19.2981 8.75119 19.9653 9.07979C20.4831 9.32874 21.0308 9.36857 21.6183 9.17937C22.1958 8.99017 22.6141 8.65161 22.8829 8.14376C23.2314 7.48655 23.2414 6.64014 22.9128 5.61449C22.5842 4.58884 22.0863 3.90176 21.4291 3.57315C20.9212 3.31425 20.3736 3.28438 19.786 3.47357C19.2085 3.66277 18.7803 4.00134 18.5115 4.50918C18.153 5.16639 18.143 6.0128 18.4716 7.04841V7.03845Z" fill="#F4F4F4"/>
<path d="M30.7393 5.62408L30.6596 4.18021L34.2345 3.99101L34.4834 8.61141L33.2985 8.67116L33.0595 7.60567C32.7408 8.0239 32.452 8.32263 32.1832 8.50187C31.7152 8.83048 31.1376 9.00972 30.4505 9.04955C29.3452 9.1093 28.4092 8.79065 27.6424 8.08365C26.806 7.3169 26.3479 6.21159 26.2683 4.76771C26.1986 3.49312 26.4774 2.42764 27.1047 1.57127C27.8117 0.595409 28.8473 0.0776052 30.2115 0.00790084C31.4065 -0.0518457 32.3724 0.22697 33.1192 0.854309C33.7466 1.39203 34.0752 1.99946 34.115 2.68654L32.3226 2.78612C32.3126 2.53717 32.1434 2.27827 31.8247 1.98949C31.4164 1.62106 30.9285 1.45178 30.3709 1.48165C29.6738 1.52148 29.1162 1.79034 28.7079 2.28823C28.2399 2.86578 28.0308 3.66241 28.0806 4.68806C28.1403 5.76349 28.4391 6.53024 28.9967 6.99826C29.4348 7.37665 30.0223 7.54593 30.7493 7.5061C31.1277 7.48618 31.4662 7.37665 31.7749 7.16754C32.2927 6.81901 32.6114 6.27133 32.7309 5.51454L30.7294 5.62408H30.7393Z" fill="#F4F4F4"/>
<path d="M43.5053 1.55148L43.2165 3.04515L38.7455 2.18878L38.4069 3.9513L42.5195 4.73796L42.2307 6.23163L38.1182 5.44496L37.6999 7.62572L42.3701 8.52192L42.0814 10.0156L35.6885 8.79077L37.2917 0.376465L43.4854 1.56143L43.5053 1.55148Z" fill="#F4F4F4"/>
<path d="M49.0811 5.43467L46.4125 11.957L44.7495 11.2799L47.4182 4.75754L45.0184 3.77172L45.5959 2.36768L52.0585 5.00648L51.481 6.41053L49.0811 5.42471V5.43467Z" fill="#F4F4F4"/>
<path d="M56.0422 8.98924L52.6964 15.1929L51.123 14.3465L54.4688 8.14283L52.1885 6.90807L52.9055 5.57373L59.0494 8.87971L58.3325 10.214L56.0521 8.97928L56.0422 8.98924Z" fill="#F4F4F4"/>
<path d="M57.3664 12.9436C57.9539 11.8681 58.6709 11.1313 59.4974 10.733C60.1446 10.4243 60.8616 10.3347 61.6383 10.4442C62.166 10.5239 62.6739 10.6931 63.1518 10.962C63.6298 11.2209 64.0381 11.5495 64.3966 11.9578C64.9144 12.5453 65.2131 13.2025 65.3027 13.9095C65.4222 14.8256 65.1832 15.8214 64.5957 16.8968C64.0082 17.9723 63.2913 18.7091 62.4648 19.1074C61.8076 19.4261 61.1005 19.5157 60.3438 19.4062C59.816 19.3265 59.3082 19.1572 58.8302 18.8884C58.3522 18.6195 57.934 18.2909 57.5755 17.8926C57.0677 17.315 56.759 16.6678 56.6693 15.9409C56.5499 15.0148 56.7789 14.019 57.3664 12.9436ZM58.9397 13.8C58.4219 14.7459 58.2725 15.5824 58.4916 16.2894C58.6609 16.8371 59.0194 17.2553 59.5571 17.554C60.0849 17.8428 60.6226 17.9125 61.1703 17.7631C61.8872 17.564 62.5046 16.9864 63.0224 16.0405C63.5402 15.0945 63.6995 14.258 63.4805 13.551C63.3112 13.0033 62.9627 12.5851 62.4249 12.2963C61.8972 12.0076 61.3495 11.9378 60.7919 12.0872C60.0649 12.2764 59.4476 12.854 58.9298 13.8H58.9397Z" fill="#F4F4F4"/>
<path d="M69.7042 20.9494L68.2703 23.6977L66.687 22.8712L70.6402 15.2734L74.1155 17.0858C74.8524 17.4641 75.3104 17.9819 75.5096 18.6392C75.7087 19.2964 75.6092 19.9934 75.2109 20.7502C74.932 21.2879 74.5238 21.6962 73.996 21.985C73.2392 22.4032 72.4127 22.3733 71.5165 21.9053L69.6843 20.9494H69.7042ZM70.3913 19.6349L71.865 20.4017C72.3729 20.6705 72.8011 20.6905 73.1496 20.4813C73.3388 20.3619 73.5081 20.1527 73.6674 19.844C73.8666 19.4756 73.8865 19.147 73.757 18.8682C73.6176 18.5894 73.3089 18.3305 72.811 18.0716L71.5464 17.4144L70.3913 19.6449V19.6349Z" fill="#F4F4F4"/>
<path d="M73.7766 26.5452L77.6203 18.8877L81.4938 20.8394C82.3801 21.2875 82.8979 21.8949 83.0373 22.6617C83.1369 23.1994 83.0572 23.7172 82.8083 24.2151C82.5991 24.6433 82.3004 24.9619 81.922 25.191C81.5436 25.42 81.1453 25.4997 80.7072 25.4399C80.9959 25.7785 81.1453 26.0772 81.1652 26.3361C81.1951 26.6846 81.0358 27.2024 80.7072 27.8696C80.3985 28.487 80.2192 28.8853 80.1694 29.0745C80.1196 29.2637 80.1694 29.433 80.2889 29.5724L80.1894 29.7715L78.4169 28.8853C78.4667 28.6463 78.5264 28.4173 78.6061 28.1883C78.6857 27.9592 78.8251 27.6505 79.0243 27.2522C79.3131 26.6647 79.4525 26.2664 79.4127 26.0473C79.3629 25.7486 79.0641 25.4598 78.4965 25.1711L76.8336 24.3346L75.33 27.3319L73.7666 26.5452H73.7766ZM77.4908 23.0301L79.3728 23.9761C79.801 24.1952 80.1495 24.2649 80.4283 24.2051C80.7072 24.1454 80.9461 23.9263 81.1353 23.5579C81.2648 23.299 81.3046 23.05 81.2548 22.8111C81.1752 22.4825 80.9362 22.2136 80.508 22.0045L78.5065 20.9987L77.4808 23.0401L77.4908 23.0301Z" fill="#F4F4F4"/>
<path d="M90.8645 25.41L90.2073 26.7742L86.1047 24.7926L85.328 26.4057L89.092 28.228L88.4348 29.5922L84.6708 27.77L83.7049 29.7715L87.9867 31.8427L87.3295 33.2069L81.4644 30.3789L85.1886 22.6616L90.8744 25.4L90.8645 25.41Z" fill="#F4F4F4"/>
<path d="M97.6154 31.6238L95.9923 30.8769C96.062 30.4587 96.0521 30.1102 95.9724 29.8413C95.833 29.3733 95.4646 29.0049 94.8771 28.736C94.3792 28.507 93.8813 28.4871 93.3834 28.6962C92.7162 28.965 92.1486 29.5924 91.7005 30.5782C91.342 31.3449 91.2126 32.032 91.2923 32.6394C91.3819 33.3365 91.7603 33.8244 92.4075 34.1331C92.8656 34.3422 93.2938 34.392 93.712 34.2825C94.1203 34.1729 94.4887 33.8941 94.7974 33.4659L96.4205 34.2128C95.843 35.0293 95.1658 35.5571 94.3991 35.7961C93.5626 36.0649 92.6764 35.9753 91.7204 35.5372C90.655 35.0393 89.9579 34.3024 89.6393 33.3265C89.3007 32.2909 89.4302 31.1159 90.0376 29.8015C90.645 28.4871 91.4615 27.6207 92.4972 27.2025C93.4531 26.8141 94.4688 26.8639 95.5243 27.3519C96.5798 27.8398 97.2769 28.5368 97.6055 29.453C97.8743 30.1998 97.8743 30.9367 97.6154 31.6536V31.6238Z" fill="#F4F4F4"/>
<path d="M105.622 32.0813L105.014 33.4754L100.842 31.6531L100.125 33.2962L103.959 34.9691L103.351 36.3632L99.5178 34.6903L98.6315 36.7216L102.993 38.6236L102.386 40.0177L96.4209 37.4087L99.8563 29.562L105.642 32.0913L105.622 32.0813Z" fill="#F4F4F4"/>
<path d="M103.68 40.5665L106.926 32.6401L110.432 34.074C111.626 34.562 112.314 35.3586 112.513 36.4739C112.652 37.2904 112.513 38.1866 112.114 39.1724C111.676 40.2379 111.089 41.0544 110.342 41.6021C109.376 42.329 108.301 42.4485 107.116 41.9706L103.68 40.5566V40.5665ZM107.982 34.6715L105.871 39.8595L107.484 40.5167C108.101 40.7657 108.689 40.686 109.237 40.2578C109.695 39.8993 110.073 39.3417 110.382 38.6048C110.8 37.5792 110.88 36.7726 110.611 36.1951C110.432 35.8266 110.093 35.5279 109.585 35.3287L107.992 34.6715H107.982Z" fill="#F4F4F4"/>
<path d="M120.558 38.0062L120.021 39.4302L115.759 37.827L115.121 39.4999L119.035 40.9736L118.497 42.3976L114.584 40.9239L113.797 43.005L118.248 44.6779L117.71 46.1019L111.616 43.8016L114.643 35.7856L120.548 38.0162L120.558 38.0062Z" fill="#F4F4F4"/>
<path d="M126.723 40.1185L128.306 40.6562L125.567 48.7718L123.865 48.1943L122.5 41.2736L120.519 47.0591L118.936 46.5213L121.674 38.4058L123.466 39.0032L124.771 45.7446L126.713 40.0986L126.723 40.1185Z" fill="#F4F4F4"/>
<path d="M132.876 43.5737L130.934 50.3549L129.212 49.857L131.154 43.0758L128.664 42.3588L129.082 40.895L135.794 42.8169L135.376 44.2807L132.886 43.5637L132.876 43.5737Z" fill="#F4F4F4"/>
<path d="M142.775 44.3892L142.446 45.8729L138.005 44.8971L137.617 46.6496L141.699 47.5458L141.371 49.0295L137.288 48.1333L136.81 50.3041L141.45 51.3298L141.122 52.8135L134.759 51.4094L136.601 43.0449L142.765 44.3992L142.775 44.3892Z" fill="#F4F4F4"/>
</svg>
