<svg width="24" height="24" viewBox="0 0 24 24" fill="none" xmlns="http://www.w3.org/2000/svg">
<path d="M22.9384 13.4667C22.8152 12.604 22.5149 11.786 22.0456 11.0355C21.6364 10.3805 21.1112 9.79793 20.4844 9.30281L20.486 9.30126L13.9027 4.27036C13.898 4.2662 13.893 4.26228 13.8879 4.25862C13.669 4.0918 13.3727 4 13.0538 4C12.7344 4 12.4265 4.092 12.1871 4.25915C11.9297 4.43804 11.7826 4.6754 11.7724 4.92805C11.7629 5.16377 11.876 5.39058 12.0914 5.56739C12.5151 5.90002 12.9379 6.23988 13.3612 6.58016C13.772 6.91054 14.1954 7.25077 14.6166 7.58201L6.55311 7.57657C5.63096 7.57657 5.00306 8.00742 4.87389 8.72873C4.81714 9.04468 4.91729 9.39207 5.14118 9.65813C5.37872 9.94018 5.72359 10.0958 6.11223 10.0958L6.72694 10.0962C7.57615 10.0962 8.42909 10.0941 9.28088 10.092L10.0932 10.0902L2.77485 15.4772L2.74579 15.4983C2.33701 15.81 2.0694 16.2471 2.01166 16.6973C1.96789 17.0384 2.04786 17.3501 2.24303 17.599C2.47563 17.8958 2.83879 18.059 3.26569 18.059C3.68508 18.059 4.11301 17.9009 4.4712 17.613L8.42321 14.3951C8.40632 14.5522 8.38582 14.7828 8.38816 14.9501C8.3926 15.215 8.47807 15.7465 8.6134 16.1781C8.89302 17.065 9.36402 17.8764 10.0132 18.589C10.6888 19.3304 11.5115 19.9182 12.4584 20.3358C13.4595 20.7764 14.5357 21 15.6572 21H15.6676C16.7926 20.9973 17.8722 20.7701 18.8765 20.3246C19.825 19.902 20.6474 19.3118 21.3204 18.5705C21.9688 17.8543 22.4391 17.0415 22.7182 16.1553C22.8563 15.7167 22.9447 15.2641 22.9819 14.8059C23.0164 14.3631 23.0015 13.9125 22.9384 13.4667ZM15.7392 17.7174C13.2676 17.7174 11.2634 15.9336 11.2634 13.7329C11.2634 11.5326 13.2677 9.7487 15.7392 9.7487C18.2107 9.7487 20.2148 11.5326 20.2148 13.7329C20.2149 15.9336 18.2107 17.7174 15.7392 17.7174ZM18.3203 13.3828C18.3567 14.0396 18.093 14.6495 17.63 15.1009C17.159 15.5608 16.4869 15.8497 15.7354 15.8497C14.9841 15.8497 14.3119 15.5608 13.8408 15.1009C13.378 14.6495 13.1148 14.0397 13.1511 13.3833C13.1866 12.7454 13.4994 12.1822 13.9705 11.7834C14.4338 11.3914 15.0558 11.1522 15.7353 11.1522C16.4149 11.1522 17.0368 11.3914 17.5002 11.7834C17.9715 12.1822 18.2844 12.7449 18.3203 13.3828Z" fill="#F4F4F4"/>
</svg>
