<svg width="39" height="31" viewBox="0 0 39 31" fill="none" xmlns="http://www.w3.org/2000/svg">
<path d="M3.65942 0.00139956C4.1748 1.26935 5.4104 2.0381 6.67188 2.42409C9.05467 3.15402 11.7728 2.83919 14.2472 3.13677C15.1022 3.2392 16.5459 3.76967 16.4273 3.75673C15.8418 3.69312 15.1917 3.50228 14.5825 3.44729C11.2951 3.1551 7.8223 3.70929 4.73545 2.26128C5.4546 4.53302 8.14037 4.68289 10.1695 4.62898C12.5544 4.56645 14.9653 4.09528 17.3297 4.68289C18.7594 5.03869 19.885 5.78157 21.0948 6.57188C20.6365 8.02204 20.1071 7.23712 19.1842 7.02795C17.4807 6.64196 15.0483 7.75573 14.7507 9.64148C12.6579 9.84849 11.1172 10.3736 10.576 12.572C10.5134 12.8264 10.6029 13.1014 10.4929 13.3504C10.3291 13.7246 9.65091 13.882 9.36411 14.1591C9.08917 14.4265 8.94685 14.8793 8.84658 15.2405C8.87893 15.4281 10.1695 15.4853 10.4638 15.537C12.4488 15.8863 14.2084 16.4211 15.9216 17.5069C17.6543 18.6045 19.1702 20.1883 20.023 22.0741L21.0926 21.5404C21.8765 23.5577 24.0512 24.6218 26.0911 23.6784C26.4835 23.4973 26.9245 22.8547 27.1811 22.8277C27.4884 22.7965 28.1752 23.1145 28.5795 23.1501C31.9963 23.4498 33.2589 19.2708 29.9402 18.0751C30.0362 16.7618 30.3586 15.5963 29.1413 14.7273C27.924 13.8583 26.7143 14.2011 25.5121 14.8599C25.3083 14.0825 25.069 13.1984 24.2948 12.7919C23.3212 12.2809 21.2565 12.3844 20.4576 13.1973C20.1718 13.4874 20.2721 13.8906 19.5907 13.7828C19.4764 13.0151 20.2527 12.4016 20.8824 12.1148C22.7239 11.2749 25.2986 11.8992 26.0512 13.8917C28.1084 12.848 30.806 14.2475 30.7952 16.6378C30.7931 17.0174 30.6119 17.3699 30.695 17.7516C31.6826 18.1581 32.3165 19.425 33.0648 17.8411C33.7009 16.4955 33.1694 15.3408 31.8669 14.7435C32.1936 13.9133 32.6023 13.5434 32.0988 12.6302C31.4497 11.4528 30.4351 12.2604 29.7731 11.8345C29.3569 11.566 29.523 10.6183 28.6356 10.3887C28.3143 10.3056 27.6156 10.2938 27.2846 10.3348C26.8717 10.3865 26.1375 10.9892 26.1472 10.283C26.159 9.31694 28.5127 9.56493 29.1391 9.88515C29.7095 10.1773 29.8982 10.9666 30.1041 11.1003C30.3758 11.276 30.9084 11.1606 31.2459 11.2243C32.1408 11.3903 33.0271 12.5084 33.0357 13.4194C33.0389 13.7408 32.8093 14.0804 32.8513 14.3542C32.902 14.6766 33.6028 15.2028 33.7753 15.5855C34.2681 16.6799 33.9575 18.0319 33.1036 18.8481C32.6831 19.2503 32.2411 19.1392 32.4244 19.8455C32.8157 21.3538 35.6525 20.5042 36.0848 19.3538C36.2757 18.846 36.1775 18.0309 36.0751 17.5069C37.2482 16.9872 38.1657 16.1117 37.9889 14.709C37.8617 13.6987 37.0994 13.3796 36.3231 12.9235C36.3188 12.4383 36.4385 11.9607 36.3845 11.469C36.2681 10.4081 35.0875 9.15629 34.0449 8.96438C33.6449 8.88998 33.0519 9.01936 32.7004 8.8296C32.5236 8.73364 32.351 8.22151 32.1861 8.0242C30.8804 6.45651 28.6593 6.48239 26.8674 7.11313C25.773 5.47967 23.5304 5.2953 21.8215 6.01877C20.3443 4.4651 18.5373 3.28987 16.4931 2.61816C12.8833 1.43 8.9296 2.02192 5.35541 0.731333C5.11713 0.645078 3.73274 -0.0557444 3.66158 0.00355594L3.65942 0.00139956ZM21.9476 17.454C20.5363 17.8508 18.8489 18.2476 17.7168 17.0044C17.402 16.6594 17.237 15.9047 16.9578 15.7181C16.6958 15.5424 16.2063 15.5208 15.8537 15.3149C14.3971 14.4631 14.3723 11.7698 15.6036 10.7121C16.0381 10.3391 16.5998 10.2808 17.0429 9.99836C17.4591 9.73205 17.7071 9.25657 18.2009 9.00319C19.5314 8.32285 22.0457 8.37892 22.712 9.96278C22.436 10.765 21.994 9.89377 21.5163 9.64903C20.5945 9.1757 18.8715 9.22745 18.078 9.95631C17.8775 10.1396 17.7146 10.5827 17.5777 10.6679C17.3858 10.7865 16.9534 10.8167 16.685 10.9321C15.3804 11.496 14.9426 13.2545 15.8235 14.3769C16.4327 15.1532 17.2187 14.7758 17.609 15.0669C17.8516 15.2481 17.8203 15.7828 17.9206 16.0481C18.464 17.4896 20.9665 17.3559 21.926 16.3823C22.381 16.2605 22.7519 17.6891 23.0862 18.0956C23.6781 18.8158 24.7628 19.0045 25.6469 18.8223C26.2 18.709 26.6367 17.9446 27.2361 18.143C27.6124 18.4039 26.8609 18.9549 26.6615 19.0832C24.9385 20.1959 22.5201 19.4659 21.9476 17.454Z" fill="white"/>
<path d="M0 13.7861C1.84478 17.397 6.5888 16.5819 9.95599 16.9085C11.1409 17.0239 12.2957 17.3107 13.4547 17.5544L13.1086 17.632C12.2536 17.4671 11.3641 17.2945 10.4951 17.2309C8.0077 17.0498 5.47935 17.3086 3.01461 16.7468C2.35045 16.5948 1.74019 16.3037 1.07926 16.1538C1.67981 17.6827 3.15262 18.1894 4.68041 18.3113C7.44273 18.5301 9.98725 17.8358 12.8337 18.3393C15.7707 18.8579 18.1546 20.6207 19.8074 23.0456C18.5826 23.3755 17.237 23.3378 16.1146 22.7027C15.6294 22.4278 15.3771 22.0192 14.9124 21.7561C13.886 22.1313 12.866 22.7405 11.735 22.4008C12.0412 26.8214 16.6063 27.5621 19.9864 25.7572C20.4468 25.5114 21.746 24.6607 21.8808 24.1982C21.9897 23.8251 21.195 22.9216 20.9945 22.5561L20.0241 22.9399C18.5513 18.8719 14.5858 16.542 10.466 15.8627C7.62602 15.3948 4.66208 15.5975 1.91378 14.6196C1.25285 14.3845 0.663084 14.0115 0.00323296 13.7861H0Z" fill="white"/>
<path d="M18.3128 27.1536C18.4325 27.9967 18.3085 30.097 18.8282 30.7278C19.0471 30.993 19.8547 30.924 20.1566 30.7763C20.783 30.469 21.0892 28.9003 21.3997 28.2512C22.0563 26.8819 23.2315 25.6905 24.217 24.5562L22.5976 24.2856C21.7167 25.8501 19.9129 26.5595 18.3118 27.1547L18.3128 27.1536Z" fill="white"/>
<path d="M3.66041 18.4159C3.5871 18.5043 3.94722 18.9787 4.03239 19.066C5.668 20.7437 9.20339 19.3356 11.2497 19.1717C12.3053 19.0876 13.3738 19.217 14.4229 19.2763L12.9846 18.7253C9.9193 17.9091 6.73109 19.121 3.66149 18.4159H3.66041Z" fill="white"/>
<path d="M7.64209 4.95581C7.83077 5.38277 8.26852 5.80434 8.6847 6.01243C10.4335 6.88361 13.3489 5.75367 15.2325 5.60272C16.3722 5.51108 17.5021 5.64693 18.6213 5.81513L16.6881 5.11215C13.7166 4.50621 10.6438 5.40434 7.64317 4.95581H7.64209Z" fill="white"/>
<path d="M6.88867 20.2477C7.29622 20.8989 8.1922 20.8364 8.86714 20.7717C10.7626 20.5895 12.0176 19.839 14.1524 20.032C14.3443 20.0493 15.9249 20.4816 15.9314 20.2994C13.0052 18.6358 9.94425 19.9059 6.88867 20.2466V20.2477Z" fill="white"/>
<path d="M10.7639 6.67878C11.014 7.02056 11.372 7.18229 11.7817 7.2211C13.7731 7.40979 15.7602 6.25936 18.0287 6.46422C18.2142 6.48147 20.018 6.97528 20.0223 6.83943C17.0594 5.00866 13.896 6.41893 10.7639 6.67878Z" fill="white"/>
<path d="M10.1191 20.7857C10.3175 21.4305 11.3838 21.7151 11.9984 21.7582C12.6129 21.8014 15.206 21.4962 14.4847 20.4558C14.2011 20.045 10.7584 20.6164 10.1191 20.7868V20.7857Z" fill="white"/>
<path d="M15.2856 20.5702C15.6252 21.9093 17.2252 22.7794 18.573 22.6209C18.7336 22.6015 18.8447 22.6101 18.9439 22.4527C18.9848 22.2597 16.946 20.3502 16.629 20.2478C16.3821 21.2311 15.9961 20.8559 15.2856 20.5702Z" fill="white"/>
</svg>
