<svg width="26" height="27" viewBox="0 0 26 27" fill="none" xmlns="http://www.w3.org/2000/svg">
<path d="M13.0067 25C19.6341 25 25.0067 19.6274 25.0067 13C25.0067 6.37258 19.6341 1 13.0067 1C6.3793 1 1.00671 6.37258 1.00671 13C1.00671 19.6274 6.3793 25 13.0067 25Z" fill="white" stroke="black" stroke-width="2" stroke-miterlimit="10"/>
<path d="M18.0501 13.036C18.0733 6.40858 15.8535 1.02821 13.092 1.01858C10.3306 1.00894 8.07332 6.37367 8.05019 13.0011C8.02705 19.6284 10.2469 25.0088 13.0083 25.0184C15.7697 25.0281 18.027 19.6633 18.0501 13.036Z" stroke="black" stroke-width="2" stroke-miterlimit="10"/>
<path d="M24.9999 13.0352C25.0095 10.2738 19.6448 8.0165 13.0174 7.99336C6.39 7.97023 1.00964 10.19 0.999997 12.9514C0.990358 15.7129 6.35509 17.9702 12.9825 17.9933C19.6098 18.0164 24.9902 15.7966 24.9999 13.0352Z" stroke="black" stroke-width="2" stroke-miterlimit="10"/>
<path d="M13.0067 25V1" stroke="black" stroke-width="2" stroke-miterlimit="10"/>
</svg>
