<svg width="26" height="27" viewBox="0 0 26 27" fill="none" xmlns="http://www.w3.org/2000/svg">
<path d="M13.0001 26C5.83762 26 0.00012207 20.1625 0.00012207 13C0.00012207 5.8375 5.83762 0 13.0001 0C20.1626 0 26.0001 5.8375 26.0001 13C26.0001 20.1625 20.1626 26 13.0001 26ZM13.0001 2C6.93762 2 2.00012 6.9375 2.00012 13C2.00012 19.0625 6.93762 24 13.0001 24C19.0626 24 24.0001 19.0625 24.0001 13C24.0001 6.9375 19.0626 2 13.0001 2Z" fill="white"/>
<path d="M13.0126 26.0249C9.58756 26.0124 7.03756 20.4124 7.06256 12.9999C7.08756 5.5999 9.68756 0.0249023 13.1001 0.0249023C16.5251 0.0374023 19.0751 5.6374 19.0501 13.0499C19.0251 20.4499 16.4251 26.0249 13.0126 26.0249ZM13.0876 2.0249C11.2001 2.0249 9.07506 6.7249 9.05006 13.0124C9.02506 19.3124 11.1251 24.0249 13.0126 24.0249C14.9001 24.0249 17.0251 19.3249 17.0501 13.0374C17.0751 6.7374 14.9751 2.0249 13.0876 2.0249Z" fill="white"/>
<path d="M13.0876 19C13.0501 19 13.0126 19 12.9751 19C9.63758 19 6.48758 18.425 4.11258 17.425C1.45008 16.3 -0.0124205 14.7125 7.94701e-05 12.95C0.0125795 11.1875 1.47508 9.6125 4.15008 8.5125C6.53758 7.525 9.68758 7 13.0251 7C16.3626 7.0125 19.5126 7.575 21.8876 8.575C24.5501 9.7 26.0126 11.2875 26.0001 13.05C25.9876 14.8125 24.5251 16.3875 21.8501 17.4875C19.4876 18.4625 16.3751 19 13.0876 19ZM12.9126 9C9.87508 9 7.03758 9.475 4.91258 10.3625C3.10008 11.1125 2.01258 12.0875 2.00008 12.9625C1.98758 13.8375 3.07508 14.825 4.88758 15.5875C7.03758 16.4875 9.91258 17 12.9876 17C16.0626 17 18.9376 16.525 21.0876 15.6375C22.9001 14.8875 23.9876 13.9125 24.0001 13.0375C24.0001 12.1625 22.9251 11.175 21.1126 10.4125C18.9626 9.5125 16.0876 9 13.0126 9C12.9751 9 12.9376 9 12.9001 9H12.9126Z" fill="white"/>
<path d="M14.0001 1H12.0001V25H14.0001V1Z" fill="white"/>
</svg>
