<svg width="346" height="147" viewBox="0 0 346 147" fill="none" xmlns="http://www.w3.org/2000/svg">
<g clip-path="url(#clip0_771_1325)">
<path d="M21.95 1.19995C30.5 1.19995 37.1 3.58995 41.75 8.35995C46.4 13.14 48.73 19.65 48.73 27.9C48.73 36.1499 46.41 42.66 41.75 47.4399C37.1 52.2199 30.5 54.5999 21.95 54.5999H1.55V1.19995H21.95ZM21.8 45.9C27.05 45.9 31.1 44.36 33.95 41.29C36.8 38.22 38.22 33.75 38.22 27.9C38.22 22.0499 36.8 17.59 33.95 14.51C31.1 11.43 27.05 9.89995 21.8 9.89995H11.68V45.9H21.8Z" fill="#F4F4F4"/>
<path d="M89.68 54.5999L85.48 42.83H62.08L57.96 54.5999H47.54L67.85 1.19995H79.7L100.4 54.5999H89.67H89.68ZM65.15 34.2H82.4L80.3 28.43C78.45 23.63 76.25 17.53 73.7 10.13C71.5 16.58 69.32 22.68 67.18 28.43L65.16 34.2H65.15Z" fill="#F4F4F4"/>
<path d="M146.45 1.19995H161.15V54.5999H151.47V38.33C151.47 29.28 151.57 20.46 151.77 11.85C150.72 15.45 149.37 19.5499 147.72 24.15L136.92 54.5999H128.59L117.71 24.15C116.06 19.2999 114.73 15.25 113.73 12C113.93 20.55 114.03 29.33 114.03 38.33V54.5999H104.28V1.19995H118.98L128.21 27.15C129.71 31.75 131.23 36.58 132.79 41.63C134.34 36.2299 135.91 31.2299 137.52 26.6299L146.44 1.20995L146.45 1.19995Z" fill="#F4F4F4"/>
<path d="M169.93 54.5999V1.19995H180.05V54.5999H169.93Z" fill="#F4F4F4"/>
<path d="M226.1 54.5999L221.9 42.83H198.5L194.38 54.5999H183.96L204.28 1.19995H216.13L236.83 54.5999H226.1ZM201.58 34.2H218.83L216.73 28.43C214.88 23.63 212.68 17.53 210.13 10.13C207.93 16.58 205.75 22.68 203.61 28.43L201.59 34.2H201.58Z" fill="#F4F4F4"/>
<path d="M276.05 1.19995H285.8V54.5999H274.55L259.7 30.83C255.35 23.9799 252.17 18.63 250.18 14.78C250.38 21.08 250.48 29.7099 250.48 40.66V54.61H240.73V1.19995H251.98L266.9 24.9699C271.25 32.02 274.4 37.3699 276.35 41.02C276.15 32.62 276.05 24 276.05 15.14V1.19995Z" fill="#F4F4F4"/>
<path d="M319.03 55.8C310.98 55.8 304.52 53.25 299.64 48.15C294.76 43.05 292.33 36.3 292.33 27.9C292.33 19.5 294.77 12.75 299.64 7.65C304.52 2.55 310.98 0 319.03 0C327.08 0 333.47 2.55 338.34 7.65C343.22 12.75 345.65 19.5 345.65 27.9C345.65 36.3 343.21 43.05 338.34 48.15C333.46 53.25 327.03 55.8 319.03 55.8ZM307.29 41.77C310.21 45.17 314.13 46.87 319.03 46.87C323.93 46.87 327.84 45.17 330.77 41.77C333.69 38.37 335.16 33.75 335.16 27.89C335.16 22.03 333.7 17.42 330.77 14.01C327.85 10.61 323.93 8.91 319.03 8.91C314.13 8.91 310.22 10.61 307.29 14.01C304.37 17.41 302.9 22.04 302.9 27.89C302.9 33.74 304.36 38.37 307.29 41.77Z" fill="#F4F4F4"/>
<path d="M25.8 136.83H39.49V145.11H0V137.58L18.34 115.07C21.35 111.42 24.32 107.91 27.24 104.53C20.94 104.62 16.24 104.67 13.14 104.67H0.96V96.3901H39.08V103.85L20.6 126.43C17.59 130.08 14.62 133.59 11.7 136.97C18 136.88 22.69 136.83 25.8 136.83Z" fill="#F4F4F4"/>
<path d="M79.79 145.11L75.96 134.37H54.61L50.85 145.11H41.34L59.89 96.3901H70.7L89.59 145.11H79.8H79.79ZM57.42 126.5H73.16L71.24 121.23C69.55 116.85 67.54 111.28 65.22 104.53C63.21 110.42 61.23 115.98 59.27 121.23L57.42 126.5Z" fill="#F4F4F4"/>
<path d="M125.37 96.3901H134.27V145.11H124.01L110.46 123.42C106.49 117.17 103.59 112.29 101.77 108.78C101.95 114.53 102.04 122.4 102.04 132.39V145.12H93.14V96.4001H103.4L117.02 118.09C120.99 124.52 123.86 129.4 125.64 132.73C125.46 125.07 125.37 117.2 125.37 109.12V96.3901Z" fill="#F4F4F4"/>
<path d="M165.61 118.83H187.37V145.11H180.66L179.36 138.68C175.85 143.7 170.55 146.21 163.48 146.21C156.41 146.21 150.82 143.88 146.58 139.23C142.34 134.58 140.22 128.42 140.22 120.75C140.22 113.08 142.39 106.87 146.72 102.24C151.05 97.61 156.92 95.29 164.31 95.29C170.42 95.29 175.5 96.85 179.54 99.98C183.58 103.11 186.01 107.31 186.83 112.61H177.32C176.64 109.74 175.14 107.48 172.84 105.84C170.54 104.2 167.72 103.38 164.39 103.38C159.92 103.38 156.38 104.93 153.78 108.03C151.18 111.13 149.88 115.38 149.88 120.76C149.88 126.14 151.2 130.39 153.85 133.49C156.5 136.59 160.12 138.14 164.73 138.14C168.38 138.14 171.5 137.04 174.11 134.85C176.71 132.66 178.12 129.81 178.35 126.3H165.62V118.84L165.61 118.83Z" fill="#F4F4F4"/>
<path d="M233.22 139.43C233.31 141.85 233.81 143.74 234.73 145.11H225.22C224.44 143.83 224.01 141.89 223.92 139.29L223.71 133.95C223.57 130.94 222.89 128.86 221.66 127.72C220.43 126.58 218.51 126.01 215.91 126.01H203.87V145.1H194.63V96.3801H216.73C222.2 96.3801 226.44 97.6201 229.42 100.11C232.41 102.6 233.9 105.94 233.9 110.14C233.9 112.97 233.2 115.39 231.81 117.39C230.42 119.4 228.4 120.86 225.75 121.77C228.3 122.59 230.1 123.85 231.12 125.53C232.15 127.22 232.7 129.43 232.8 132.17L233.21 139.42L233.22 139.43ZM203.86 118.76H216.18C218.73 118.76 220.74 118.11 222.2 116.81C223.66 115.51 224.39 113.63 224.39 111.16C224.39 108.69 223.64 107 222.13 105.79C220.62 104.58 218.53 103.98 215.83 103.98H203.85V118.76H203.86Z" fill="#F4F4F4"/>
<path d="M240.13 145.11V96.3901H249.37V145.11H240.13Z" fill="#F4F4F4"/>
<path d="M266.61 136.83H289.81V145.11H257.37V96.3901H266.61V136.83Z" fill="#F4F4F4"/>
<path d="M304.11 136.83H327.31V145.11H294.87V96.3901H304.11V136.83Z" fill="#F4F4F4"/>
<path d="M332.38 145.11V96.3901H341.62V145.11H332.38Z" fill="#F4F4F4"/>
<path d="M345.65 69.3201H1.55V79.3201H345.65V69.3201Z" fill="#F4F4F4"/>
</g>
<defs>
<clipPath id="clip0_771_1325">
<rect width="345.65" height="146.21" fill="white"/>
</clipPath>
</defs>
</svg>
