<svg width="1798" height="156" viewBox="0 0 1798 156" fill="none" xmlns="http://www.w3.org/2000/svg">
<g clip-path="url(#clip0_645_1153)">
<path d="M57.33 3.66992C81.27 3.66992 99.75 10.3599 112.77 23.7299C125.79 37.0999 132.3 55.3299 132.3 78.4399C132.3 101.55 125.79 119.78 112.77 133.14C99.75 146.51 81.27 153.2 57.33 153.2H0.209961V3.6799H57.33V3.66992ZM56.91 128.83C71.61 128.83 82.95 124.53 90.93 115.91C98.91 107.3 102.9 94.8099 102.9 78.4299C102.9 62.0499 98.91 49.5499 90.93 40.9399C82.95 32.3299 71.61 28.0199 56.91 28.0199H28.56V128.82H56.91V128.83Z" fill="#F4F4F4"/>
<path d="M246.96 153.19L235.2 120.22H169.68L158.13 153.19H128.94L185.85 3.66992H219.03L276.99 153.19H246.96ZM178.29 96.0699H226.59L220.71 79.8999C215.53 66.4599 209.37 49.3799 202.23 28.6599C196.07 46.7199 189.98 63.7999 183.96 79.8999L178.29 96.0699Z" fill="#F4F4F4"/>
<path d="M405.93 3.66992H447.09V153.19H420V107.62C420 82.2799 420.28 57.5699 420.84 33.4899C417.9 43.5699 414.12 55.0499 409.5 67.9299L379.26 153.19H355.95L325.5 67.9299C320.88 54.3499 317.17 43.0099 314.37 33.9099C314.93 57.8499 315.21 82.4199 315.21 107.62V153.19H287.91V3.66992H329.07L354.9 76.3299C359.1 89.2099 363.37 102.72 367.71 116.86C372.05 101.74 376.46 87.7399 380.94 74.8599L405.93 3.66992Z" fill="#F4F4F4"/>
<path d="M471.66 153.19V3.66992H500.01V153.19H471.66Z" fill="#F4F4F4"/>
<path d="M628.96 153.19L617.2 120.22H551.68L540.13 153.19H510.94L567.85 3.66992H601.03L658.99 153.19H628.96ZM560.29 96.0699H608.59L602.71 79.8999C597.53 66.4599 591.37 49.3799 584.23 28.6599C578.07 46.7199 571.98 63.7999 565.96 79.8999L560.29 96.0699Z" fill="#F4F4F4"/>
<path d="M768.82 3.66992H796.12V153.19H764.62L723.04 86.6199C710.86 67.4399 701.97 52.4599 696.37 41.6799C696.93 59.3199 697.21 83.4699 697.21 114.13V153.19H669.91V3.66992H701.41L743.2 70.2399C755.38 89.9799 764.2 104.96 769.66 115.18C769.1 91.6599 768.82 67.5099 768.82 42.7299V3.66992Z" fill="#F4F4F4"/>
<path d="M1077.85 134.32H1109.05V153.2H1019.04V136.04L1060.85 84.7198C1067.71 76.3998 1074.47 68.3899 1081.13 60.6999C1066.78 60.9099 1056.06 61.0099 1048.99 61.0099H1021.22V42.1299H1108.11V59.1299L1065.99 110.61C1059.13 118.93 1052.36 126.94 1045.71 134.63C1060.06 134.42 1070.77 134.32 1077.85 134.32Z" fill="#F4F4F4"/>
<path d="M1200.94 153.19L1192.2 128.7H1143.53L1134.95 153.19H1113.27L1155.55 42.1201H1180.2L1223.26 153.19H1200.95H1200.94ZM1149.92 110.76H1185.8L1181.43 98.7501C1177.58 88.7701 1173.01 76.0801 1167.7 60.6901C1163.12 74.1101 1158.6 86.8001 1154.13 98.7501L1149.92 110.76Z" fill="#F4F4F4"/>
<path d="M1304.83 42.1201H1325.11V153.19H1301.71L1270.82 103.74C1261.77 89.4901 1255.17 78.3701 1251.01 70.3601C1251.42 83.4601 1251.63 101.4 1251.63 124.18V153.2H1231.35V42.1301H1254.75L1285.79 91.5801C1294.84 106.24 1301.39 117.37 1305.45 124.96C1305.03 107.49 1304.83 89.5501 1304.83 71.1401V42.1201Z" fill="#F4F4F4"/>
<path d="M1396.56 93.2899H1446.17V153.19H1430.88L1427.92 138.53C1419.91 149.97 1407.85 155.69 1391.73 155.69C1375.61 155.69 1362.87 150.39 1353.2 139.78C1343.53 129.17 1338.69 115.13 1338.69 97.6599C1338.69 80.1899 1343.63 66.0199 1353.51 55.4599C1363.39 44.9099 1376.75 39.6299 1393.6 39.6299C1407.53 39.6299 1419.11 43.1899 1428.31 50.3199C1437.51 57.4399 1443.05 67.0399 1444.92 79.0999H1423.24C1421.68 72.5499 1418.27 67.3999 1413.02 63.6599C1407.77 59.9199 1401.34 58.0399 1393.75 58.0399C1383.56 58.0399 1375.5 61.5799 1369.57 68.6499C1363.64 75.7199 1360.68 85.3999 1360.68 97.6699C1360.68 109.94 1363.69 119.61 1369.73 126.69C1375.76 133.76 1384.03 137.3 1394.53 137.3C1402.85 137.3 1409.97 134.8 1415.9 129.81C1421.83 124.82 1425.05 118.32 1425.57 110.31H1396.55V93.3099L1396.56 93.2899Z" fill="#F4F4F4"/>
<path d="M1550.69 140.24C1550.9 145.75 1552.04 150.07 1554.12 153.19H1532.44C1530.67 150.28 1529.68 145.86 1529.48 139.93L1529.01 127.76C1528.7 120.9 1527.14 116.17 1524.33 113.56C1521.52 110.96 1517.15 109.66 1511.23 109.66H1483.77V153.18H1462.71V42.1099H1513.1C1525.58 42.1099 1535.23 44.9399 1542.04 50.6099C1548.85 56.2799 1552.26 63.8999 1552.26 73.4599C1552.26 79.9099 1550.67 85.4199 1547.5 89.9999C1544.33 94.5799 1539.72 97.9099 1533.69 99.9799C1539.51 101.85 1543.6 104.71 1545.94 108.56C1548.28 112.41 1549.55 117.45 1549.76 123.69L1550.7 140.23L1550.69 140.24ZM1483.76 93.1299H1511.84C1517.66 93.1299 1522.24 91.6499 1525.57 88.6799C1528.9 85.7199 1530.56 81.4299 1530.56 75.8099C1530.56 70.1899 1528.84 66.3199 1525.41 63.5599C1521.98 60.8099 1517.19 59.4299 1511.06 59.4299H1483.76V93.1299Z" fill="#F4F4F4"/>
<path d="M1566.44 153.19V42.1201H1587.5V153.19H1566.44Z" fill="#F4F4F4"/>
<path d="M1626.81 134.32H1679.69V153.2H1605.75V42.1299H1626.81V134.33V134.32Z" fill="#F4F4F4"/>
<path d="M1712.3 134.32H1765.18V153.2H1691.24V42.1299H1712.3V134.33V134.32Z" fill="#F4F4F4"/>
<path d="M1776.72 153.19V42.1201H1797.78V153.19H1776.72Z" fill="#F4F4F4"/>
<path d="M1797.79 0.310059H1018.92V19.5701H1797.79V0.310059Z" fill="#F4F4F4"/>
</g>
<defs>
<clipPath id="clip0_645_1153">
<rect width="1798" height="156" fill="white"/>
</clipPath>
</defs>
</svg>
