<svg width="1833" height="156" viewBox="0 0 1833 156" fill="none" xmlns="http://www.w3.org/2000/svg">
<path d="M0 152.5V0H59.6503C75.1085 0 87.0968 2.454 95.6054 7.35194C107.181 14.03 115.69 25.6362 121.141 42.1806C124.611 52.5297 126.351 63.8743 126.351 76.1946C126.351 100.503 120.186 120.055 107.865 134.829C101.801 141.98 94.4186 146.777 85.6989 149.231C78.2061 151.414 69.5266 152.5 59.6503 152.5H0ZM31.3589 126.351H59.5497C71.5984 126.351 80.3182 122.438 85.6989 114.604C91.8942 105.552 94.9919 92.7792 94.9919 76.2952C94.9919 59.8112 91.8942 46.9478 85.6989 37.8861C80.3182 30.0514 71.5984 26.1391 59.5497 26.1391H31.3589V126.341V126.351Z" fill="white"/>
<path d="M239.627 121.755H182.531L172.313 152.5H140.341L194.479 0H229.308L281.908 152.5H249.735L239.627 121.755ZM231.249 95.6053L211.336 36.0557L191.311 95.6053H231.249Z" fill="white"/>
<path d="M331.149 33.7022V152.5H299.79V0H346.678L374.255 121.352L401.018 0H448.307V152.5H416.948V33.7022L389.985 152.5H358.525L331.149 33.7022Z" fill="white"/>
<path d="M504.8 0V152.5H473.441V0H504.8Z" fill="white"/>
<path d="M623.084 121.755H565.989L555.77 152.5H523.798L577.937 0H612.765L665.366 152.5H633.192L623.084 121.755ZM614.707 95.6053L594.793 36.0557L574.769 95.6053H614.707Z" fill="white"/>
<path d="M776.298 152.5L715.009 47.0886V152.5H683.65V0H715.823L776.288 103.681V0H807.647V152.5H776.288H776.298Z" fill="white"/>
<path d="M1115.67 41.0542V60.1632L1058.72 133.391H1115.67V152.5H1031.93V133.391L1088.88 60.1632H1031.93V41.0542H1115.67Z" fill="white"/>
<path d="M1197.26 130.032H1155.53L1148.07 152.5H1124.71L1164.27 41.0542H1189.73L1228.17 152.5H1204.65L1197.26 130.032ZM1191.13 110.923L1176.58 67.4045L1161.95 110.923H1191.13Z" fill="white"/>
<path d="M1309.23 152.5L1264.44 75.4705V152.5H1241.52V41.0542H1265.04L1309.23 116.816V41.0542H1332.15V152.5H1309.23Z" fill="white"/>
<path d="M1450.23 92.5581V152.792H1436.58L1433.81 138.158C1430.23 143.287 1426.45 147.19 1422.46 149.875C1416.39 153.958 1408.96 156 1400.15 156C1385.27 156 1372.9 150.65 1363.05 139.948C1358.22 134.628 1354.49 128.282 1351.85 120.91C1349.22 113.598 1347.9 105.804 1347.9 97.5466C1347.9 85.7996 1350.48 75.1287 1355.66 65.5239C1361.29 55.1749 1369.37 47.7626 1379.92 43.277C1386.44 40.5414 1393.78 39.1736 1401.94 39.1736C1419.21 39.1736 1432.34 44.5744 1441.35 55.376C1446.28 61.2998 1449.27 68.3903 1450.31 76.6474H1428.74C1426.95 71.669 1424.64 67.9377 1421.8 65.4535C1416.67 60.978 1410.08 58.7352 1402.02 58.7352C1392.71 58.7352 1385.44 61.7222 1380.22 67.6963C1373.96 74.8572 1370.82 84.7435 1370.82 97.3253C1370.82 108.278 1373.59 117.309 1379.11 124.42C1385.32 132.436 1393.19 136.438 1402.69 136.438C1408.01 136.438 1412.97 135.091 1417.55 132.405C1425.56 127.779 1430.04 120.86 1430.98 111.657H1405.61V92.5481H1450.24L1450.23 92.5581Z" fill="white"/>
<path d="M1495.61 108.308V152.5H1472.69V41.0542H1532.41C1541.87 41.0542 1549.11 43.6188 1554.14 48.738C1559.71 54.4104 1562.49 61.9031 1562.49 71.2062C1562.49 84.6931 1556.2 93.8755 1543.61 98.7533C1548.48 100.644 1552.14 102.988 1554.58 105.773C1556.37 107.916 1557.51 111.426 1558.01 116.293C1558.46 121.473 1558.8 129.106 1559.05 139.214C1559.15 141.849 1559.6 143.871 1560.4 145.259C1561.15 146.405 1562.34 147.421 1563.98 148.316V152.5H1539.35C1537.86 149.664 1536.94 147.079 1536.59 144.736C1536.13 142 1535.91 138.218 1535.91 133.391C1535.91 131.098 1535.93 128.644 1535.98 125.999C1536.03 124.058 1536.05 122.589 1536.05 121.594C1536.05 117.862 1535.38 115.076 1534.04 113.236C1531.75 109.947 1527.69 108.308 1521.87 108.308H1495.6H1495.61ZM1495.61 89.1988H1523.23C1527.16 89.1988 1530.02 88.8971 1531.82 88.3037C1536.95 86.5638 1539.5 81.9374 1539.5 74.4246C1539.5 69.1545 1538.1 65.3729 1535.32 63.0798C1533.53 61.5913 1531.47 60.7163 1529.12 60.4649C1527.48 60.2638 1525.51 60.1632 1523.23 60.1632H1495.61V89.1988Z" fill="white"/>
<path d="M1603.4 41.0542V152.5H1580.48V41.0542H1603.4Z" fill="white"/>
<path d="M1648.48 41.0542V133.391H1701.86V152.5H1625.57V41.0542H1648.49H1648.48Z" fill="white"/>
<path d="M1741.87 41.0542V133.391H1795.24V152.5H1718.96V41.0542H1741.88H1741.87Z" fill="white"/>
<path d="M1832.63 41.0542V152.5H1809.71V41.0542H1832.63Z" fill="white"/>
<path d="M1832.65 0H1031.96V23.1521H1832.65V0Z" fill="white"/>
</svg>
