<svg width="346" height="148" viewBox="0 0 346 148" fill="none" xmlns="http://www.w3.org/2000/svg">
<path d="M0 54.8504V0.900391H21.1C26.57 0.900391 30.81 1.7704 33.82 3.5004C37.91 5.8604 40.93 9.97039 42.85 15.8204C44.08 19.4804 44.69 23.4904 44.69 27.8504C44.69 36.4504 42.51 43.3604 38.15 48.5904C36.01 51.1204 33.39 52.8204 30.31 53.6804C27.66 54.4504 24.59 54.8404 21.1 54.8404H0V54.8504ZM11.1 45.6004H21.07C25.33 45.6004 28.42 44.2204 30.32 41.4404C32.51 38.2404 33.61 33.7204 33.61 27.8904C33.61 22.0604 32.51 17.5104 30.32 14.3004C28.42 11.5304 25.33 10.1404 21.07 10.1404H11.1V45.5904V45.6004Z" fill="white"/>
<path d="M84.77 43.9704H64.57L60.96 54.8504H49.65L68.8 0.900391H81.12L99.73 54.8504H88.35L84.77 43.9704ZM81.81 34.7204L74.76 13.6504L67.68 34.7204H81.81Z" fill="white"/>
<path d="M117.15 12.8304V54.8504H106.06V0.900391H122.64L132.4 43.8304L141.87 0.900391H158.6V54.8504H147.51V12.8304L137.97 54.8504H126.84L117.16 12.8304H117.15Z" fill="white"/>
<path d="M178.57 0.900391V54.8504H167.48V0.900391H178.57Z" fill="white"/>
<path d="M220.41 43.9704H200.21L196.6 54.8504H185.29L204.44 0.900391H216.76L235.37 54.8504H223.99L220.41 43.9704ZM217.45 34.7204L210.4 13.6504L203.32 34.7204H217.45Z" fill="white"/>
<path d="M274.61 54.8504L252.93 17.5604V54.8504H241.84V0.900391H253.22L274.61 37.5704V0.900391H285.7V54.8504H274.61Z" fill="white"/>
<path d="M319.13 0C326.79 0 332.96 2.48 337.63 7.44C339.97 9.95 341.81 13.02 343.16 16.65C344.51 20.34 345.18 24.33 345.18 28.65C345.18 34.07 343.92 39.13 341.39 43.83C338.88 48.43 335.44 51.83 331.06 54.02C327.66 55.71 323.71 56.55 319.21 56.55C311.57 56.55 305.43 54.07 300.78 49.11C298.42 46.58 296.58 43.51 295.25 39.9C293.9 36.24 293.23 32.36 293.23 28.27C293.23 22.56 294.49 17.38 297.02 12.73C301.64 4.25 309.02 0.00999451 319.13 0.00999451V0ZM319.16 9.47C315.14 9.47 311.84 10.84 309.26 13.59C305.96 17.11 304.31 22 304.31 28.26C304.31 34.52 305.96 39.43 309.26 42.97C311.81 45.72 315.13 47.09 319.2 47.09C323.27 47.09 326.63 45.72 329.14 42.97C332.44 39.38 334.09 34.58 334.09 28.55C334.09 22.12 332.44 17.13 329.14 13.59C326.59 10.84 323.26 9.47 319.17 9.47H319.16Z" fill="white"/>
<path d="M0.0899658 72.5508L0.0899658 81.5508L345.09 81.5508V72.5508L0.0899658 72.5508Z" fill="white"/>
<path d="M37.975 98.3516V106.472L13.755 137.612H37.975V145.732H2.36499V137.612L26.585 106.472H2.36499V98.3516H37.975Z" fill="white"/>
<path d="M72.665 136.192H54.925L51.755 145.742H41.825L58.645 98.3516H69.465L85.815 145.742H75.815L72.675 136.192H72.665ZM70.065 128.062L63.875 109.562L57.655 128.062H70.065Z" fill="white"/>
<path d="M120.275 145.742L101.235 112.992V145.742H91.495V98.3516H101.495L120.285 130.562V98.3516H130.025V145.742H120.285H120.275Z" fill="white"/>
<path d="M180.225 120.251V145.861H174.415L173.245 139.641C171.725 141.821 170.115 143.481 168.425 144.621C165.845 146.351 162.685 147.221 158.935 147.221C152.605 147.221 147.355 144.951 143.165 140.401C141.115 138.141 139.525 135.441 138.405 132.311C137.285 129.201 136.725 125.891 136.725 122.381C136.725 117.391 137.825 112.851 140.025 108.761C142.415 104.361 145.855 101.211 150.335 99.3008C153.105 98.1408 156.225 97.5508 159.695 97.5508C167.035 97.5508 172.625 99.8508 176.455 104.441C178.545 106.961 179.815 109.971 180.265 113.491H171.095C170.335 111.371 169.345 109.791 168.145 108.731C165.965 106.831 163.165 105.871 159.735 105.871C155.775 105.871 152.685 107.141 150.465 109.681C147.795 112.731 146.465 116.931 146.465 122.281C146.465 126.941 147.635 130.781 149.985 133.801C152.625 137.211 155.975 138.911 160.015 138.911C162.275 138.911 164.385 138.341 166.335 137.201C169.745 135.231 171.645 132.291 172.045 128.381H161.255V120.261H180.235L180.225 120.251Z" fill="white"/>
<path d="M199.525 126.952V145.742H189.785V98.3516H215.175C219.195 98.3516 222.275 99.4416 224.415 101.622C226.785 104.032 227.965 107.222 227.965 111.172C227.965 116.902 225.285 120.812 219.935 122.882C222.005 123.682 223.565 124.682 224.605 125.862C225.365 126.772 225.855 128.262 226.065 130.342C226.255 132.542 226.405 135.792 226.505 140.082C226.545 141.202 226.735 142.062 227.075 142.652C227.395 143.142 227.905 143.572 228.595 143.952V145.732H218.125C217.495 144.522 217.095 143.422 216.955 142.432C216.765 141.272 216.665 139.662 216.665 137.612C216.665 136.642 216.675 135.592 216.695 134.472C216.715 133.642 216.725 133.022 216.725 132.602C216.725 131.012 216.435 129.832 215.865 129.052C214.895 127.652 213.165 126.962 210.695 126.962H199.525V126.952ZM199.525 118.822H211.265C212.935 118.822 214.155 118.692 214.915 118.442C217.095 117.702 218.185 115.732 218.185 112.542C218.185 110.302 217.595 108.692 216.405 107.722C215.645 107.092 214.765 106.722 213.775 106.612C213.075 106.532 212.245 106.482 211.265 106.482H199.525V118.832V118.822Z" fill="white"/>
<path d="M245.355 98.3516V145.742H235.615V98.3516H245.355Z" fill="white"/>
<path d="M264.525 98.3499V137.61H287.215V145.73H254.775V98.3398H264.515L264.525 98.3499Z" fill="white"/>
<path d="M304.225 98.3499V137.61H326.915V145.73H294.475V98.3398H304.215L304.225 98.3499Z" fill="white"/>
<path d="M342.815 98.3516V145.742H333.075V98.3516H342.815Z" fill="white"/>
</svg>
