<svg width="59" height="85" viewBox="0 0 59 85" fill="none" xmlns="http://www.w3.org/2000/svg">
<g clip-path="url(#clip0_129_626)">
<path d="M51.7931 29.2111C56.1034 26.3808 58.9655 21.4794 58.9655 15.9222C58.9655 7.15499 51.8276 0.0445557 43.1034 0.0445557H15.8621C7.10345 0.0445557 0 7.1895 0 15.9222C0 21.4794 2.86207 26.3808 7.17241 29.2111C2.86207 32.0415 0 36.9429 0 42.5C0 48.0572 2.86207 52.9586 7.17241 55.789C2.86207 58.6193 0 63.5207 0 69.0779C0 77.8451 7.17241 84.9555 15.9655 84.9555C24.8621 84.9555 32.1034 77.7415 32.1034 68.9053V54.2357C34.931 56.7899 38.6897 58.3777 42.7931 58.3777H43.1379C51.8965 58.3777 59 51.2328 59 42.5C58.9655 36.9429 56.1034 32.0415 51.7931 29.2111ZM26.8965 68.9053C26.8965 74.8767 22 79.778 15.9655 79.778C10.0345 79.778 5.2069 74.9802 5.2069 69.0779C5.2069 63.1755 10 58.4122 15.8621 58.3777H26.8965V68.9053ZM26.8965 53.2002H15.8621C9.96552 53.2002 5.2069 48.4024 5.2069 42.5C5.2069 36.5977 10 31.7999 15.8966 31.7999H26.931V53.2002H26.8965ZM26.8965 26.6224H15.8621C9.96552 26.6224 5.17241 21.8246 5.17241 15.9222C5.17241 10.0199 9.96552 5.22205 15.8621 5.22205H26.8965V26.6224ZM32.069 5.22205H43.1034C49 5.22205 53.7931 10.0199 53.7931 15.9222C53.7931 21.8246 49 26.6224 43.1034 26.6224H32.069V5.22205ZM43.1034 53.2002H42.7586C36.8621 53.2002 32.069 48.4024 32.069 42.5C32.069 36.5977 36.8621 31.7999 42.7586 31.7999H43.1034C49 31.7999 53.7931 36.5977 53.7931 42.5C53.7931 48.4024 49 53.2002 43.1034 53.2002Z" fill="white"/>
</g>
<defs>
<clipPath id="clip0_129_626">
<rect width="59" height="85" fill="white"/>
</clipPath>
</defs>
</svg>
