<svg width="62" height="62" viewBox="0 0 62 62" fill="none" xmlns="http://www.w3.org/2000/svg">
<path d="M49.1713 8.1787L41.0169 17.98C40.7723 18.2755 40.5809 18.6121 40.455 18.9778C39.8253 20.8039 38.6919 22.429 37.1879 23.6303C35.4248 25.0398 33.2281 25.8148 31.0024 25.8148C30.2468 25.8148 29.4863 25.7252 28.7452 25.5508C26.1417 24.9381 23.9281 23.3251 22.5089 21.0122C21.8623 19.9587 21.4191 18.818 21.1842 17.6361C21.0558 16.9895 20.7361 16.401 20.2663 15.9456L12.6955 8.63159C11.981 7.94135 10.7725 8.39424 10.7095 9.39448C10.6926 9.65846 10.7362 9.93213 10.8549 10.1913L30.2613 53.4871C30.7239 54.5213 32.1795 54.4922 32.6202 53.4411L51.1621 9.40416C51.1621 9.40416 51.1694 9.38479 51.1742 9.37268C51.6707 8.12784 50.0238 7.15182 49.1713 8.1787Z" fill="#F4F4F4"/>
<path d="M37.9508 21.3125C38.595 20.4188 39.0794 19.3847 39.3409 18.244C40.4041 13.6448 37.527 9.03602 32.9278 7.97039C32.2812 7.82023 31.6345 7.75 30.9976 7.75C27.1032 7.75 23.5697 10.431 22.6542 14.3835C22.2716 16.0352 22.3999 17.6845 22.9303 19.174L25.1851 21.3125H37.9484H37.9508ZM32.7026 18.5588L33.3516 15.7495C33.4679 15.2505 33.9135 14.9115 34.4052 14.9115C34.4851 14.9115 34.5674 14.9212 34.6498 14.9405C35.231 15.0762 35.5943 15.655 35.4587 16.2387L34.8096 19.048C34.6934 19.547 34.2477 19.886 33.7561 19.886C33.6762 19.886 33.5938 19.8763 33.5115 19.857C32.9302 19.7213 32.567 19.1425 32.7026 18.5588ZM26.3791 17.096L27.0281 14.2866C27.1444 13.7877 27.59 13.4487 28.0816 13.4487C28.1616 13.4487 28.2439 13.4584 28.3263 13.4777C28.9075 13.6134 29.2708 14.1922 29.1352 14.7759L28.4861 17.5852C28.3698 18.0841 27.9242 18.4232 27.4326 18.4232C27.3527 18.4232 27.2703 18.4135 27.188 18.3941C26.6067 18.2585 26.2434 17.6797 26.3791 17.096Z" fill="#F4F4F4"/>
<path d="M29.0698 24.6572C29.7164 24.8074 30.3631 24.8776 31 24.8776C33.7731 24.8776 36.3596 23.5189 37.9508 21.3126H25.1875L22.9327 19.1741C23.8797 21.8333 26.1199 23.9742 29.0698 24.6572Z" fill="#F4F4F4"/>
</svg>
