<svg width="32" height="32" viewBox="0 0 32 32" fill="none" xmlns="http://www.w3.org/2000/svg">
<path d="M24 28.9969H21C19.35 28.9969 18 27.6469 18 25.9969V22.9969C18 22.4469 17.55 21.9969 17 21.9969H15C14.45 21.9969 14 22.4469 14 22.9969V25.9969C14 27.6469 12.65 28.9969 11 28.9969H8.00002C6.35002 28.9969 5.00002 27.6469 5.00002 25.9969V16.8844C4.15002 16.6469 3.46252 16.0594 3.15002 15.2469C2.78752 14.2844 3.06252 13.2469 3.87502 12.5344L14.0375 3.72187C15.1375 2.75937 16.8625 2.75937 17.975 3.72187L28.125 12.5344C28.9375 13.2344 29.2125 14.2719 28.85 15.2469C28.55 16.0594 27.8625 16.6469 27 16.8844V25.9969C27 27.6469 25.65 28.9969 24 28.9969ZM15 19.9969H17C18.65 19.9969 20 21.3469 20 22.9969V25.9969C20 26.5469 20.45 26.9969 21 26.9969H24C24.55 26.9969 25 26.5469 25 25.9969V14.9969H26.175C26.6375 14.9969 26.9 14.7594 26.975 14.5469C27.0375 14.3719 26.9875 14.2094 26.8125 14.0469L16.6625 5.23438C16.325 4.93438 15.7 4.93438 15.35 5.23438L5.18752 14.0469C5.01252 14.1969 4.95002 14.3594 5.02502 14.5469C5.10002 14.7594 5.36252 14.9969 5.82502 14.9969H7.00002V25.9969C7.00002 26.5469 7.45002 26.9969 8.00002 26.9969H11C11.55 26.9969 12 26.5469 12 25.9969V22.9969C12 21.3469 13.35 19.9969 15 19.9969Z" fill="white"/>
</svg>
