<svg width="32" height="32" viewBox="0 0 32 32" fill="none" xmlns="http://www.w3.org/2000/svg">
<path d="M27.4625 13.2812L17.3125 4.46875C16.5875 3.84375 15.4125 3.84375 14.6875 4.46875L4.53753 13.2812C3.38753 14.2812 4.20003 15.9812 5.82503 15.9812H6.00003V25.9813C6.00003 27.0813 6.90003 27.9813 8.00003 27.9813H11C12.1 27.9813 13 27.0813 13 25.9813V22.9813C13 21.8813 13.9 20.9813 15 20.9813H17C18.1 20.9813 19 21.8813 19 22.9813V25.9813C19 27.0813 19.9 27.9813 21 27.9813H24C25.1 27.9813 26 27.0813 26 25.9813V15.9812H26.175C27.8 15.9812 28.6125 14.2812 27.4625 13.2812Z" fill="white"/>
</svg>
