<svg width="24" height="24" viewBox="0 0 24 24" fill="none" xmlns="http://www.w3.org/2000/svg">
<path d="M23.7612 10.7025L12.5737 0.22125C12.2587 -0.07375 11.7425 -0.07375 11.4275 0.22125L0.238729 10.7025C-0.271271 11.1812 0.0899788 11.9987 0.811229 11.9987H1.99873V23.1912C1.99873 23.6375 2.35998 23.9988 2.80623 23.9988H8.19123C8.63748 23.9988 8.99873 23.6375 8.99873 23.1912V17.525C8.99873 16.6813 9.68248 15.9987 10.525 15.9987H12.94C12.98 15.9987 13.0187 15.9863 13.0512 15.9625C13.9912 15.2738 15.18 14.9062 16.455 15.02C18.7975 15.2287 20.7025 17.0862 20.965 19.4237C21.1537 21.0987 20.5075 22.6338 19.3925 23.6675C19.2637 23.7863 19.3462 24 19.5212 24H21.19C21.6362 24 21.9975 23.6388 21.9975 23.1925V12H23.185C23.9075 12 24.2687 11.1825 23.7575 10.7037L23.7612 10.7025Z" fill="#F4F4F4"/>
<path d="M16 15.999C15.4375 15.999 14.9013 16.1165 14.415 16.3253C12.9938 16.939 12 18.3528 12 19.999C12 22.2078 13.7912 23.999 16 23.999C16.11 23.999 16.22 23.9928 16.3275 23.984C18.3837 23.8178 20 22.0978 20 19.999C20 17.7903 18.2088 15.999 16 15.999ZM13.7812 21.9728C13.75 21.979 13.7175 21.9815 13.6875 21.9815C13.4525 21.9815 13.2425 21.8153 13.1975 21.5753L12.8225 19.6103C12.7713 19.339 12.9487 19.0778 13.22 19.0253C13.2512 19.019 13.2837 19.0165 13.3137 19.0165C13.5487 19.0165 13.7587 19.1828 13.8037 19.4228L14.1787 21.3878C14.23 21.659 14.0525 21.9203 13.7812 21.9728Z" fill="#F4F4F4"/>
</svg>
