<svg width="24" height="25" viewBox="0 0 24 25" fill="none" xmlns="http://www.w3.org/2000/svg">
<path d="M23.1849 9.6425L13.6224 0.64375C13.1811 0.22875 12.6049 0 11.9999 0C11.3949 0 10.8186 0.22875 10.3774 0.64375L0.814871 9.6425C0.0411208 10.3713 -0.207629 11.4775 0.181121 12.46C0.454871 13.1513 0.997371 13.6737 1.66612 13.93V21.7337C1.66612 23.045 2.72862 24.1063 4.03987 24.1063H7.62737C8.93862 24.1063 10.0011 23.0437 10.0011 21.7337V18.3825C10.0011 17.8612 10.4236 17.44 10.9436 17.44H13.0199C13.6936 16.6875 14.6474 16.1925 15.7186 16.1175C15.4336 15.7088 14.9611 15.44 14.4249 15.44H9.57737C8.70737 15.44 8.00112 16.1462 8.00112 17.0163V21.7337C8.00112 21.94 7.83362 22.1063 7.62737 22.1063H4.03987C3.83362 22.1063 3.66612 21.9387 3.66612 21.7325V12.1062H2.62862C2.06862 12.1062 1.78862 11.47 2.18487 11.0975L11.7486 2.1C11.8199 2.03375 11.9099 2 11.9999 2C12.0899 2 12.1811 2.03375 12.2511 2.1L21.8136 11.0988C22.2086 11.4713 21.9286 12.1075 21.3699 12.1075H20.3324V21.735C20.3324 21.9412 20.1649 22.1075 19.9599 22.1075H19.4636C18.8086 23.24 17.6149 24.0212 16.2311 24.1C16.2786 24.1025 16.3249 24.1075 16.3724 24.1075H19.9599C21.2711 24.1075 22.3324 23.045 22.3324 21.735V13.9312C23.0011 13.6737 23.5436 13.1512 23.8174 12.4613C24.2074 11.4788 23.9586 10.3725 23.1836 9.64375L23.1849 9.6425Z" fill="#F4F4F4"/>
<path d="M15.9998 17.3575C17.516 17.3575 18.7498 18.5913 18.7498 20.1075C18.7498 20.895 18.416 21.6063 17.8848 22.1075H19.4635C19.8035 21.5188 19.9998 20.8363 19.9998 20.1075C19.9998 17.8988 18.2085 16.1075 15.9998 16.1075C15.9048 16.1075 15.811 16.1125 15.7173 16.1188C15.8948 16.3738 15.9998 16.6838 15.9998 17.0175V17.3575Z" fill="#F4F4F4"/>
<path d="M14.0177 22.01C13.5427 21.515 13.2502 20.845 13.2502 20.1075C13.2502 19.37 13.5302 18.7275 13.9877 18.2363C13.9165 17.7863 13.5277 17.4413 13.0577 17.4413H13.0202C12.3865 18.1488 12.0015 19.0838 12.0015 20.1075C12.0015 22.3163 13.7927 24.1075 16.0015 24.1075C16.079 24.1075 16.1565 24.105 16.2327 24.1C15.0802 24.0313 14.1502 23.1438 14.019 22.01H14.0177Z" fill="#F4F4F4"/>
<path d="M13.9873 18.2363C14.4898 17.6963 15.2061 17.3575 15.9998 17.3575V17.0175C15.9998 16.6838 15.8948 16.3738 15.7173 16.1188C14.6473 16.1938 13.6923 16.6888 13.0186 17.4413H13.0561C13.5261 17.4413 13.9148 17.7863 13.9861 18.2363H13.9873Z" fill="#F4F4F4"/>
<path d="M19.4638 22.1075H17.8851C17.3926 22.5725 16.7288 22.8575 16.0001 22.8575C15.2213 22.8575 14.5176 22.5313 14.0176 22.01C14.1488 23.1438 15.0801 24.0325 16.2313 24.1C17.6138 24.0213 18.8076 23.24 19.4638 22.1075Z" fill="#F4F4F4"/>
<path d="M15.2751 21.395C15.3201 21.63 15.1664 21.8563 14.9314 21.9013C14.9039 21.9063 14.8764 21.9088 14.8501 21.9088C14.6451 21.9088 14.4651 21.765 14.4251 21.5575L14.1001 19.8563C14.0551 19.6213 14.2089 19.395 14.4439 19.35C14.4714 19.3463 14.4989 19.3425 14.5264 19.3425C14.7301 19.3425 14.9101 19.4875 14.9501 19.6938L15.2751 21.395Z" fill="#F4F4F4"/>
</svg>
