<svg width="24" height="24" viewBox="0 0 24 24" fill="none" xmlns="http://www.w3.org/2000/svg">
<g clip-path="url(#clip0_634_606)">
<path d="M12 0C5.37448 0 0 5.37448 0 12C0 18.6255 5.37448 24 12 24C18.6255 24 24 18.6255 24 12C24 5.37448 18.6255 0 12 0ZM8.9975 15.0025C8.9975 15.553 8.54712 16.0033 7.99666 16.0033C7.44621 16.0033 6.99583 15.553 6.99583 15.0025V9.99833C6.99583 9.44787 7.44621 8.9975 7.99666 8.9975C8.54712 8.9975 8.9975 9.44787 8.9975 9.99833V15.0025ZM16.9942 15.0025C16.9942 15.553 16.5438 16.0033 15.9933 16.0033C15.4429 16.0033 14.9925 15.553 14.9925 15.0025V9.99833C14.9925 9.44787 15.4429 8.9975 15.9933 8.9975C16.5438 8.9975 16.9942 9.44787 16.9942 9.99833V15.0025Z" fill="white"/>
</g>
<defs>
<clipPath id="clip0_634_606">
<rect width="24" height="24" fill="white"/>
</clipPath>
</defs>
</svg>
