<svg width="24" height="24" viewBox="0 0 24 24" fill="none" xmlns="http://www.w3.org/2000/svg">
<g clip-path="url(#clip0_624_786)">
<path d="M4.25 0.00238037H19.75C22.1 0.00238037 24 1.9507 24 4.36046V19.6394C24 22.0491 22.1 23.9975 19.75 23.9975H4.25C1.9 23.9975 0 22.0491 0 19.6394V4.36046C0 1.9507 1.9 0.00238037 4.25 0.00238037Z" fill="#F4F4F4"/>
<path d="M11.6299 14.3995H7.90994L7.14994 16.8093C7.12994 16.9016 7.04994 16.9631 6.95994 16.9528H5.07994C4.96994 16.9528 4.93994 16.8913 4.96994 16.7683L8.18994 7.26253C8.21994 7.15998 8.24994 7.04719 8.28994 6.92413C8.32994 6.70879 8.34994 6.4832 8.34994 6.2576C8.33994 6.20633 8.37994 6.15506 8.42994 6.14481H11.0199C11.0999 6.14481 11.1399 6.17557 11.1499 6.22684L14.7999 16.7888C14.8299 16.9016 14.7999 16.9528 14.6999 16.9528H12.6099C12.5399 16.9631 12.4699 16.9118 12.4499 16.84L11.6299 14.3995ZM8.48994 12.3179H11.0299C10.9699 12.1026 10.8899 11.8462 10.7999 11.5796C10.7099 11.3027 10.6199 11.0053 10.5299 10.6977C10.4299 10.3798 10.3399 10.0722 10.2399 9.75432C10.1399 9.43644 10.0499 9.13906 9.96994 8.84169C9.88994 8.55457 9.81994 8.28796 9.74994 8.04185H9.72994C9.63994 8.48279 9.52994 8.92372 9.38994 9.36466C9.23994 9.85687 9.08994 10.3696 8.92994 10.8823C8.78994 11.4053 8.63994 11.8872 8.48994 12.3179ZM16.9799 7.89829C16.6499 7.90855 16.3299 7.77524 16.0899 7.53939C15.8599 7.28304 15.7399 6.94464 15.7499 6.596C15.7399 6.24735 15.8699 5.91921 16.1099 5.68336C16.3499 5.44751 16.6699 5.32446 16.9999 5.32446C17.3899 5.32446 17.6899 5.44751 17.9099 5.68336C18.1299 5.92947 18.2499 6.2576 18.2399 6.596C18.2499 6.94464 18.1299 7.28304 17.8899 7.53939C17.6599 7.7855 17.3199 7.9188 16.9799 7.89829ZM15.8599 16.799V8.90322C15.8599 8.80067 15.8999 8.75966 15.9899 8.75966H17.9699C18.0599 8.75966 18.0999 8.81093 18.0999 8.90322V16.799C18.0999 16.9118 18.0599 16.9631 17.9699 16.9631H16.0099C15.9099 16.9631 15.8599 16.9016 15.8599 16.799Z" fill="#141414"/>
</g>
<defs>
<clipPath id="clip0_624_786">
<rect width="24" height="24" fill="white"/>
</clipPath>
</defs>
</svg>
