<svg width="44" height="44" viewBox="0 0 44 44" fill="none" xmlns="http://www.w3.org/2000/svg">
<rect width="44" height="44" rx="12" fill="#F4F4F4"/>
<path fill-rule="evenodd" clip-rule="evenodd" d="M14.1875 22.3688C14.1875 17.8501 17.8506 14.187 22.3693 14.187C26.888 14.187 30.5511 17.8501 30.5511 22.3688C30.5511 26.8875 26.888 30.5506 22.3693 30.5506C17.8506 30.5506 14.1875 26.8875 14.1875 22.3688ZM22.3693 27.8233C25.3817 27.8233 27.8239 25.3812 27.8239 22.3688C27.8239 19.3563 25.3817 16.9142 22.3693 16.9142C19.3569 16.9142 16.9148 19.3563 16.9148 22.3688C16.9148 25.3812 19.3569 27.8233 22.3693 27.8233Z" fill="#141414"/>
<path d="M31.9148 14.1869C31.9148 14.94 31.3043 15.5506 30.5511 15.5506C29.798 15.5506 29.1875 14.94 29.1875 14.1869C29.1875 13.4338 29.798 12.8233 30.5511 12.8233C31.3043 12.8233 31.9148 13.4338 31.9148 14.1869Z" fill="#141414"/>
<path fill-rule="evenodd" clip-rule="evenodd" d="M11.8365 8.26048C13.5867 7.36871 15.8778 7.36871 20.46 7.36871H24.2782C28.8605 7.36871 31.1516 7.36871 32.9017 8.26048C34.4413 9.0449 35.693 10.2965 36.4773 11.8361C37.3691 13.5863 37.3691 15.8774 37.3691 20.4596V24.2778C37.3691 28.86 37.3691 31.1512 36.4773 32.9013C35.693 34.4408 34.4413 35.6925 32.9017 36.4769C31.1516 37.3687 28.8605 37.3687 24.2782 37.3687H20.46C15.8778 37.3687 13.5867 37.3687 11.8365 36.4769C10.297 35.6925 9.04532 34.4409 8.2609 32.9013C7.36914 31.1512 7.36914 28.86 7.36914 24.2778V20.4596C7.36914 15.8774 7.36914 13.5863 8.2609 11.8361C9.04532 10.2965 10.297 9.0449 11.8365 8.26048ZM24.2782 10.096H20.46C18.1239 10.096 16.5358 10.0981 15.3083 10.1984C14.1126 10.2961 13.5012 10.4732 13.0746 10.6905C12.0483 11.2134 11.2139 12.0479 10.6909 13.0742C10.4736 13.5008 10.2965 14.1122 10.1988 15.3079C10.0985 16.5354 10.0964 18.1235 10.0964 20.4596V24.2778C10.0964 26.614 10.0985 28.2019 10.1988 29.4295C10.2965 30.6253 10.4736 31.2367 10.6909 31.6633C11.2139 32.6895 12.0483 33.5239 13.0746 34.0469C13.5012 34.2643 14.1126 34.4414 15.3083 34.539C16.5358 34.6393 18.1239 34.6414 20.46 34.6414H24.2782C26.6144 34.6414 28.2024 34.6393 29.4299 34.539C30.6257 34.4414 31.2371 34.2643 31.6637 34.0469C32.69 33.5239 33.5244 32.6895 34.0473 31.6633C34.2647 31.2367 34.4418 30.6253 34.5395 29.4295C34.6397 28.2019 34.6419 26.614 34.6419 24.2778V20.4596C34.6419 18.1235 34.6397 16.5354 34.5395 15.3079C34.4418 14.1122 34.2647 13.5008 34.0473 13.0742C33.5244 12.0479 32.69 11.2134 31.6637 10.6905C31.2371 10.4732 30.6257 10.2961 29.4299 10.1984C28.2024 10.0981 26.6144 10.096 24.2782 10.096Z" fill="#141414"/>
</svg>
