<svg width="44" height="44" viewBox="0 0 44 44" fill="none" xmlns="http://www.w3.org/2000/svg">
<rect width="44" height="44" rx="12" fill="#F4F4F4"/>
<path d="M9.5 12.404C9.5 11.5623 9.78154 10.8678 10.3446 10.3207C10.9076 9.77356 11.6396 9.5 12.5405 9.5C13.4254 9.5 14.1412 9.76934 14.6882 10.3081C15.2513 10.8636 15.5328 11.5875 15.5328 12.4798C15.5328 13.2879 15.2593 13.9613 14.7124 14.5C14.1493 15.0556 13.4093 15.3333 12.4923 15.3333H12.4681C11.5833 15.3333 10.8674 15.0556 10.3205 14.5C9.77348 13.9444 9.5 13.2458 9.5 12.404ZM9.81371 34.5V17.6313H15.1708V34.5H9.81371ZM18.139 34.5H23.4961V25.0808C23.4961 24.4916 23.5605 24.037 23.6892 23.7172C23.9144 23.1448 24.2563 22.6608 24.7148 22.2652C25.1733 21.8695 25.7484 21.6717 26.4402 21.6717C28.242 21.6717 29.1429 22.9428 29.1429 25.4848V34.5H34.5V24.8283C34.5 22.3367 33.9369 20.447 32.8108 19.1591C31.6847 17.8712 30.1966 17.2273 28.3465 17.2273C26.2712 17.2273 24.6544 18.1616 23.4961 20.0303V20.0808H23.472L23.4961 20.0303V17.6313H18.139C18.1712 18.17 18.1873 19.8451 18.1873 22.6566C18.1873 25.468 18.1712 29.4158 18.139 34.5Z" fill="#141414"/>
</svg>
