<svg width="45" height="43" viewBox="0 0 45 43" fill="none" xmlns="http://www.w3.org/2000/svg">
<g clip-path="url(#clip0_986_2530)">
<path d="M35.2104 37.6035C36.2496 37.6035 37.0921 36.9221 37.0921 36.0815C37.0921 35.2409 36.2496 34.5594 35.2104 34.5594C34.1712 34.5594 33.3287 35.2409 33.3287 36.0815C33.3287 36.9221 34.1712 37.6035 35.2104 37.6035Z" fill="#F4F4F4"/>
<path d="M0 27.2317V21.3257L16.2216 13.3583L0 5.39094V0L20.5917 10.4252V16.807L0 27.2317Z" fill="#F4F4F4"/>
<path d="M3.05176e-05 29.6527H3.40775V32.4323C4.42749 30.3539 6.41718 29.4772 9.40216 29.5027V32.3074C6.04422 32.1821 3.40775 33.2087 3.40775 36.2886V42.7492H3.05176e-05V29.6527Z" fill="#F4F4F4"/>
<path d="M10.3669 38.6428H13.6004C13.8489 39.9697 15.0429 40.7712 17.8287 40.7712C20.6145 40.7712 21.6343 40.1953 21.6343 39.0934C21.6343 37.9916 20.4154 37.6161 17.1321 37.2657C12.6304 36.8151 10.8146 35.7884 10.8146 33.3592C10.8146 30.6548 13.9733 29.3776 17.4553 29.3776C21.2111 29.3776 23.972 30.3791 24.4445 33.3342H21.2609C20.863 32.1326 19.7437 31.6063 17.4304 31.6063C15.3162 31.6063 13.9978 32.1321 13.9978 33.0836C13.9978 34.035 15.0673 34.3859 18.0767 34.7363C22.6038 35.1619 24.9664 35.9133 24.9664 38.7676C24.9664 41.447 22.4295 42.9995 17.8527 42.9995C13.2514 43.0245 10.5403 41.3969 10.366 38.6423L10.3669 38.6428Z" fill="#F4F4F4"/>
<path d="M26.3185 36.2321V36.032C26.3185 31.9752 30.2237 29.2708 35.2228 29.2708C40.2219 29.2708 44.1026 31.9501 44.1026 35.9568V36.1569C44.1026 40.2384 40.1974 42.8927 35.1734 42.8927C30.1494 42.8927 26.3185 40.2133 26.3185 36.2316V36.2321ZM40.5953 36.207V36.0065C40.5953 33.3272 38.3816 31.6744 35.2228 31.6744C32.064 31.6744 29.8254 33.3272 29.8254 35.9815V36.1815C29.8254 38.8358 31.9893 40.5136 35.2228 40.5136C38.4562 40.5136 40.5953 38.8107 40.5953 36.2066V36.207Z" fill="#F4F4F4"/>
<path d="M36.8529 18.1652C39.4622 18.0282 40.7669 16.2582 40.7669 12.8543C40.7669 11.5981 40.4095 10.29 39.6947 8.93083C38.9799 7.57213 38.1349 6.46942 37.1592 5.62448L38.1122 4.15121C41.2661 6.0474 43.1949 9.07404 43.8981 13.2316C44.0342 14.1454 44.1022 15.0253 44.1022 15.8698C44.1022 18.337 43.2909 20.3925 41.6689 22.0376C40.0468 23.6823 38.0669 24.5049 35.73 24.5049C33.3932 24.5049 31.2323 23.7852 29.2462 22.346C27.2609 20.9067 25.7238 19.1081 24.6347 16.9492C23.5456 14.7903 23.0011 12.661 23.0011 10.5589C23.0011 8.4569 23.4776 6.63545 24.4307 5.09371C25.3837 3.55197 26.6657 2.76387 28.2767 2.72941C29.8881 2.69495 31.2772 3.16933 32.4459 4.15121C33.615 5.13354 34.5049 6.37857 35.1175 7.8863C36.3203 10.8789 36.9213 13.8143 36.9213 16.6923L36.8533 18.1656L36.8529 18.1652ZM34.981 18.371C34.8908 15.8353 34.4876 13.7968 33.7728 12.2546C33.058 10.7129 32.2414 9.63927 31.3221 9.03376C30.4033 8.4287 29.4387 8.12573 28.4292 8.12573C27.4196 8.12573 26.6711 8.38842 26.183 8.91382C25.6953 9.43967 25.4513 9.99908 25.4513 10.593C25.4513 12.055 25.9567 13.3972 26.9658 14.6189C27.9753 15.8411 29.2008 16.7724 30.6415 17.4115C32.0827 18.051 33.5292 18.371 34.981 18.371Z" fill="#F4F4F4"/>
</g>
<defs>
<clipPath id="clip0_986_2530">
<rect width="44.1026" height="43" fill="white"/>
</clipPath>
</defs>
</svg>
