<svg width="24" height="24" viewBox="0 0 24 24" fill="none" xmlns="http://www.w3.org/2000/svg">
<g clip-path="url(#clip0_634_606)">
<path d="M12 0C5.38358 0 0 5.38358 0 12C0 18.6164 5.38358 24 12 24C18.6164 24 24 18.6164 24 12C24 5.38358 18.6164 0 12 0ZM8.96842 14.5263C8.96842 15.3638 8.29011 16.0421 7.45263 16.0421C6.61516 16.0421 5.93684 15.3638 5.93684 14.5263V10.4842C5.93684 9.64674 6.61516 8.96842 7.45263 8.96842C8.29011 8.96842 8.96842 9.64674 8.96842 10.4842V14.5263ZM18.0632 14.5263C18.0632 15.3638 17.3848 16.0421 16.5474 16.0421C15.7099 16.0421 15.0316 15.3638 15.0316 14.5263V10.4842C15.0316 9.64674 15.7099 8.96842 16.5474 8.96842C17.3848 8.96842 18.0632 9.64674 18.0632 10.4842V14.5263Z" fill="white"/>
</g>
<defs>
<clipPath id="clip0_634_606">
<rect width="24" height="24" fill="white"/>
</clipPath>
</defs>
</svg>
