<svg width="36" height="28" viewBox="0 0 36 28" fill="none" xmlns="http://www.w3.org/2000/svg">
<mask id="mask0_186_53" style="mask-type:alpha" maskUnits="userSpaceOnUse" x="0" y="0" width="36" height="28">
<rect width="35.8156" height="27.2298" fill="#D9D9D9"/>
</mask>
<g mask="url(#mask0_186_53)">
<path d="M21.5354 5.83757L21.6041 8.03498C24.6352 8.98531 28.0606 5.02235 30.6628 7.1753C30.6645 7.77171 22.5804 9.59673 21.2946 10.8554C15.0344 16.9851 30.8215 21.7957 34.3359 23.459C35.1748 23.8557 36.0177 23.836 35.7724 25.1449C31.023 25.2003 23.0544 19.7004 18.5585 20.1825C16.73 20.3788 12.7786 23.4509 10.8405 24.295C8.99234 25.1004 6.94966 25.3094 5.03053 25.8643C3.5935 26.28 2.94455 27.9681 0.0681713 26.8573C-0.233785 25.2228 0.515044 25.9416 1.31006 25.5669C3.95434 24.3222 14.2757 20.5122 15.2595 17.906C15.7809 16.5244 15.573 10.4697 15.2549 9.00494C14.9027 7.38488 9.11878 0.648311 9.7071 0.0467073C10.8832 -0.211947 10.9952 0.656971 11.531 1.34229C13.4362 3.78104 14.9818 6.53098 17.3553 8.5904C18.5724 7.90046 17.3582 6.85776 18.1642 6.03965C19.0753 5.11588 20.4932 5.2198 21.5354 5.83757Z" fill="white"/>
</g>
</svg>
