<svg width="24" height="24" viewBox="0 0 24 24" fill="none" xmlns="http://www.w3.org/2000/svg">
<path d="M19.3807 23.9842H16.6129C15.0907 23.9842 13.8452 22.7388 13.8452 21.2165V18.4488C13.8452 17.9413 13.43 17.5262 12.9226 17.5262H11.0774C10.57 17.5262 10.1548 17.9413 10.1548 18.4488V21.2165C10.1548 22.7388 8.90935 23.9842 7.38709 23.9842H4.61934C3.09708 23.9842 1.8516 22.7388 1.8516 21.2165V12.8095C1.0674 12.5904 0.433129 12.0483 0.144822 11.2987C-0.189614 10.4108 0.0640957 9.45358 0.813694 8.79624L10.1894 0.665989C11.2043 -0.221996 12.7957 -0.221996 13.8221 0.665989L23.1863 8.79624C23.9359 9.44205 24.1896 10.3992 23.8552 11.2987C23.5784 12.0483 22.9441 12.5904 22.1484 12.8095V21.2165C22.1484 22.7388 20.9029 23.9842 19.3807 23.9842ZM11.0774 15.681H12.9226C14.4448 15.681 15.6903 16.9265 15.6903 18.4488V21.2165C15.6903 21.7239 16.1055 22.1391 16.6129 22.1391H19.3807C19.8881 22.1391 20.3032 21.7239 20.3032 21.2165V11.0681H21.3873C21.814 11.0681 22.0561 10.849 22.1253 10.6529C22.183 10.4915 22.1369 10.3416 21.9754 10.1916L12.6112 2.06139C12.2998 1.78462 11.7232 1.78462 11.4003 2.06139L2.02458 10.1916C1.86313 10.33 1.80547 10.48 1.87466 10.6529C1.94386 10.849 2.18603 11.0681 2.61273 11.0681H3.69676V21.2165C3.69676 21.7239 4.11192 22.1391 4.61934 22.1391H7.38709C7.89451 22.1391 8.30967 21.7239 8.30967 21.2165V18.4488C8.30967 16.9265 9.55516 15.681 11.0774 15.681Z" fill="white"/>
</svg>
