<svg width="393" height="192" viewBox="0 0 393 192" fill="none" xmlns="http://www.w3.org/2000/svg">
<g filter="url(#filter0_d_993_2534)">
<rect x="20" y="4.20239" width="353" height="182.804" rx="10.3271" fill="#F8F8F8"/>
</g>
<path d="M39.9725 81.8384L41.1729 75.1162H41.9716L40.7666 81.8384H39.9725ZM41.7362 81.8384L42.9412 75.1162H43.7399L42.5349 81.8384H41.7362ZM44.4001 77.7848H39.5939V77.0368H44.4001V77.7848ZM44.0492 79.9455H39.2477V79.1975H44.0492V79.9455ZM46.4731 75.1162V81.8384H45.2034V75.1162H46.4731ZM49.1832 78.0202V79.0221H46.1407V78.0202H49.1832ZM49.5387 75.1162V76.1181H46.1407V75.1162H49.5387ZM54.7604 75.1162V75.781L52.1195 81.8384H50.8314L53.4723 76.0765H50.0558V75.1162H54.7604ZM57.8121 81.8384H56.3624L56.3717 80.8411H57.8121C58.203 80.8411 58.5308 80.755 58.7955 80.5826C59.0602 80.4071 59.2603 80.1563 59.3957 79.83C59.5311 79.5007 59.5989 79.1067 59.5989 78.6481V78.3019C59.5989 77.9479 59.5604 77.6355 59.4834 77.3646C59.4065 77.0938 59.2926 76.866 59.1418 76.6813C58.994 76.4967 58.8109 76.3566 58.5924 76.2612C58.3738 76.1658 58.123 76.1181 57.8398 76.1181H56.3347V75.1162H57.8398C58.2892 75.1162 58.6986 75.1916 59.0679 75.3424C59.4403 75.4933 59.762 75.7102 60.0328 75.9934C60.3068 76.2735 60.5161 76.609 60.6607 76.9999C60.8085 77.3908 60.8823 77.8279 60.8823 78.3111V78.6481C60.8823 79.1283 60.8085 79.5653 60.6607 79.9593C60.5161 80.3502 60.3068 80.6857 60.0328 80.9658C59.762 81.2459 59.4388 81.4613 59.0633 81.6122C58.6878 81.763 58.2707 81.8384 57.8121 81.8384ZM57.0734 75.1162V81.8384H55.8038V75.1162H57.0734ZM66.2656 80.0009C66.2656 80.4195 66.1671 80.7734 65.9701 81.0627C65.7762 81.349 65.51 81.566 65.1714 81.7137C64.8359 81.8584 64.4543 81.9307 64.0264 81.9307C63.6017 81.9307 63.2185 81.8584 62.8768 81.7137C62.5383 81.566 62.2689 81.349 62.0689 81.0627C61.8719 80.7734 61.7734 80.4195 61.7734 80.0009C61.7734 79.7208 61.8288 79.4668 61.9396 79.2391C62.0535 79.0113 62.2105 78.8159 62.4105 78.6527C62.6106 78.4865 62.8476 78.3603 63.1215 78.2742C63.3955 78.1849 63.694 78.1403 64.0172 78.1403C64.4481 78.1403 64.8329 78.2187 65.1714 78.3757C65.5131 78.5296 65.7808 78.7466 65.9748 79.0267C66.1687 79.3037 66.2656 79.6284 66.2656 80.0009ZM65.0375 79.927C65.0375 79.7115 64.9944 79.5253 64.9083 79.3684C64.8252 79.2083 64.7067 79.0852 64.5528 78.999C64.3989 78.9128 64.2203 78.8697 64.0172 78.8697C63.811 78.8697 63.6309 78.9128 63.477 78.999C63.3262 79.0852 63.2077 79.2083 63.1215 79.3684C63.0384 79.5253 62.9969 79.7115 62.9969 79.927C62.9969 80.1455 63.0384 80.3333 63.1215 80.4903C63.2077 80.6441 63.3278 80.7626 63.4816 80.8458C63.6355 80.9289 63.8171 80.9704 64.0264 80.9704C64.2357 80.9704 64.4158 80.9289 64.5666 80.8458C64.7174 80.7626 64.8329 80.6441 64.9129 80.4903C64.996 80.3333 65.0375 80.1455 65.0375 79.927ZM66.1179 76.8891C66.1179 77.2277 66.0286 77.5293 65.8501 77.794C65.6716 78.0556 65.4238 78.2603 65.1068 78.408C64.7928 78.5558 64.4327 78.6297 64.0264 78.6297C63.6202 78.6297 63.257 78.5558 62.9369 78.408C62.6198 78.2603 62.3705 78.0556 62.1889 77.794C62.0104 77.5293 61.9211 77.2277 61.9211 76.8891C61.9211 76.489 62.0119 76.1504 62.1935 75.8734C62.3751 75.5933 62.6229 75.3809 62.9369 75.2362C63.2539 75.0916 63.614 75.0193 64.0172 75.0193C64.4266 75.0193 64.7898 75.0916 65.1068 75.2362C65.4238 75.3809 65.6716 75.5933 65.8501 75.8734C66.0286 76.1504 66.1179 76.489 66.1179 76.8891ZM64.899 76.9399C64.899 76.749 64.8636 76.5828 64.7928 76.4413C64.722 76.2966 64.6205 76.1842 64.4881 76.1042C64.3589 76.0242 64.2019 75.9842 64.0172 75.9842C63.8387 75.9842 63.6848 76.0227 63.5555 76.0996C63.4262 76.1766 63.3262 76.2874 63.2554 76.432C63.1846 76.5736 63.1492 76.7429 63.1492 76.9399C63.1492 77.1338 63.1846 77.3031 63.2554 77.4477C63.3262 77.5924 63.4262 77.7063 63.5555 77.7894C63.6879 77.8694 63.8448 77.9094 64.0264 77.9094C64.208 77.9094 64.3635 77.8694 64.4927 77.7894C64.622 77.7063 64.722 77.5924 64.7928 77.4477C64.8636 77.3031 64.899 77.1338 64.899 76.9399ZM71.8197 80.8411V81.8384H68.2463V80.8411H71.8197ZM68.6341 75.1162V81.8384H67.3644V75.1162H68.6341ZM71.3534 77.891V78.8651H68.2463V77.891H71.3534ZM71.8059 75.1162V76.1181H68.2463V75.1162H71.8059ZM77.1568 80.8411V81.8384H73.5834V80.8411H77.1568ZM73.9712 75.1162V81.8384H72.7015V75.1162H73.9712ZM76.6905 77.891V78.8651H73.5834V77.891H76.6905ZM77.143 75.1162V76.1181H73.5834V75.1162H77.143Z" fill="#8E8E8E"/>
<path d="M178.344 81.9114L179.545 75.1892H180.343L179.138 81.9114H178.344ZM180.108 81.9114L181.313 75.1892H182.112L180.907 81.9114H180.108ZM182.772 77.8578H177.966V77.1098H182.772V77.8578ZM182.421 80.0185H177.619V79.2705H182.421V80.0185ZM187.509 79.6999H188.778C188.745 80.1493 188.62 80.5479 188.404 80.8957C188.189 81.2404 187.889 81.5112 187.504 81.7082C187.119 81.9052 186.653 82.0037 186.105 82.0037C185.684 82.0037 185.303 81.9298 184.965 81.7821C184.629 81.6313 184.342 81.4174 184.102 81.1404C183.865 80.8603 183.683 80.5248 183.557 80.1339C183.431 79.7399 183.367 79.2982 183.367 78.8088V78.2964C183.367 77.807 183.432 77.3653 183.561 76.9713C183.691 76.5773 183.875 76.2419 184.115 75.9648C184.359 75.6848 184.649 75.4693 184.988 75.3185C185.33 75.1677 185.711 75.0923 186.133 75.0923C186.681 75.0923 187.144 75.1938 187.523 75.397C187.901 75.597 188.195 75.8725 188.404 76.2234C188.614 76.5743 188.74 76.9775 188.783 77.433H187.513C187.489 77.1498 187.427 76.9098 187.329 76.7128C187.233 76.5158 187.089 76.3665 186.895 76.2649C186.704 76.1603 186.45 76.108 186.133 76.108C185.887 76.108 185.67 76.1541 185.482 76.2465C185.297 76.3388 185.143 76.4773 185.02 76.662C184.897 76.8436 184.805 77.0714 184.743 77.3453C184.682 77.6161 184.651 77.9301 184.651 78.2871V78.8088C184.651 79.1505 184.679 79.4567 184.734 79.7276C184.789 79.9985 184.876 80.2278 184.993 80.4155C185.11 80.6033 185.26 80.7464 185.445 80.8449C185.63 80.9434 185.85 80.9926 186.105 80.9926C186.416 80.9926 186.669 80.9434 186.862 80.8449C187.059 80.7464 187.209 80.6017 187.31 80.4109C187.415 80.2201 187.481 79.9831 187.509 79.6999ZM194.12 75.1892V75.854L191.479 81.9114H190.191L192.832 76.1495H189.416V75.1892H194.12ZM197.172 81.9114H195.722L195.731 80.9141H197.172C197.563 80.9141 197.891 80.828 198.155 80.6556C198.42 80.4801 198.62 80.2293 198.755 79.903C198.891 79.5737 198.959 79.1797 198.959 78.7211V78.3749C198.959 78.0209 198.92 77.7085 198.843 77.4376C198.766 77.1668 198.652 76.939 198.502 76.7543C198.354 76.5697 198.171 76.4296 197.952 76.3342C197.734 76.2388 197.483 76.1911 197.2 76.1911H195.695V75.1892H197.2C197.649 75.1892 198.058 75.2646 198.428 75.4154C198.8 75.5663 199.122 75.7832 199.393 76.0664C199.667 76.3465 199.876 76.682 200.021 77.0729C200.168 77.4638 200.242 77.9009 200.242 78.3841V78.7211C200.242 79.2013 200.168 79.6383 200.021 80.0323C199.876 80.4232 199.667 80.7587 199.393 81.0388C199.122 81.3189 198.799 81.5343 198.423 81.6852C198.048 81.836 197.631 81.9114 197.172 81.9114ZM196.433 75.1892V81.9114H195.164V75.1892H196.433ZM203.899 78.915H202.181L202.172 78.0194H203.645C203.897 78.0194 204.108 77.984 204.277 77.9132C204.447 77.8424 204.574 77.7393 204.66 77.6038C204.75 77.4684 204.794 77.3037 204.794 77.1098C204.794 76.8944 204.753 76.7189 204.67 76.5835C204.59 76.4481 204.463 76.3496 204.291 76.288C204.119 76.2234 203.9 76.1911 203.636 76.1911H202.592V81.9114H201.322V75.1892H203.636C204.017 75.1892 204.357 75.2261 204.656 75.3C204.957 75.3708 205.213 75.4816 205.422 75.6324C205.632 75.7832 205.79 75.9725 205.898 76.2003C206.009 76.4281 206.064 76.6989 206.064 77.0129C206.064 77.2899 205.999 77.5454 205.87 77.7793C205.744 78.0101 205.548 78.1979 205.284 78.3425C205.022 78.4872 204.69 78.5703 204.287 78.5918L203.899 78.915ZM203.843 81.9114H201.807L202.338 80.9141H203.843C204.096 80.9141 204.303 80.8726 204.467 80.7895C204.633 80.7064 204.756 80.5925 204.836 80.4478C204.919 80.3001 204.961 80.1308 204.961 79.94C204.961 79.7307 204.924 79.5491 204.85 79.3952C204.779 79.2413 204.665 79.1228 204.508 79.0397C204.354 78.9566 204.151 78.915 203.899 78.915H202.578L202.587 78.0194H204.268L204.559 78.3656C204.947 78.3687 205.262 78.4456 205.505 78.5965C205.752 78.7473 205.933 78.9412 206.05 79.1782C206.167 79.4152 206.226 79.6707 206.226 79.9446C206.226 80.3755 206.132 80.7372 205.944 81.0296C205.759 81.322 205.488 81.542 205.131 81.6898C204.777 81.8375 204.348 81.9114 203.843 81.9114ZM208.594 75.1892V81.9114H207.324V75.1892H208.594ZM211.304 78.0932V79.0951H208.262V78.0932H211.304ZM211.66 75.1892V76.1911H208.262V75.1892H211.66ZM216.457 79.6999H217.726C217.692 80.1493 217.568 80.5479 217.352 80.8957C217.137 81.2404 216.837 81.5112 216.452 81.7082C216.067 81.9052 215.601 82.0037 215.053 82.0037C214.631 82.0037 214.251 81.9298 213.913 81.7821C213.577 81.6313 213.289 81.4174 213.049 81.1404C212.812 80.8603 212.631 80.5248 212.505 80.1339C212.378 79.7399 212.315 79.2982 212.315 78.8088V78.2964C212.315 77.807 212.38 77.3653 212.509 76.9713C212.638 76.5773 212.823 76.2419 213.063 75.9648C213.306 75.6848 213.597 75.4693 213.936 75.3185C214.277 75.1677 214.659 75.0923 215.081 75.0923C215.629 75.0923 216.092 75.1938 216.47 75.397C216.849 75.597 217.143 75.8725 217.352 76.2234C217.562 76.5743 217.688 76.9775 217.731 77.433H216.461C216.437 77.1498 216.375 76.9098 216.277 76.7128C216.181 76.5158 216.036 76.3665 215.843 76.2649C215.652 76.1603 215.398 76.108 215.081 76.108C214.835 76.108 214.618 76.1541 214.43 76.2465C214.245 76.3388 214.091 76.4773 213.968 76.662C213.845 76.8436 213.753 77.0714 213.691 77.3453C213.63 77.6161 213.599 77.9301 213.599 78.2871V78.8088C213.599 79.1505 213.626 79.4567 213.682 79.7276C213.737 79.9985 213.823 80.2278 213.94 80.4155C214.057 80.6033 214.208 80.7464 214.393 80.8449C214.578 80.9434 214.798 80.9926 215.053 80.9926C215.364 80.9926 215.616 80.9434 215.81 80.8449C216.007 80.7464 216.156 80.6017 216.258 80.4109C216.363 80.2201 216.429 79.9831 216.457 79.6999Z" fill="#8E8E8E"/>
<path d="M111.211 81.9114L112.411 75.1892H113.21L112.005 81.9114H111.211ZM112.974 81.9114L114.179 75.1892H114.978L113.773 81.9114H112.974ZM115.638 77.8578H110.832V77.1098H115.638V77.8578ZM115.288 80.0185H110.486V79.2705H115.288V80.0185ZM117.711 75.1892V81.9114H116.442V75.1892H117.711ZM120.421 78.0932V79.0951H117.379V78.0932H120.421ZM120.777 75.1892V76.1911H117.379V75.1892H120.777ZM125.943 80.0739C125.943 80.4925 125.845 80.8464 125.648 81.1357C125.454 81.422 125.188 81.639 124.849 81.7867C124.514 81.9314 124.132 82.0037 123.704 82.0037C123.279 82.0037 122.896 81.9314 122.554 81.7867C122.216 81.639 121.947 81.422 121.747 81.1357C121.55 80.8464 121.451 80.4925 121.451 80.0739C121.451 79.7938 121.506 79.5398 121.617 79.3121C121.731 79.0843 121.888 78.8889 122.088 78.7257C122.288 78.5595 122.525 78.4333 122.799 78.3472C123.073 78.2579 123.372 78.2133 123.695 78.2133C124.126 78.2133 124.51 78.2917 124.849 78.4487C125.191 78.6026 125.458 78.8196 125.652 79.0997C125.846 79.3767 125.943 79.7014 125.943 80.0739ZM124.715 80C124.715 79.7845 124.672 79.5983 124.586 79.4413C124.503 79.2813 124.384 79.1582 124.23 79.072C124.076 78.9858 123.898 78.9427 123.695 78.9427C123.489 78.9427 123.309 78.9858 123.155 79.072C123.004 79.1582 122.885 79.2813 122.799 79.4413C122.716 79.5983 122.675 79.7845 122.675 80C122.675 80.2185 122.716 80.4063 122.799 80.5632C122.885 80.7171 123.005 80.8356 123.159 80.9187C123.313 81.0019 123.495 81.0434 123.704 81.0434C123.913 81.0434 124.093 81.0019 124.244 80.9187C124.395 80.8356 124.51 80.7171 124.591 80.5632C124.674 80.4063 124.715 80.2185 124.715 80ZM125.796 76.9621C125.796 77.3007 125.706 77.6023 125.528 77.867C125.349 78.1286 125.101 78.3333 124.784 78.481C124.47 78.6288 124.11 78.7026 123.704 78.7026C123.298 78.7026 122.935 78.6288 122.614 78.481C122.297 78.3333 122.048 78.1286 121.867 77.867C121.688 77.6023 121.599 77.3007 121.599 76.9621C121.599 76.562 121.69 76.2234 121.871 75.9464C122.053 75.6663 122.301 75.4539 122.614 75.3092C122.932 75.1646 123.292 75.0923 123.695 75.0923C124.104 75.0923 124.467 75.1646 124.784 75.3092C125.101 75.4539 125.349 75.6663 125.528 75.9464C125.706 76.2234 125.796 76.562 125.796 76.9621ZM124.577 77.0129C124.577 76.822 124.541 76.6558 124.47 76.5143C124.4 76.3696 124.298 76.2572 124.166 76.1772C124.036 76.0972 123.88 76.0572 123.695 76.0572C123.516 76.0572 123.362 76.0957 123.233 76.1726C123.104 76.2496 123.004 76.3604 122.933 76.505C122.862 76.6466 122.827 76.8159 122.827 77.0129C122.827 77.2068 122.862 77.3761 122.933 77.5207C123.004 77.6654 123.104 77.7793 123.233 77.8624C123.365 77.9424 123.522 77.9824 123.704 77.9824C123.886 77.9824 124.041 77.9424 124.17 77.8624C124.3 77.7793 124.4 77.6654 124.47 77.5207C124.541 77.3761 124.577 77.2068 124.577 77.0129ZM128.312 75.1892V81.9114H127.042V75.1892H128.312ZM131.022 78.0932V79.0951H127.979V78.0932H131.022ZM131.377 75.1892V76.1911H127.979V75.1892H131.377ZM133.002 80.9649H133.09C133.487 80.9649 133.823 80.9141 134.097 80.8126C134.374 80.711 134.597 80.5679 134.766 80.3832C134.938 80.1954 135.063 79.9723 135.14 79.7137C135.22 79.4521 135.26 79.1628 135.26 78.8458V77.6269C135.26 77.3684 135.234 77.1421 135.182 76.9482C135.129 76.7513 135.055 76.5866 134.96 76.4542C134.868 76.3219 134.758 76.2234 134.632 76.1588C134.506 76.091 134.371 76.0572 134.226 76.0572C134.066 76.0572 133.924 76.0941 133.801 76.168C133.678 76.2419 133.573 76.3434 133.487 76.4727C133.404 76.5989 133.339 76.7451 133.293 76.9113C133.25 77.0775 133.229 77.253 133.229 77.4376C133.229 77.6161 133.249 77.787 133.289 77.9501C133.332 78.1132 133.395 78.2579 133.478 78.3841C133.564 78.5103 133.672 78.6103 133.801 78.6842C133.93 78.755 134.081 78.7904 134.254 78.7904C134.417 78.7904 134.564 78.7596 134.697 78.698C134.832 78.6334 134.949 78.5488 135.048 78.4441C135.146 78.3364 135.222 78.2179 135.274 78.0886C135.329 77.9563 135.36 77.8224 135.366 77.6869L135.796 77.8716C135.796 78.0963 135.748 78.3179 135.653 78.5364C135.56 78.755 135.429 78.9535 135.26 79.132C135.094 79.3075 134.9 79.449 134.678 79.5568C134.457 79.6614 134.218 79.7137 133.963 79.7137C133.646 79.7137 133.366 79.6553 133.122 79.5383C132.879 79.4213 132.675 79.2598 132.508 79.0535C132.345 78.8442 132.222 78.6042 132.139 78.3333C132.056 78.0594 132.014 77.767 132.014 77.4561C132.014 77.1329 132.065 76.8297 132.167 76.5466C132.268 76.2603 132.415 76.0095 132.605 75.794C132.799 75.5755 133.033 75.4047 133.307 75.2815C133.581 75.1554 133.889 75.0923 134.231 75.0923C134.584 75.0923 134.9 75.1615 135.177 75.3C135.454 75.4385 135.689 75.6309 135.883 75.8771C136.077 76.1203 136.225 76.4081 136.327 76.7405C136.431 77.0729 136.484 77.4361 136.484 77.8301V78.2594C136.484 78.6749 136.442 79.0689 136.359 79.4413C136.276 79.8138 136.148 80.1539 135.976 80.4617C135.803 80.7695 135.583 81.0357 135.316 81.2604C135.051 81.4851 134.734 81.659 134.364 81.7821C133.998 81.9021 133.58 81.9622 133.109 81.9622H133.002V80.9649ZM142.098 80.9141V81.9114H138.524V80.9141H142.098ZM138.912 75.1892V81.9114H137.642V75.1892H138.912ZM141.631 77.9639V78.9381H138.524V77.9639H141.631ZM142.084 75.1892V76.1911H138.524V75.1892H142.084ZM147.273 77.9732V79.1043C147.273 79.6214 147.221 80.0631 147.116 80.4294C147.012 80.7956 146.861 81.0957 146.664 81.3297C146.467 81.5605 146.231 81.7313 145.957 81.8421C145.683 81.9499 145.379 82.0037 145.043 82.0037C144.775 82.0037 144.526 81.9699 144.295 81.9021C144.064 81.8314 143.857 81.7236 143.672 81.579C143.49 81.4312 143.333 81.2435 143.201 81.0157C143.072 80.7879 142.972 80.5155 142.901 80.1985C142.833 79.8815 142.799 79.5168 142.799 79.1043V77.9732C142.799 77.4561 142.852 77.016 142.956 76.6528C143.064 76.2896 143.217 75.9925 143.414 75.7617C143.61 75.5309 143.846 75.3631 144.12 75.2585C144.394 75.1507 144.699 75.0969 145.034 75.0969C145.305 75.0969 145.554 75.1307 145.782 75.1984C146.013 75.2662 146.219 75.3723 146.401 75.517C146.585 75.6586 146.742 75.8433 146.872 76.071C147.001 76.2957 147.099 76.5666 147.167 76.8836C147.238 77.1975 147.273 77.5607 147.273 77.9732ZM146.054 79.2705V77.8024C146.054 77.5438 146.039 77.3191 146.008 77.1283C145.98 76.9344 145.939 76.7697 145.884 76.6343C145.828 76.4989 145.759 76.3896 145.676 76.3065C145.593 76.2203 145.497 76.1572 145.39 76.1172C145.282 76.0772 145.163 76.0572 145.034 76.0572C144.874 76.0572 144.731 76.0895 144.605 76.1541C144.478 76.2157 144.372 76.3142 144.286 76.4496C144.2 76.585 144.134 76.7651 144.088 76.9898C144.044 77.2114 144.023 77.4823 144.023 77.8024V79.2705C144.023 79.5291 144.037 79.7553 144.064 79.9492C144.095 80.1431 144.138 80.3093 144.194 80.4478C144.252 80.5863 144.321 80.7002 144.402 80.7895C144.485 80.8757 144.58 80.9403 144.688 80.9834C144.795 81.0234 144.914 81.0434 145.043 81.0434C145.206 81.0434 145.35 81.0111 145.473 80.9465C145.599 80.8818 145.705 80.7802 145.791 80.6417C145.877 80.5002 145.942 80.317 145.985 80.0923C146.031 79.8646 146.054 79.5906 146.054 79.2705Z" fill="#8E8E8E"/>
<path d="M246.423 81.9114L247.623 75.1892H248.422L247.217 81.9114H246.423ZM248.186 81.9114L249.391 75.1892H250.19L248.985 81.9114H248.186ZM250.85 77.8578H246.044V77.1098H250.85V77.8578ZM250.499 80.0185H245.698V79.2705H250.499V80.0185ZM255.957 80.0739C255.957 80.4925 255.858 80.8464 255.661 81.1357C255.467 81.422 255.201 81.639 254.862 81.7867C254.527 81.9314 254.145 82.0037 253.717 82.0037C253.293 82.0037 252.909 81.9314 252.568 81.7867C252.229 81.639 251.96 81.422 251.76 81.1357C251.563 80.8464 251.464 80.4925 251.464 80.0739C251.464 79.7938 251.52 79.5398 251.631 79.3121C251.744 79.0843 251.901 78.8889 252.101 78.7257C252.302 78.5595 252.539 78.4333 252.812 78.3472C253.086 78.2579 253.385 78.2133 253.708 78.2133C254.139 78.2133 254.524 78.2917 254.862 78.4487C255.204 78.6026 255.472 78.8196 255.666 79.0997C255.86 79.3767 255.957 79.7014 255.957 80.0739ZM254.728 80C254.728 79.7845 254.685 79.5983 254.599 79.4413C254.516 79.2813 254.398 79.1582 254.244 79.072C254.09 78.9858 253.911 78.9427 253.708 78.9427C253.502 78.9427 253.322 78.9858 253.168 79.072C253.017 79.1582 252.899 79.2813 252.812 79.4413C252.729 79.5983 252.688 79.7845 252.688 80C252.688 80.2185 252.729 80.4063 252.812 80.5632C252.899 80.7171 253.019 80.8356 253.173 80.9187C253.326 81.0019 253.508 81.0434 253.717 81.0434C253.927 81.0434 254.107 81.0019 254.258 80.9187C254.408 80.8356 254.524 80.7171 254.604 80.5632C254.687 80.4063 254.728 80.2185 254.728 80ZM255.809 76.9621C255.809 77.3007 255.72 77.6023 255.541 77.867C255.363 78.1286 255.115 78.3333 254.798 78.481C254.484 78.6288 254.124 78.7026 253.717 78.7026C253.311 78.7026 252.948 78.6288 252.628 78.481C252.311 78.3333 252.061 78.1286 251.88 77.867C251.701 77.6023 251.612 77.3007 251.612 76.9621C251.612 76.562 251.703 76.2234 251.884 75.9464C252.066 75.6663 252.314 75.4539 252.628 75.3092C252.945 75.1646 253.305 75.0923 253.708 75.0923C254.118 75.0923 254.481 75.1646 254.798 75.3092C255.115 75.4539 255.363 75.6663 255.541 75.9464C255.72 76.2234 255.809 76.562 255.809 76.9621ZM254.59 77.0129C254.59 76.822 254.555 76.6558 254.484 76.5143C254.413 76.3696 254.311 76.2572 254.179 76.1772C254.05 76.0972 253.893 76.0572 253.708 76.0572C253.53 76.0572 253.376 76.0957 253.246 76.1726C253.117 76.2496 253.017 76.3604 252.946 76.505C252.876 76.6466 252.84 76.8159 252.84 77.0129C252.84 77.2068 252.876 77.3761 252.946 77.5207C253.017 77.6654 253.117 77.7793 253.246 77.8624C253.379 77.9424 253.536 77.9824 253.717 77.9824C253.899 77.9824 254.054 77.9424 254.184 77.8624C254.313 77.7793 254.413 77.6654 254.484 77.5207C254.555 77.3761 254.59 77.2068 254.59 77.0129ZM260.292 75.1338H260.458V76.1172H260.38C260.007 76.1172 259.679 76.1741 259.396 76.288C259.116 76.4019 258.882 76.562 258.694 76.7682C258.51 76.9713 258.37 77.2129 258.274 77.493C258.179 77.77 258.131 78.0732 258.131 78.4026V79.4921C258.131 79.7476 258.157 79.9723 258.21 80.1662C258.265 80.357 258.34 80.5186 258.436 80.651C258.534 80.7802 258.648 80.8772 258.777 80.9418C258.91 81.0065 259.054 81.0388 259.211 81.0388C259.368 81.0388 259.51 81.0065 259.636 80.9418C259.762 80.8772 259.87 80.7864 259.959 80.6694C260.052 80.5494 260.121 80.4094 260.167 80.2493C260.216 80.0893 260.241 79.9138 260.241 79.723C260.241 79.5352 260.218 79.3613 260.172 79.2013C260.126 79.0412 260.058 78.9012 259.969 78.7811C259.879 78.658 259.769 78.5641 259.636 78.4995C259.507 78.4318 259.359 78.3979 259.193 78.3979C258.978 78.3979 258.785 78.4487 258.616 78.5503C258.447 78.6488 258.313 78.7781 258.214 78.9381C258.116 79.0982 258.062 79.2674 258.053 79.446L257.642 79.2428C257.657 78.9812 257.713 78.7411 257.808 78.5226C257.906 78.3041 258.037 78.1132 258.2 77.9501C258.367 77.787 258.562 77.6608 258.787 77.5715C259.014 77.4823 259.267 77.4376 259.544 77.4376C259.864 77.4376 260.144 77.4992 260.384 77.6223C260.624 77.7423 260.823 77.907 260.98 78.1163C261.14 78.3256 261.26 78.5672 261.34 78.8412C261.42 79.112 261.46 79.3983 261.46 79.6999C261.46 80.0231 261.408 80.3247 261.303 80.6048C261.201 80.8849 261.054 81.1296 260.86 81.3389C260.666 81.5482 260.432 81.7113 260.158 81.8283C259.884 81.9452 259.576 82.0037 259.235 82.0037C258.874 82.0037 258.551 81.936 258.265 81.8006C257.982 81.6651 257.739 81.4774 257.536 81.2373C257.332 80.9972 257.177 80.7171 257.069 80.397C256.962 80.0769 256.908 79.7307 256.908 79.3582V78.8689C256.908 78.3425 256.98 77.8531 257.125 77.4007C257.269 76.9482 257.483 76.5527 257.766 76.2142C258.053 75.8725 258.407 75.6078 258.828 75.4201C259.25 75.2292 259.738 75.1338 260.292 75.1338ZM266.912 80.9141V81.9114H263.339V80.9141H266.912ZM263.727 75.1892V81.9114H262.457V75.1892H263.727ZM266.446 77.9639V78.9381H263.339V77.9639H266.446ZM266.899 75.1892V76.1911H263.339V75.1892H266.899ZM269.064 75.1892V81.9114H267.794V75.1892H269.064ZM271.774 78.0932V79.0951H268.731V78.0932H271.774ZM272.129 75.1892V76.1911H268.731V75.1892H272.129ZM274.262 75.1892V81.9114H272.993V75.1892H274.262ZM276.973 78.0932V79.0951H273.93V78.0932H276.973ZM277.328 75.1892V76.1911H273.93V75.1892H277.328ZM282.702 79.4598V80.4201H277.859L277.808 79.6814L280.657 75.1892H281.631L280.578 76.9759L279.05 79.4598H282.702ZM281.903 75.1892V81.9114H280.68V75.1892H281.903Z" fill="#8E8E8E"/>
<path d="M314.501 81.9114L315.701 75.1892H316.5L315.295 81.9114H314.501ZM316.265 81.9114L317.47 75.1892H318.268L317.063 81.9114H316.265ZM318.929 77.8578H314.123V77.1098H318.929V77.8578ZM318.578 80.0185H313.776V79.2705H318.578V80.0185ZM324.09 75.1892V75.854L321.449 81.9114H320.161L322.802 76.1495H319.386V75.1892H324.09ZM328.37 75.1338H328.536V76.1172H328.458C328.085 76.1172 327.758 76.1741 327.475 76.288C327.194 76.4019 326.96 76.562 326.773 76.7682C326.588 76.9713 326.448 77.2129 326.353 77.493C326.257 77.77 326.209 78.0732 326.209 78.4026V79.4921C326.209 79.7476 326.236 79.9723 326.288 80.1662C326.343 80.357 326.419 80.5186 326.514 80.651C326.613 80.7802 326.727 80.8772 326.856 80.9418C326.988 81.0065 327.133 81.0388 327.29 81.0388C327.447 81.0388 327.588 81.0065 327.715 80.9418C327.841 80.8772 327.949 80.7864 328.038 80.6694C328.13 80.5494 328.199 80.4094 328.246 80.2493C328.295 80.0893 328.319 79.9138 328.319 79.723C328.319 79.5352 328.296 79.3613 328.25 79.2013C328.204 79.0412 328.136 78.9012 328.047 78.7811C327.958 78.658 327.847 78.5641 327.715 78.4995C327.585 78.4318 327.438 78.3979 327.271 78.3979C327.056 78.3979 326.864 78.4487 326.694 78.5503C326.525 78.6488 326.391 78.7781 326.293 78.9381C326.194 79.0982 326.14 79.2674 326.131 79.446L325.72 79.2428C325.735 78.9812 325.791 78.7411 325.886 78.5226C325.985 78.3041 326.116 78.1132 326.279 77.9501C326.445 77.787 326.64 77.6608 326.865 77.5715C327.093 77.4823 327.345 77.4376 327.622 77.4376C327.942 77.4376 328.222 77.4992 328.463 77.6223C328.703 77.7423 328.901 77.907 329.058 78.1163C329.218 78.3256 329.338 78.5672 329.418 78.8412C329.498 79.112 329.538 79.3983 329.538 79.6999C329.538 80.0231 329.486 80.3247 329.381 80.6048C329.28 80.8849 329.132 81.1296 328.938 81.3389C328.744 81.5482 328.51 81.7113 328.236 81.8283C327.962 81.9452 327.655 82.0037 327.313 82.0037C326.953 82.0037 326.63 81.936 326.343 81.8006C326.06 81.6651 325.817 81.4774 325.614 81.2373C325.411 80.9972 325.255 80.7171 325.148 80.397C325.04 80.0769 324.986 79.7307 324.986 79.3582V78.8689C324.986 78.3425 325.058 77.8531 325.203 77.4007C325.348 76.9482 325.562 76.5527 325.845 76.2142C326.131 75.8725 326.485 75.6078 326.907 75.4201C327.328 75.2292 327.816 75.1338 328.37 75.1338ZM331.713 78.0101H332.401C332.644 78.0101 332.844 77.9686 333.001 77.8855C333.161 77.7993 333.279 77.6823 333.356 77.5346C333.436 77.3838 333.476 77.2099 333.476 77.0129C333.476 76.819 333.441 76.6512 333.37 76.5096C333.299 76.365 333.192 76.2542 333.047 76.1772C332.905 76.0972 332.724 76.0572 332.502 76.0572C332.324 76.0572 332.159 76.0926 332.008 76.1634C331.861 76.2342 331.742 76.3357 331.653 76.4681C331.567 76.5974 331.524 76.7528 331.524 76.9344H330.3C330.3 76.5712 330.395 76.2526 330.586 75.9787C330.78 75.7017 331.042 75.4847 331.371 75.3277C331.7 75.1707 332.068 75.0923 332.475 75.0923C332.918 75.0923 333.306 75.1661 333.638 75.3139C333.974 75.4585 334.234 75.6724 334.418 75.9556C334.606 76.2388 334.7 76.5897 334.7 77.0083C334.7 77.2083 334.652 77.4084 334.557 77.6085C334.464 77.8054 334.327 77.984 334.146 78.144C333.967 78.301 333.747 78.4287 333.486 78.5272C333.227 78.6226 332.93 78.6703 332.595 78.6703H331.713V78.0101ZM331.713 78.952V78.301H332.595C332.973 78.301 333.301 78.3456 333.578 78.4349C333.858 78.5211 334.089 78.6442 334.271 78.8042C334.452 78.9612 334.586 79.1443 334.672 79.3536C334.761 79.5629 334.806 79.7876 334.806 80.0277C334.806 80.3416 334.748 80.6217 334.631 80.868C334.514 81.1111 334.349 81.3173 334.137 81.4866C333.927 81.6559 333.681 81.7852 333.398 81.8744C333.115 81.9606 332.809 82.0037 332.479 82.0037C332.193 82.0037 331.914 81.9652 331.644 81.8883C331.376 81.8083 331.134 81.6898 330.919 81.5328C330.703 81.3727 330.532 81.1727 330.406 80.9326C330.28 80.6894 330.217 80.4078 330.217 80.0877H331.44C331.44 80.2724 331.485 80.4371 331.574 80.5817C331.667 80.7264 331.793 80.8403 331.953 80.9234C332.116 81.0034 332.299 81.0434 332.502 81.0434C332.727 81.0434 332.919 81.0034 333.079 80.9234C333.243 80.8403 333.367 80.7233 333.453 80.5725C333.54 80.4186 333.583 80.2355 333.583 80.0231C333.583 79.7707 333.535 79.566 333.44 79.409C333.344 79.2521 333.207 79.1366 333.029 79.0628C332.853 78.9889 332.644 78.952 332.401 78.952H331.713ZM340.24 80.0739C340.24 80.4925 340.142 80.8464 339.945 81.1357C339.751 81.422 339.485 81.639 339.146 81.7867C338.81 81.9314 338.429 82.0037 338.001 82.0037C337.576 82.0037 337.193 81.9314 336.851 81.7867C336.513 81.639 336.243 81.422 336.043 81.1357C335.846 80.8464 335.748 80.4925 335.748 80.0739C335.748 79.7938 335.803 79.5398 335.914 79.3121C336.028 79.0843 336.185 78.8889 336.385 78.7257C336.585 78.5595 336.822 78.4333 337.096 78.3472C337.37 78.2579 337.669 78.2133 337.992 78.2133C338.423 78.2133 338.807 78.2917 339.146 78.4487C339.488 78.6026 339.755 78.8196 339.949 79.0997C340.143 79.3767 340.24 79.7014 340.24 80.0739ZM339.012 80C339.012 79.7845 338.969 79.5983 338.883 79.4413C338.8 79.2813 338.681 79.1582 338.527 79.072C338.373 78.9858 338.195 78.9427 337.992 78.9427C337.786 78.9427 337.605 78.9858 337.452 79.072C337.301 79.1582 337.182 79.2813 337.096 79.4413C337.013 79.5983 336.971 79.7845 336.971 80C336.971 80.2185 337.013 80.4063 337.096 80.5632C337.182 80.7171 337.302 80.8356 337.456 80.9187C337.61 81.0019 337.792 81.0434 338.001 81.0434C338.21 81.0434 338.39 81.0019 338.541 80.9187C338.692 80.8356 338.807 80.7171 338.887 80.5632C338.971 80.4063 339.012 80.2185 339.012 80ZM340.092 76.9621C340.092 77.3007 340.003 77.6023 339.825 77.867C339.646 78.1286 339.398 78.3333 339.081 78.481C338.767 78.6288 338.407 78.7026 338.001 78.7026C337.595 78.7026 337.231 78.6288 336.911 78.481C336.594 78.3333 336.345 78.1286 336.163 77.867C335.985 77.6023 335.896 77.3007 335.896 76.9621C335.896 76.562 335.986 76.2234 336.168 75.9464C336.35 75.6663 336.597 75.4539 336.911 75.3092C337.228 75.1646 337.589 75.0923 337.992 75.0923C338.401 75.0923 338.764 75.1646 339.081 75.3092C339.398 75.4539 339.646 75.6663 339.825 75.9464C340.003 76.2234 340.092 76.562 340.092 76.9621ZM338.874 77.0129C338.874 76.822 338.838 76.6558 338.767 76.5143C338.697 76.3696 338.595 76.2572 338.463 76.1772C338.333 76.0972 338.176 76.0572 337.992 76.0572C337.813 76.0572 337.659 76.0957 337.53 76.1726C337.401 76.2496 337.301 76.3604 337.23 76.505C337.159 76.6466 337.124 76.8159 337.124 77.0129C337.124 77.2068 337.159 77.3761 337.23 77.5207C337.301 77.6654 337.401 77.7793 337.53 77.8624C337.662 77.9424 337.819 77.9824 338.001 77.9824C338.183 77.9824 338.338 77.9424 338.467 77.8624C338.597 77.7793 338.697 77.6654 338.767 77.5207C338.838 77.3761 338.874 77.2068 338.874 77.0129ZM342.609 75.1892V81.9114H341.339V75.1892H342.609ZM345.319 78.0932V79.0951H342.276V78.0932H345.319ZM345.674 75.1892V76.1911H342.276V75.1892H345.674ZM349.114 78.915H347.396L347.387 78.0194H348.86C349.112 78.0194 349.323 77.984 349.492 77.9132C349.662 77.8424 349.789 77.7393 349.876 77.6038C349.965 77.4684 350.009 77.3037 350.009 77.1098C350.009 76.8944 349.968 76.7189 349.885 76.5835C349.805 76.4481 349.679 76.3496 349.506 76.288C349.334 76.2234 349.115 76.1911 348.851 76.1911H347.807V81.9114H346.538V75.1892H348.851C349.232 75.1892 349.572 75.2261 349.871 75.3C350.173 75.3708 350.428 75.4816 350.637 75.6324C350.847 75.7832 351.005 75.9725 351.113 76.2003C351.224 76.4281 351.279 76.6989 351.279 77.0129C351.279 77.2899 351.214 77.5454 351.085 77.7793C350.959 78.0101 350.764 78.1979 350.499 78.3425C350.237 78.4872 349.905 78.5703 349.502 78.5918L349.114 78.915ZM349.058 81.9114H347.022L347.553 80.9141H349.058C349.311 80.9141 349.519 80.8726 349.682 80.7895C349.848 80.7064 349.971 80.5925 350.051 80.4478C350.134 80.3001 350.176 80.1308 350.176 79.94C350.176 79.7307 350.139 79.5491 350.065 79.3952C349.994 79.2413 349.88 79.1228 349.723 79.0397C349.569 78.9566 349.366 78.915 349.114 78.915H347.793L347.803 78.0194H349.483L349.774 78.3656C350.162 78.3687 350.477 78.4456 350.72 78.5965C350.967 78.7473 351.148 78.9412 351.265 79.1782C351.382 79.4152 351.441 79.6707 351.441 79.9446C351.441 80.3755 351.347 80.7372 351.159 81.0296C350.974 81.322 350.704 81.542 350.346 81.6898C349.993 81.8375 349.563 81.9114 349.058 81.9114Z" fill="#8E8E8E"/>
<rect x="40.8805" y="18.9109" width="44.2876" height="44.2876" rx="5.31451" fill="#F7D8EE"/>
<rect x="108.806" y="18.9111" width="44.2876" height="44.2876" rx="5.31451" fill="#F8F9E0"/>
<rect x="176.732" y="18.9111" width="44.2876" height="44.2876" rx="5.31451" fill="#C7DBFC"/>
<rect x="244.658" y="18.9111" width="44.2876" height="44.2876" rx="5.31451" fill="#86EFF4"/>
<rect x="312.584" y="18.9111" width="44.2876" height="44.2876" rx="5.31451" fill="#7638FB"/>
<rect x="41.7668" y="104.009" width="44.2876" height="44.2876" rx="10.3271" fill="#6DF5CE"/>
<rect x="110.056" y="104.009" width="44.2876" height="44.2876" rx="10.3271" fill="#FA09FC"/>
<path d="M43.8794 163.438L45.0798 156.715H45.8785L44.6735 163.438H43.8794ZM45.643 163.438L46.848 156.715H47.6468L46.4418 163.438H45.643ZM48.307 159.384H43.5008V158.636H48.307V159.384ZM47.9561 161.545H43.1545V160.797H47.9561V161.545ZM52.3467 156.66H52.5129V157.643H52.4345C52.062 157.643 51.7342 157.7 51.4511 157.814C51.171 157.928 50.937 158.088 50.7493 158.294C50.5646 158.497 50.4246 158.739 50.3292 159.019C50.2337 159.296 50.186 159.599 50.186 159.929V161.018C50.186 161.274 50.2122 161.498 50.2645 161.692C50.3199 161.883 50.3953 162.045 50.4907 162.177C50.5892 162.306 50.7031 162.403 50.8324 162.468C50.9647 162.533 51.1094 162.565 51.2664 162.565C51.4234 162.565 51.5649 162.533 51.6911 162.468C51.8173 162.403 51.9251 162.313 52.0143 162.196C52.1067 162.076 52.1759 161.935 52.2221 161.775C52.2713 161.615 52.2959 161.44 52.2959 161.249C52.2959 161.061 52.2729 160.887 52.2267 160.727C52.1805 160.567 52.1128 160.427 52.0236 160.307C51.9343 160.184 51.8235 160.09 51.6911 160.026C51.5619 159.958 51.4141 159.924 51.2479 159.924C51.0325 159.924 50.8401 159.975 50.6708 160.076C50.5015 160.175 50.3676 160.304 50.2691 160.464C50.1706 160.624 50.1168 160.794 50.1075 160.972L49.6966 160.769C49.712 160.507 49.7674 160.267 49.8629 160.049C49.9613 159.83 50.0922 159.639 50.2553 159.476C50.4215 159.313 50.6169 159.187 50.8416 159.098C51.0694 159.008 51.3218 158.964 51.5988 158.964C51.9189 158.964 52.199 159.025 52.4391 159.148C52.6791 159.268 52.8777 159.433 53.0346 159.642C53.1947 159.852 53.3147 160.093 53.3948 160.367C53.4748 160.638 53.5148 160.924 53.5148 161.226C53.5148 161.549 53.4625 161.851 53.3578 162.131C53.2563 162.411 53.1085 162.656 52.9146 162.865C52.7207 163.074 52.4868 163.237 52.2128 163.354C51.9389 163.471 51.6311 163.53 51.2895 163.53C50.9294 163.53 50.6062 163.462 50.3199 163.327C50.0368 163.191 49.7936 163.004 49.5905 162.763C49.3873 162.523 49.2319 162.243 49.1242 161.923C49.0164 161.603 48.9626 161.257 48.9626 160.884V160.395C48.9626 159.869 49.0349 159.379 49.1796 158.927C49.3242 158.474 49.5381 158.079 49.8213 157.74C50.1075 157.399 50.4615 157.134 50.8832 156.946C51.3049 156.755 51.7927 156.66 52.3467 156.66ZM56.5204 163.438H55.0707L55.0799 162.44H56.5204C56.9113 162.44 57.2391 162.354 57.5038 162.182C57.7685 162.006 57.9685 161.755 58.104 161.429C58.2394 161.1 58.3071 160.706 58.3071 160.247V159.901C58.3071 159.547 58.2686 159.235 58.1917 158.964C58.1147 158.693 58.0009 158.465 57.85 158.28C57.7023 158.096 57.5192 157.956 57.3006 157.86C57.0821 157.765 56.8313 157.717 56.5481 157.717H55.043V156.715H56.5481C56.9975 156.715 57.4068 156.791 57.7762 156.942C58.1486 157.092 58.4702 157.309 58.7411 157.593C59.015 157.873 59.2243 158.208 59.369 158.599C59.5167 158.99 59.5906 159.427 59.5906 159.91V160.247C59.5906 160.727 59.5167 161.164 59.369 161.558C59.2243 161.949 59.015 162.285 58.7411 162.565C58.4702 162.845 58.1471 163.06 57.7716 163.211C57.3961 163.362 56.979 163.438 56.5204 163.438ZM55.7817 156.715V163.438H54.512V156.715H55.7817ZM61.9406 156.715V163.438H60.671V156.715H61.9406ZM64.6507 159.619V160.621H61.6082V159.619H64.6507ZM65.0062 156.715V157.717H61.6082V156.715H65.0062ZM66.9222 160.344L65.948 160.109L66.322 156.715H70.0201V157.726H67.3331L67.1577 159.296C67.2531 159.238 67.3916 159.179 67.5732 159.121C67.7579 159.059 67.9656 159.028 68.1965 159.028C68.5166 159.028 68.8028 159.081 69.0552 159.185C69.3076 159.287 69.5215 159.435 69.6969 159.629C69.8755 159.822 70.0094 160.059 70.0986 160.34C70.1909 160.617 70.2371 160.931 70.2371 161.281C70.2371 161.589 70.1909 161.879 70.0986 162.149C70.0094 162.417 69.8724 162.656 69.6877 162.865C69.503 163.071 69.2707 163.234 68.9906 163.354C68.7105 163.471 68.3811 163.53 68.0026 163.53C67.7163 163.53 67.4408 163.488 67.1761 163.405C66.9145 163.319 66.679 163.194 66.4697 163.031C66.2605 162.865 66.0927 162.662 65.9665 162.422C65.8434 162.182 65.7757 161.906 65.7634 161.595H66.9684C66.9899 161.802 67.0453 161.977 67.1346 162.122C67.2238 162.266 67.3408 162.377 67.4855 162.454C67.6332 162.531 67.804 162.57 67.9979 162.57C68.1734 162.57 68.3242 162.537 68.4504 162.473C68.5797 162.405 68.6858 162.311 68.769 162.191C68.8521 162.071 68.9136 161.929 68.9536 161.766C68.9936 161.603 69.0136 161.425 69.0136 161.231C69.0136 161.043 68.9906 160.872 68.9444 160.718C68.8982 160.561 68.8274 160.426 68.732 160.312C68.6366 160.198 68.5166 160.11 68.3719 160.049C68.2303 159.987 68.0641 159.956 67.8733 159.956C67.6178 159.956 67.4208 159.995 67.2823 160.072C67.1469 160.149 67.0269 160.24 66.9222 160.344ZM75.2049 161.226H76.4745C76.4407 161.675 76.316 162.074 76.1005 162.422C75.8851 162.767 75.585 163.037 75.2003 163.234C74.8155 163.431 74.3492 163.53 73.8013 163.53C73.3797 163.53 72.9995 163.456 72.661 163.308C72.3255 163.157 72.0377 162.943 71.7976 162.666C71.5606 162.386 71.379 162.051 71.2528 161.66C71.1266 161.266 71.0635 160.824 71.0635 160.335V159.822C71.0635 159.333 71.1282 158.891 71.2574 158.497C71.3867 158.103 71.5714 157.768 71.8115 157.491C72.0546 157.211 72.3455 156.995 72.6841 156.845C73.0257 156.694 73.4074 156.618 73.829 156.618C74.3769 156.618 74.8401 156.72 75.2187 156.923C75.5973 157.123 75.8913 157.399 76.1005 157.75C76.3098 158.1 76.436 158.504 76.4791 158.959H75.2095C75.1849 158.676 75.1233 158.436 75.0248 158.239C74.9294 158.042 74.7847 157.893 74.5908 157.791C74.4 157.686 74.1461 157.634 73.829 157.634C73.5828 157.634 73.3658 157.68 73.1781 157.773C72.9934 157.865 72.8395 158.003 72.7164 158.188C72.5933 158.37 72.5009 158.597 72.4394 158.871C72.3778 159.142 72.347 159.456 72.347 159.813V160.335C72.347 160.677 72.3747 160.983 72.4301 161.254C72.4855 161.525 72.5717 161.754 72.6887 161.942C72.8056 162.129 72.9565 162.273 73.1411 162.371C73.3258 162.469 73.5459 162.519 73.8013 162.519C74.1122 162.519 74.3646 162.469 74.5585 162.371C74.7555 162.273 74.9048 162.128 75.0063 161.937C75.111 161.746 75.1772 161.509 75.2049 161.226ZM81.9132 162.44V163.438H78.3397V162.44H81.9132ZM78.7275 156.715V163.438H77.4579V156.715H78.7275ZM81.4469 159.49V160.464H78.3397V159.49H81.4469ZM81.8993 156.715V157.717H78.3397V156.715H81.8993Z" fill="#8E8E8E"/>
<path d="M112.168 163.438L113.368 156.715H114.167L112.962 163.438H112.168ZM113.932 163.438L115.137 156.715H115.935L114.73 163.438H113.932ZM116.596 159.384H111.789V158.636H116.596V159.384ZM116.245 161.545H111.443V160.797H116.245V161.545ZM118.669 156.715V163.438H117.399V156.715H118.669ZM121.379 159.619V160.621H118.336V159.619H121.379ZM121.734 156.715V157.717H118.336V156.715H121.734ZM124.43 157.736L122.514 163.438H121.171L123.683 156.715H124.541L124.43 157.736ZM126.033 163.438L124.107 157.736L123.992 156.715H124.855L127.381 163.438H126.033ZM125.945 160.94V161.942H122.339V160.94H125.945ZM132.367 159.499V160.63C132.367 161.148 132.315 161.589 132.21 161.955C132.105 162.322 131.954 162.622 131.757 162.856C131.56 163.087 131.325 163.257 131.051 163.368C130.777 163.476 130.472 163.53 130.137 163.53C129.869 163.53 129.62 163.496 129.389 163.428C129.158 163.357 128.95 163.25 128.766 163.105C128.584 162.957 128.427 162.77 128.295 162.542C128.166 162.314 128.066 162.042 127.995 161.725C127.927 161.408 127.893 161.043 127.893 160.63V159.499C127.893 158.982 127.945 158.542 128.05 158.179C128.158 157.816 128.31 157.519 128.507 157.288C128.704 157.057 128.94 156.889 129.214 156.785C129.488 156.677 129.792 156.623 130.128 156.623C130.399 156.623 130.648 156.657 130.876 156.725C131.106 156.792 131.313 156.898 131.494 157.043C131.679 157.185 131.836 157.369 131.965 157.597C132.095 157.822 132.193 158.093 132.261 158.41C132.332 158.724 132.367 159.087 132.367 159.499ZM131.148 160.797V159.328C131.148 159.07 131.133 158.845 131.102 158.654C131.074 158.461 131.033 158.296 130.977 158.16C130.922 158.025 130.853 157.916 130.769 157.833C130.686 157.746 130.591 157.683 130.483 157.643C130.375 157.603 130.257 157.583 130.128 157.583C129.968 157.583 129.825 157.616 129.698 157.68C129.572 157.742 129.466 157.84 129.38 157.976C129.294 158.111 129.227 158.291 129.181 158.516C129.138 158.738 129.117 159.008 129.117 159.328V160.797C129.117 161.055 129.13 161.281 129.158 161.475C129.189 161.669 129.232 161.835 129.287 161.974C129.346 162.112 129.415 162.226 129.495 162.316C129.578 162.402 129.674 162.466 129.781 162.51C129.889 162.55 130.008 162.57 130.137 162.57C130.3 162.57 130.443 162.537 130.566 162.473C130.693 162.408 130.799 162.306 130.885 162.168C130.971 162.026 131.036 161.843 131.079 161.618C131.125 161.391 131.148 161.117 131.148 160.797ZM134.237 162.491H134.324C134.722 162.491 135.057 162.44 135.331 162.339C135.608 162.237 135.831 162.094 136 161.909C136.173 161.722 136.297 161.498 136.374 161.24C136.454 160.978 136.494 160.689 136.494 160.372V159.153C136.494 158.894 136.468 158.668 136.416 158.474C136.364 158.277 136.29 158.113 136.194 157.98C136.102 157.848 135.993 157.75 135.866 157.685C135.74 157.617 135.605 157.583 135.46 157.583C135.3 157.583 135.159 157.62 135.035 157.694C134.912 157.768 134.808 157.87 134.722 157.999C134.638 158.125 134.574 158.271 134.528 158.437C134.485 158.604 134.463 158.779 134.463 158.964C134.463 159.142 134.483 159.313 134.523 159.476C134.566 159.639 134.629 159.784 134.712 159.91C134.798 160.036 134.906 160.136 135.035 160.21C135.165 160.281 135.316 160.316 135.488 160.316C135.651 160.316 135.799 160.286 135.931 160.224C136.067 160.16 136.184 160.075 136.282 159.97C136.381 159.863 136.456 159.744 136.508 159.615C136.564 159.482 136.594 159.348 136.601 159.213L137.03 159.398C137.03 159.622 136.982 159.844 136.887 160.063C136.794 160.281 136.664 160.48 136.494 160.658C136.328 160.834 136.134 160.975 135.913 161.083C135.691 161.188 135.453 161.24 135.197 161.24C134.88 161.24 134.6 161.181 134.357 161.064C134.114 160.947 133.909 160.786 133.743 160.58C133.58 160.37 133.456 160.13 133.373 159.859C133.29 159.585 133.249 159.293 133.249 158.982C133.249 158.659 133.3 158.356 133.401 158.073C133.503 157.786 133.649 157.536 133.84 157.32C134.034 157.102 134.268 156.931 134.541 156.808C134.815 156.681 135.123 156.618 135.465 156.618C135.819 156.618 136.134 156.688 136.411 156.826C136.688 156.965 136.924 157.157 137.118 157.403C137.312 157.646 137.459 157.934 137.561 158.267C137.666 158.599 137.718 158.962 137.718 159.356V159.786C137.718 160.201 137.676 160.595 137.593 160.967C137.51 161.34 137.382 161.68 137.21 161.988C137.038 162.296 136.818 162.562 136.55 162.787C136.285 163.011 135.968 163.185 135.599 163.308C135.232 163.428 134.814 163.488 134.343 163.488H134.237V162.491ZM140.146 156.715V163.438H138.877V156.715H140.146ZM142.856 159.619V160.621H139.814V159.619H142.856ZM143.212 156.715V157.717H139.814V156.715H143.212ZM148.009 161.226H149.279C149.245 161.675 149.12 162.074 148.905 162.422C148.689 162.767 148.389 163.037 148.004 163.234C147.62 163.431 147.153 163.53 146.605 163.53C146.184 163.53 145.804 163.456 145.465 163.308C145.129 163.157 144.842 162.943 144.602 162.666C144.365 162.386 144.183 162.051 144.057 161.66C143.931 161.266 143.868 160.824 143.868 160.335V159.822C143.868 159.333 143.932 158.891 144.061 158.497C144.191 158.103 144.375 157.768 144.615 157.491C144.859 157.211 145.149 156.995 145.488 156.845C145.83 156.694 146.211 156.618 146.633 156.618C147.181 156.618 147.644 156.72 148.023 156.923C148.401 157.123 148.695 157.399 148.905 157.75C149.114 158.1 149.24 158.504 149.283 158.959H148.013C147.989 158.676 147.927 158.436 147.829 158.239C147.733 158.042 147.589 157.893 147.395 157.791C147.204 157.686 146.95 157.634 146.633 157.634C146.387 157.634 146.17 157.68 145.982 157.773C145.797 157.865 145.643 158.003 145.52 158.188C145.397 158.37 145.305 158.597 145.243 158.871C145.182 159.142 145.151 159.456 145.151 159.813V160.335C145.151 160.677 145.179 160.983 145.234 161.254C145.29 161.525 145.376 161.754 145.493 161.942C145.61 162.129 145.76 162.273 145.945 162.371C146.13 162.469 146.35 162.519 146.605 162.519C146.916 162.519 147.169 162.469 147.363 162.371C147.559 162.273 147.709 162.128 147.81 161.937C147.915 161.746 147.981 161.509 148.009 161.226Z" fill="#8E8E8E"/>
<defs>
<filter id="filter0_d_993_2534" x="15.7976" y="1.14441e-05" width="361.405" height="191.208" filterUnits="userSpaceOnUse" color-interpolation-filters="sRGB">
<feFlood flood-opacity="0" result="BackgroundImageFix"/>
<feColorMatrix in="SourceAlpha" type="matrix" values="0 0 0 0 0 0 0 0 0 0 0 0 0 0 0 0 0 0 127 0" result="hardAlpha"/>
<feOffset/>
<feGaussianBlur stdDeviation="2.10119"/>
<feComposite in2="hardAlpha" operator="out"/>
<feColorMatrix type="matrix" values="0 0 0 0 0 0 0 0 0 0 0 0 0 0 0 0 0 0 0.25 0"/>
<feBlend mode="normal" in2="BackgroundImageFix" result="effect1_dropShadow_993_2534"/>
<feBlend mode="normal" in="SourceGraphic" in2="effect1_dropShadow_993_2534" result="shape"/>
</filter>
</defs>
</svg>
