<svg width="8" height="13" viewBox="0 0 8 13" fill="none" xmlns="http://www.w3.org/2000/svg">
<path d="M4.00833 0C1.85453 0 0 1.63786 0 3.79167C0 6.5 4.00833 13 4.00833 13C4.00833 13 7.8 6.5 7.8 3.79167C7.8 1.63786 6.16214 0 4.00833 0ZM2.81667 4.33333C2.81667 4.6326 2.57427 4.875 2.275 4.875C1.97573 4.875 1.73333 4.6326 1.73333 4.33333V2.70833C1.73333 2.40906 1.97573 2.16667 2.275 2.16667C2.57427 2.16667 2.81667 2.40906 2.81667 2.70833V4.33333ZM6.06667 4.33333C6.06667 4.6326 5.82427 4.875 5.525 4.875C5.22573 4.875 4.98333 4.6326 4.98333 4.33333V2.70833C4.98333 2.40906 5.22573 2.16667 5.525 2.16667C5.82427 2.16667 6.06667 2.40906 6.06667 2.70833V4.33333Z" fill="#F4F4F4"/>
</svg>
