<svg width="24" height="24" viewBox="0 0 24 24" fill="none" xmlns="http://www.w3.org/2000/svg">
<path d="M3.28652 4.50125C3.28652 2.72625 4.72527 1.2875 6.50027 1.2875C8.27527 1.2875 9.71402 2.72625 9.71402 4.50125C9.71402 4.54 9.71277 4.57875 9.71152 4.61625L10.9815 4.10875C10.7828 1.81 8.84902 0 6.49902 0C4.01777 0 1.99902 2.01875 1.99902 4.5C1.99902 5.55875 2.36777 6.5325 2.98152 7.30125L4.25027 6.795C3.65527 6.21125 3.28527 5.39875 3.28527 4.5L3.28652 4.50125Z" fill="#F4F4F4"/>
<path d="M6.57123 7.71365L4.51123 8.53615C5.11123 8.83365 5.78623 9.00115 6.49998 9.00115C8.43498 9.00115 10.0887 7.77365 10.7225 6.05615L8.66248 6.87865C8.10748 7.38365 7.37498 7.69615 6.56998 7.71365H6.57123Z" fill="#F4F4F4"/>
<path d="M9.00383 4.34623L8.07883 2.76123C7.95133 2.54248 7.68758 2.46248 7.48883 2.58373C7.29133 2.70373 7.23383 2.97998 7.36133 3.19873L8.28633 4.78373C8.38133 4.94748 8.55258 5.03248 8.71633 5.01498L8.90383 4.93998C9.07758 4.81123 9.12508 4.55498 9.00383 4.34748V4.34623Z" fill="#F4F4F4"/>
<path d="M23.595 0.986221C23.1662 0.368721 22.4637 0.0012207 21.715 0.0012207C21.4225 0.0012207 21.135 0.0562207 20.8612 0.166221L10.9825 4.10997C10.9937 4.23872 11 4.36997 11 4.50122C11 5.04747 10.9012 5.57122 10.7225 6.05622L21.4975 1.75497C21.5712 1.72622 21.6437 1.71247 21.715 1.71247C22.09 1.71247 22.395 2.08997 22.25 2.47872L15.0225 21.82C14.9125 22.1137 14.6312 22.29 14.3612 22.29C14.2212 22.29 14.085 22.2425 13.9775 22.14L9.2162 14.5537C8.83745 13.95 8.94495 13.1662 9.47245 12.6837L15.97 6.74497C16.06 6.66247 15.9875 6.53247 15.8875 6.53247C15.8675 6.53247 15.845 6.53747 15.8237 6.54997L7.3287 11.4587C7.09745 11.5925 6.8362 11.6612 6.5737 11.6612C6.4487 11.6612 6.3237 11.6462 6.19995 11.615L1.87745 10.515C1.56495 10.215 1.72245 9.65122 2.1687 9.47247L4.50995 8.53747C3.9137 8.24247 3.39245 7.81872 2.9812 7.30372L1.53245 7.88247C0.758702 8.19122 0.202452 8.85997 0.0437024 9.67122C-0.106298 10.4387 0.134952 11.215 0.688702 11.7475C0.902452 11.9525 1.1662 12.1 1.4537 12.1725L5.7762 13.2725C6.0362 13.3387 6.30495 13.3725 6.57245 13.3725C6.82245 13.3725 7.0712 13.3437 7.3137 13.2862C7.19995 14.0212 7.3437 14.7937 7.76245 15.4625L12.5237 23.0487C12.5975 23.1675 12.6862 23.2762 12.7875 23.3737C13.2087 23.7787 13.7675 24.0025 14.36 24.0025C15.3625 24.0025 16.2737 23.3662 16.6275 22.42L23.855 3.07872C24.1162 2.37997 24.0187 1.59872 23.5937 0.987471L23.595 0.986221Z" fill="#F4F4F4"/>
<path d="M8.66357 6.87873L10.7236 6.05624C10.9023 5.57124 11.0011 5.04748 11.0011 4.50124C11.0011 4.36874 10.9936 4.23874 10.9836 4.10999L9.71357 4.61749C9.68232 5.51374 9.28482 6.31623 8.66482 6.87998L8.66357 6.87873Z" fill="#F4F4F4"/>
<path d="M4.51145 8.53626L6.57145 7.71376C6.5477 7.71376 6.52395 7.71501 6.5002 7.71501C5.62395 7.71501 4.8302 7.36376 4.2502 6.79626L2.98145 7.30252C3.3927 7.81752 3.91395 8.24126 4.5102 8.53626H4.51145Z" fill="#F4F4F4"/>
<path d="M8.72381 5.01372L8.89881 4.94372C8.89881 4.94372 8.90256 4.94122 8.90381 4.93872L8.71631 5.01372C8.71631 5.01372 8.72131 5.01372 8.72381 5.01372Z" fill="#F4F4F4"/>
</svg>
