<svg width="101" height="11" viewBox="0 0 101 11" fill="none" xmlns="http://www.w3.org/2000/svg">
<path opacity="0.75" d="M9.17241 9.66121V10.2794H0V9.66121H1.95525C1.4281 9.39285 0.948869 9.0478 0.517566 8.62609L1.85461 6.98713C2.93767 7.936 3.93924 8.41044 4.85936 8.41044C5.27151 8.41044 5.59257 8.32418 5.82262 8.15165C6.06223 7.96955 6.18204 7.72993 6.18204 7.43281C6.18204 7.1261 6.05743 6.88648 5.80822 6.71397C5.55904 6.53187 5.06542 6.34977 4.32743 6.16764C3.15811 5.8897 2.30028 5.53028 1.75397 5.08939C1.21724 4.63893 0.948869 3.93924 0.948869 2.99038C0.948869 2.03193 1.28912 1.29391 1.96963 0.776348C2.6597 0.258782 3.51753 0 4.54308 0C5.21399 0 5.88491 0.115014 6.55583 0.345042C7.22674 0.575073 7.8114 0.900947 8.30979 1.32267L7.17404 2.96161C6.30184 2.30029 5.40088 1.96963 4.47119 1.96963C4.09738 1.96963 3.80028 2.06067 3.57982 2.24278C3.36897 2.41531 3.26354 2.65012 3.26354 2.94724C3.26354 3.23478 3.39294 3.4648 3.65171 3.63734C3.92008 3.80985 4.52869 4.01593 5.47757 4.25555C6.43602 4.48557 7.17882 4.8354 7.70597 5.30504C8.23312 5.77469 8.49669 6.42643 8.49669 7.2603C8.49669 8.29542 8.10853 9.09573 7.33218 9.66121H9.17241ZM18.9011 9.66121V10.2794H9.00988V9.66121H10.4044V0.230028H13.9555C15.4986 0.230028 16.62 0.531942 17.3197 1.13577C18.0289 1.73001 18.3836 2.65012 18.3836 3.89613C18.3836 5.13252 18.0194 6.03827 17.2909 6.61334C16.5721 7.18841 15.4699 7.47595 13.9843 7.47595H12.6472V9.66121H18.9011ZM14.1568 5.53506C14.9044 5.53506 15.4124 5.38651 15.6807 5.08939C15.9491 4.78269 16.0833 4.3418 16.0833 3.76673C16.0833 3.18207 15.906 2.76992 15.5513 2.53031C15.2063 2.28113 14.6647 2.15652 13.9268 2.15652H12.6472V5.53506H14.1568ZM31.0749 9.66121V10.2794H27.2936L26.3592 8.10853H22.1468L21.2123 10.2794H17.4312V9.66121H19.0845L23.1676 0.230028H25.3385L29.407 9.66121H31.0749ZM24.2602 3.2204L22.995 6.1389H25.511L24.2602 3.2204ZM30.8465 9.66121V0.230028H34.6563C36.2186 0.230028 37.3304 0.493603 37.9918 1.02075C38.6626 1.5479 38.9981 2.39613 38.9981 3.56545C38.9981 5.17564 38.3607 6.21557 37.0861 6.68523L39.1851 9.66121H40.5363V10.2794H36.8703L34.6419 7.07339H33.0892V10.2794H29.4519V9.66121H30.8465ZM34.7281 5.13252C35.495 5.13252 36.0174 5.00791 36.2952 4.75873C36.5732 4.50953 36.7122 4.11656 36.7122 3.57982C36.7122 3.0335 36.5685 2.65971 36.2808 2.45843C35.9933 2.25717 35.4901 2.15652 34.7713 2.15652H33.0892V5.13252H34.7281ZM46.1083 4.67246L49.6594 9.66121H50.8527V10.2794H47.4885L44.5412 6.31141L43.5349 7.43281V10.2794H40.0557V9.66121H41.2922V0.230028H43.5349V4.35617L47.3304 0.230028H50.1051L46.1083 4.67246ZM60.499 3.95362L57.7818 9.44556H56.4447L53.7418 3.95362V10.2794H50.1045V9.66121H51.4991V0.230028H54.5325L57.1204 5.75071L59.7227 0.230028H62.7418V9.66121H64.1364V10.2794H60.499V3.95362ZM68.6953 9.66121V10.2794H63.9796V9.66121H65.2161V0.230028H67.4588V9.66121H68.6953ZM69.9333 9.66121V0.230028H72.0324L76.9636 6.6996V0.230028H79.2064V9.66121H80.6009V10.2794H76.9636L72.1763 3.98238V10.2794H68.5388V9.66121H69.9333ZM91.6911 9.66121V10.2794H80.2902V9.66121H81.6848V0.230028H85.2359C87.0282 0.230028 88.4036 0.670918 89.3621 1.5527C90.3205 2.4249 90.7997 3.65649 90.7997 5.24753C90.7997 7.39448 89.9657 8.8657 88.2981 9.66121H91.6911ZM85.3509 8.29542C86.3765 8.29542 87.1622 8.03665 87.7086 7.51907C88.2646 7.00151 88.5424 6.24912 88.5424 5.26192C88.5424 4.2747 88.2646 3.51753 87.7086 2.99038C87.1622 2.45364 86.319 2.18528 85.1784 2.18528H83.9276V8.29542H85.3509ZM100.867 9.66121V10.2794H91.6942V9.66121H93.6495C93.1224 9.39285 92.6432 9.0478 92.2118 8.62609L93.5489 6.98713C94.632 7.936 95.6335 8.41044 96.5536 8.41044C96.9657 8.41044 97.2868 8.32418 97.517 8.15165C97.7566 7.96955 97.8763 7.72993 97.8763 7.43281C97.8763 7.1261 97.7517 6.88648 97.5024 6.71397C97.2533 6.53187 96.7598 6.34977 96.0216 6.16764C94.8523 5.8897 93.9947 5.53028 93.4483 5.08939C92.9116 4.63893 92.6432 3.93924 92.6432 2.99038C92.6432 2.03193 92.9834 1.29391 93.6639 0.776348C94.354 0.258782 95.2118 0 96.2374 0C96.9082 0 97.5792 0.115014 98.2502 0.345042C98.921 0.575073 99.5058 0.900947 100.004 1.32267L98.8682 2.96161C97.9962 2.30029 97.0953 1.96963 96.1655 1.96963C95.7917 1.96963 95.4945 2.06067 95.274 2.24278C95.0632 2.41531 94.9578 2.65012 94.9578 2.94724C94.9578 3.23478 95.0872 3.4648 95.3459 3.63734C95.6145 3.80985 96.223 4.01593 97.1718 4.25555C98.1303 4.48557 98.8731 4.8354 99.4002 5.30504C99.9275 5.77469 100.191 6.42643 100.191 7.2603C100.191 8.29542 99.8029 9.09573 99.0265 9.66121H100.867Z" fill="white"/>
</svg>
