<svg width="393" height="136" viewBox="0 0 393 136" fill="none" xmlns="http://www.w3.org/2000/svg">
<mask id="path-1-inside-1_993_2573" fill="white">
<path d="M20 11.9111C20 5.33276 25.3328 0 31.911 0H361.089C367.667 0 373 5.33276 373 11.911V123.442C373 130.02 367.667 135.353 361.089 135.353H31.911C25.3327 135.353 20 130.02 20 123.442V11.9111Z"/>
</mask>
<path d="M20 11.9111C20 5.33276 25.3328 0 31.911 0H361.089C367.667 0 373 5.33276 373 11.911V123.442C373 130.02 367.667 135.353 361.089 135.353H31.911C25.3327 135.353 20 130.02 20 123.442V11.9111Z" fill="#F4F4F4"/>
<path d="M31.911 0V0.541411H361.089V0V-0.541411H31.911V0ZM373 11.911H372.459V123.442H373H373.541V11.911H373ZM361.089 135.353V134.811H31.911V135.353V135.894H361.089V135.353ZM20 123.442H20.5414V11.9111H20H19.4586V123.442H20ZM31.911 135.353V134.811C25.6318 134.811 20.5414 129.721 20.5414 123.442H20H19.4586C19.4586 130.319 25.0337 135.894 31.911 135.894V135.353ZM373 123.442H372.459C372.459 129.721 367.368 134.811 361.089 134.811V135.353V135.894C367.966 135.894 373.541 130.319 373.541 123.442H373ZM361.089 0V0.541411C367.368 0.541411 372.459 5.63177 372.459 11.911H373H373.541C373.541 5.03374 367.966 -0.541411 361.089 -0.541411V0ZM31.911 0V-0.541411C25.0337 -0.541411 19.4586 5.03375 19.4586 11.9111H20H20.5414C20.5414 5.63178 25.6318 0.541411 31.911 0.541411V0Z" fill="#141414" mask="url(#path-1-inside-1_993_2573)"/>
<path d="M131.69 23.8H132.28C132.314 24.5149 132.753 24.8723 133.599 24.8723C133.986 24.8723 134.28 24.8067 134.481 24.6756C134.682 24.5424 134.783 24.3351 134.783 24.0538C134.783 23.874 134.727 23.7249 134.615 23.6065C134.505 23.486 134.231 23.3739 133.793 23.2702L132.829 23.0545C132.522 22.9784 132.281 22.8526 132.105 22.677C131.93 22.4994 131.842 22.253 131.842 21.9379C131.842 21.5085 131.985 21.1638 132.27 20.9037C132.558 20.6436 132.968 20.5135 133.501 20.5135C133.99 20.5135 134.395 20.6288 134.716 20.8593C135.04 21.0898 135.215 21.4652 135.243 21.9855H134.653C134.591 21.3721 134.205 21.0655 133.495 21.0655C133.184 21.0655 132.932 21.1332 132.74 21.2685C132.549 21.4039 132.454 21.6027 132.454 21.8649C132.454 22.0172 132.5 22.1441 132.591 22.2456C132.682 22.3471 132.854 22.4254 133.108 22.4803L134.335 22.7754C134.689 22.8536 134.953 22.9943 135.128 23.1973C135.306 23.3982 135.395 23.6721 135.395 24.0189C135.395 24.4736 135.228 24.8215 134.894 25.0626C134.56 25.3037 134.104 25.4243 133.526 25.4243C132.924 25.4243 132.467 25.2773 132.156 24.9833C131.845 24.6893 131.69 24.2949 131.69 23.8ZM135.82 24.4059C135.82 23.7947 136.162 23.4447 136.845 23.3559L137.736 23.2385C137.872 23.2216 137.963 23.1814 138.009 23.118C138.058 23.0545 138.082 22.9583 138.082 22.8293C138.082 22.4571 137.823 22.271 137.305 22.271C137.038 22.271 136.849 22.3249 136.737 22.4328C136.625 22.5406 136.552 22.7003 136.518 22.9118H135.991C136.008 22.1673 136.464 21.7951 137.359 21.7951C137.735 21.7951 138.043 21.8776 138.282 22.0426C138.523 22.2075 138.644 22.4433 138.644 22.75V24.7295C138.644 24.8099 138.658 24.8638 138.688 24.8913C138.718 24.9188 138.763 24.9325 138.824 24.9325C138.862 24.9325 138.927 24.923 139.018 24.904V25.3196C138.878 25.3619 138.768 25.383 138.688 25.383C138.489 25.383 138.345 25.3386 138.257 25.2498C138.17 25.161 138.12 25.0298 138.107 24.8564C137.784 25.2265 137.382 25.4116 136.902 25.4116C136.616 25.4116 136.365 25.328 136.147 25.161C135.929 24.9918 135.82 24.7401 135.82 24.4059ZM136.41 24.3584C136.41 24.7433 136.615 24.9357 137.026 24.9357C137.296 24.9357 137.539 24.8596 137.752 24.7073C137.966 24.555 138.073 24.3626 138.073 24.1299V23.5684C137.986 23.6361 137.808 23.6901 137.54 23.7302C137.271 23.7683 137.135 23.7873 137.13 23.7873C136.65 23.8529 136.41 24.0432 136.41 24.3584ZM139.494 25.3037V21.903H140.03V22.4042C140.316 21.9981 140.674 21.7951 141.105 21.7951C141.469 21.7951 141.75 21.903 141.949 22.1187C142.148 22.3323 142.247 22.622 142.247 22.9879V25.3037H141.676V23.1909C141.676 22.8483 141.616 22.6146 141.496 22.4899C141.377 22.363 141.201 22.2995 140.966 22.2995C140.699 22.2995 140.483 22.3989 140.316 22.5977C140.148 22.7965 140.065 23.0767 140.065 23.4384V25.3037H139.494ZM142.758 24.2442H143.32C143.337 24.6862 143.63 24.9072 144.199 24.9072C144.446 24.9072 144.641 24.8596 144.782 24.7644C144.926 24.6671 144.998 24.5328 144.998 24.3615C144.998 24.2389 144.95 24.1416 144.855 24.0697C144.76 24.0041 144.582 23.9386 144.322 23.873L143.656 23.708C143.129 23.5811 142.866 23.3009 142.866 22.8674C142.866 22.5565 142.978 22.3006 143.202 22.0997C143.429 21.8966 143.751 21.7951 144.17 21.7951C144.536 21.7951 144.834 21.8829 145.065 22.0584C145.295 22.234 145.424 22.5015 145.452 22.861H144.89C144.863 22.4867 144.606 22.2995 144.119 22.2995C143.658 22.2995 143.428 22.4613 143.428 22.7849C143.428 22.9266 143.482 23.026 143.589 23.0831C143.697 23.1381 143.849 23.1888 144.043 23.2354L144.608 23.3781C144.953 23.4669 145.197 23.578 145.341 23.7112C145.487 23.8508 145.559 24.0411 145.559 24.2822C145.559 24.6164 145.44 24.8881 145.201 25.0975C144.964 25.3069 144.62 25.4116 144.17 25.4116C143.753 25.4116 143.419 25.3238 143.168 25.1483C142.916 24.9727 142.779 24.6714 142.758 24.2442ZM147.663 23.8H148.253C148.287 24.5149 148.727 24.8723 149.573 24.8723C149.96 24.8723 150.254 24.8067 150.455 24.6756C150.656 24.5424 150.756 24.3351 150.756 24.0538C150.756 23.874 150.7 23.7249 150.588 23.6065C150.478 23.486 150.204 23.3739 149.766 23.2702L148.802 23.0545C148.495 22.9784 148.254 22.8526 148.079 22.677C147.903 22.4994 147.815 22.253 147.815 21.9379C147.815 21.5085 147.958 21.1638 148.244 20.9037C148.531 20.6436 148.941 20.5135 149.474 20.5135C149.963 20.5135 150.368 20.6288 150.689 20.8593C151.013 21.0898 151.189 21.4652 151.216 21.9855H150.626C150.565 21.3721 150.179 21.0655 149.468 21.0655C149.157 21.0655 148.905 21.1332 148.713 21.2685C148.523 21.4039 148.428 21.6027 148.428 21.8649C148.428 22.0172 148.473 22.1441 148.564 22.2456C148.655 22.3471 148.827 22.4254 149.081 22.4803L150.309 22.7754C150.662 22.8536 150.926 22.9943 151.102 23.1973C151.279 23.3982 151.368 23.6721 151.368 24.0189C151.368 24.4736 151.201 24.8215 150.867 25.0626C150.533 25.3037 150.077 25.4243 149.5 25.4243C148.897 25.4243 148.44 25.2773 148.129 24.9833C147.818 24.6893 147.663 24.2949 147.663 23.8ZM151.822 23.6604C151.822 23.1127 151.962 22.6654 152.241 22.3185C152.522 21.9696 152.915 21.7951 153.421 21.7951C153.897 21.7951 154.258 21.959 154.506 22.2868C154.755 22.6125 154.887 23.1106 154.899 23.781H152.412C152.412 24.1363 152.492 24.4133 152.653 24.6121C152.816 24.8088 153.059 24.9072 153.383 24.9072C153.613 24.9051 153.814 24.8395 153.986 24.7105C154.159 24.5794 154.262 24.4239 154.293 24.2442H154.855C154.781 24.6016 154.62 24.886 154.373 25.0975C154.125 25.3069 153.801 25.4116 153.399 25.4116C152.921 25.4116 152.538 25.2614 152.25 24.9611C151.965 24.6608 151.822 24.2272 151.822 23.6604ZM152.412 23.3305H154.309C154.269 22.952 154.172 22.6855 154.017 22.5311C153.863 22.3767 153.654 22.2995 153.389 22.2995C153.11 22.2995 152.882 22.3947 152.704 22.585C152.526 22.7732 152.429 23.0217 152.412 23.3305ZM155.55 25.3037V21.903H156.086V22.4708C156.242 22.2107 156.394 22.033 156.539 21.9379C156.687 21.8427 156.856 21.7951 157.044 21.7951C157.082 21.7951 157.129 21.8025 157.187 21.8173V22.4042H156.971C156.719 22.4042 156.514 22.4941 156.355 22.6738C156.199 22.8536 156.121 23.0693 156.121 23.321V25.3037H155.55ZM157.52 25.3037V21.903H158.091V25.3037H157.52ZM157.52 21.2939V20.6404H158.091V21.2939H157.52ZM158.5 22.3788V21.903H158.957V21.351C158.957 21.0739 159.032 20.8741 159.182 20.7514C159.335 20.6288 159.549 20.5674 159.826 20.5674H159.931C159.954 20.5674 160.006 20.5717 160.086 20.5801V21.0877C159.959 21.0771 159.886 21.0718 159.867 21.0718C159.751 21.0718 159.665 21.1057 159.611 21.1733C159.556 21.2389 159.528 21.3394 159.528 21.4747V21.903H160.086V22.3788H159.528V25.3037H158.957V22.3788H158.5Z" fill="#141414"/>
<path d="M149.673 64.0623V65.5522H140.56L138.307 60.3201H128.155L125.903 65.5522H116.79V64.0623H120.774L130.615 41.3317H135.847L145.653 64.0623H149.673ZM133.249 48.5389L130.199 55.573H136.263L133.249 48.5389ZM174.798 64.0623V65.5522H165.685L163.433 60.3201H153.28L151.028 65.5522H141.915V64.0623H145.9L155.741 41.3317H160.973L170.779 64.0623H174.798ZM158.374 48.5389L155.325 55.573H161.389L158.374 48.5389Z" fill="#141414"/>
<path d="M139.967 83.5522V78.8826H142.022C142.42 78.8826 142.738 78.9915 142.977 79.2093C143.218 79.425 143.339 79.7084 143.339 80.0595C143.339 80.4804 143.132 80.7997 142.717 81.0176C143.03 81.1381 143.248 81.2914 143.371 81.4775C143.493 81.6637 143.555 81.8899 143.555 82.1564C143.555 82.554 143.417 82.8861 143.142 83.1525C142.867 83.419 142.477 83.5522 141.972 83.5522H139.967ZM140.598 83.0003H141.943C142.239 83.0003 142.476 82.9305 142.654 82.7909C142.833 82.6513 142.923 82.4356 142.923 82.1437C142.923 81.6235 142.56 81.3633 141.832 81.3633H140.598V83.0003ZM140.598 80.8367H141.734C142.383 80.8367 142.708 80.5935 142.708 80.1071C142.708 79.6587 142.386 79.4346 141.743 79.4346H140.598V80.8367ZM143.91 81.8646C143.91 81.3253 144.055 80.8875 144.345 80.5512C144.634 80.2128 145.019 80.0436 145.499 80.0436C145.963 80.0436 146.343 80.2076 146.641 80.5354C146.94 80.8632 147.089 81.302 147.089 81.8519C147.089 82.37 146.945 82.8015 146.657 83.1462C146.37 83.4888 145.988 83.6601 145.512 83.6601C145.045 83.6601 144.661 83.4951 144.36 83.1652C144.06 82.8332 143.91 82.3996 143.91 81.8646ZM144.5 81.8519C144.5 82.222 144.586 82.5318 144.757 82.7814C144.93 83.0309 145.178 83.1557 145.499 83.1557C145.779 83.1557 146.014 83.0468 146.207 82.829C146.401 82.609 146.499 82.2833 146.499 81.8519C146.499 81.4818 146.414 81.1719 146.245 80.9224C146.076 80.6728 145.827 80.548 145.499 80.548C145.203 80.548 144.962 80.6601 144.776 80.8843C144.592 81.1085 144.5 81.431 144.5 81.8519ZM147.612 83.5522V78.8826H148.183V83.5522H147.612ZM148.713 81.7662C148.713 81.246 148.841 80.8293 149.097 80.5163C149.353 80.2012 149.691 80.0436 150.112 80.0436C150.571 80.0436 150.917 80.2467 151.15 80.6527V78.8826H151.721V83.5522H151.184V83.1018C150.975 83.474 150.647 83.6601 150.201 83.6601C149.751 83.6601 149.39 83.4877 149.119 83.143C148.849 82.7983 148.713 82.3394 148.713 81.7662ZM149.303 81.7916C149.303 82.2125 149.381 82.5456 149.538 82.7909C149.697 83.0341 149.922 83.1557 150.214 83.1557C150.508 83.1557 150.735 83.0468 150.896 82.829C151.059 82.6111 151.14 82.3055 151.14 81.9122C151.14 81.4553 151.062 81.1138 150.905 80.8875C150.751 80.6612 150.516 80.548 150.201 80.548C149.602 80.548 149.303 80.9626 149.303 81.7916Z" fill="#141414"/>
<path d="M103.421 98.8005V92.1852H104.707L106.599 97.7669L108.482 92.1852H109.767V98.8005H108.9V93.2458L107.035 98.8005H106.154L104.289 93.2188V98.8005H103.421ZM110.549 96.4097C110.549 95.6457 110.754 95.0255 111.165 94.5491C111.575 94.0697 112.121 93.83 112.801 93.83C113.457 93.83 113.996 94.0622 114.419 94.5266C114.841 94.991 115.052 95.6127 115.052 96.3917C115.052 97.1257 114.849 97.7369 114.441 98.2253C114.034 98.7107 113.493 98.9533 112.819 98.9533C112.157 98.9533 111.613 98.7196 111.187 98.2523C110.762 97.7819 110.549 97.1677 110.549 96.4097ZM111.385 96.3917C111.385 96.916 111.506 97.3549 111.749 97.7085C111.995 98.062 112.345 98.2388 112.801 98.2388C113.196 98.2388 113.53 98.0845 113.803 97.7759C114.079 97.4643 114.216 97.0029 114.216 96.3917C114.216 95.8674 114.097 95.4284 113.857 95.0749C113.617 94.7214 113.265 94.5446 112.801 94.5446C112.381 94.5446 112.04 94.7034 111.776 95.021C111.515 95.3386 111.385 95.7955 111.385 96.3917ZM115.767 98.8005V93.9828H116.527V94.6929C116.931 94.1176 117.439 93.83 118.05 93.83C118.565 93.83 118.964 93.9828 119.246 94.2884C119.527 94.591 119.668 95.0015 119.668 95.5198V98.8005H118.859V95.8074C118.859 95.3221 118.774 94.991 118.603 94.8142C118.435 94.6345 118.185 94.5446 117.852 94.5446C117.475 94.5446 117.168 94.6854 116.931 94.967C116.694 95.2487 116.576 95.6457 116.576 96.158V98.8005H115.767ZM120.243 94.6569V93.9828H120.9V92.6166H121.709V93.9828H122.5V94.6569H121.709V97.7849C121.709 98.0425 121.872 98.1714 122.198 98.1714H122.482V98.814C122.179 98.856 121.953 98.8769 121.803 98.8769C121.201 98.8769 120.9 98.5309 120.9 97.8388V94.6569H120.243ZM122.769 97.2995H123.565C123.589 97.9257 124.004 98.2388 124.81 98.2388C125.16 98.2388 125.436 98.1714 125.637 98.0365C125.84 97.8987 125.942 97.7085 125.942 97.4658C125.942 97.292 125.875 97.1542 125.74 97.0523C125.605 96.9594 125.353 96.8666 124.985 96.7737L124.041 96.54C123.295 96.3602 122.922 95.9632 122.922 95.349C122.922 94.9086 123.081 94.5461 123.399 94.2615C123.719 93.9738 124.176 93.83 124.769 93.83C125.288 93.83 125.71 93.9544 126.037 94.203C126.363 94.4517 126.546 94.8307 126.585 95.3401H125.789C125.75 94.8097 125.386 94.5446 124.697 94.5446C124.044 94.5446 123.718 94.7738 123.718 95.2322C123.718 95.4329 123.794 95.5737 123.947 95.6546C124.1 95.7325 124.314 95.8044 124.589 95.8704L125.389 96.0726C125.878 96.1984 126.224 96.3557 126.428 96.5445C126.634 96.7422 126.738 97.0119 126.738 97.3534C126.738 97.8268 126.568 98.2118 126.23 98.5084C125.894 98.805 125.407 98.9533 124.769 98.9533C124.179 98.9533 123.706 98.829 123.349 98.5803C122.993 98.3316 122.799 97.9047 122.769 97.2995ZM127.277 96.4726C127.277 95.6966 127.475 95.0629 127.87 94.5716C128.269 94.0772 128.826 93.83 129.542 93.83C130.216 93.83 130.729 94.0622 131.079 94.5266C131.433 94.988 131.618 95.6936 131.636 96.6434H128.113C128.113 97.1467 128.227 97.5392 128.455 97.8208C128.685 98.0995 129.03 98.2388 129.488 98.2388C129.815 98.2358 130.099 98.1429 130.342 97.9601C130.588 97.7744 130.733 97.5542 130.778 97.2995H131.574C131.469 97.8058 131.241 98.2088 130.89 98.5084C130.54 98.805 130.08 98.9533 129.511 98.9533C128.834 98.9533 128.291 98.7406 127.884 98.3152C127.479 97.8897 127.277 97.2755 127.277 96.4726ZM128.113 96.0052H130.801C130.744 95.4689 130.606 95.0914 130.387 94.8727C130.168 94.6539 129.872 94.5446 129.497 94.5446C129.102 94.5446 128.778 94.6794 128.527 94.9491C128.275 95.2157 128.137 95.5678 128.113 96.0052ZM132.558 98.8005V93.9828H133.317V94.7873C133.539 94.4188 133.753 94.1671 133.96 94.0323C134.17 93.8974 134.408 93.83 134.675 93.83C134.729 93.83 134.796 93.8405 134.877 93.8615V94.6929H134.571C134.215 94.6929 133.924 94.8202 133.699 95.0749C133.478 95.3296 133.367 95.6352 133.367 95.9917V98.8005H132.558ZM135.439 98.8005V93.9828H136.198V94.7873C136.42 94.4188 136.634 94.1671 136.841 94.0323C137.051 93.8974 137.289 93.83 137.556 93.83C137.61 93.83 137.677 93.8405 137.758 93.8615V94.6929H137.452C137.096 94.6929 136.805 94.8202 136.58 95.0749C136.359 95.3296 136.248 95.6352 136.248 95.9917V98.8005H135.439ZM137.938 97.5287C137.938 96.6628 138.422 96.167 139.389 96.0411L140.652 95.8749C140.844 95.8509 140.973 95.794 141.039 95.7041C141.108 95.6142 141.142 95.4779 141.142 95.2951C141.142 94.7678 140.775 94.5041 140.041 94.5041C139.664 94.5041 139.395 94.5805 139.237 94.7333C139.078 94.8861 138.974 95.1124 138.926 95.412H138.18C138.204 94.3573 138.85 93.83 140.117 93.83C140.651 93.83 141.087 93.9469 141.425 94.1806C141.767 94.4143 141.938 94.7483 141.938 95.1828V97.9871C141.938 98.101 141.959 98.1774 142 98.2163C142.042 98.2552 142.107 98.2747 142.194 98.2747C142.248 98.2747 142.339 98.2612 142.468 98.2343V98.823C142.27 98.8829 142.114 98.9129 142 98.9129C141.719 98.9129 141.515 98.85 141.389 98.7241C141.266 98.5983 141.196 98.4125 141.178 98.1669C140.72 98.6912 140.15 98.9533 139.47 98.9533C139.066 98.9533 138.709 98.835 138.401 98.5983C138.092 98.3586 137.938 98.0021 137.938 97.5287ZM138.774 97.4613C138.774 98.0066 139.064 98.2792 139.646 98.2792C140.029 98.2792 140.372 98.1714 140.675 97.9556C140.977 97.7399 141.129 97.4673 141.129 97.1377V96.3422C141.006 96.4381 140.754 96.5145 140.374 96.5714C139.993 96.6254 139.8 96.6523 139.794 96.6523C139.114 96.7452 138.774 97.0149 138.774 97.4613ZM142.679 94.6569V93.9828H143.335V92.6166H144.144V93.9828H144.935V94.6569H144.144V97.7849C144.144 98.0425 144.308 98.1714 144.634 98.1714H144.917V98.814C144.615 98.856 144.389 98.8769 144.239 98.8769C143.637 98.8769 143.335 98.5309 143.335 97.8388V94.6569H142.679ZM147.583 97.2995H148.378C148.402 97.9257 148.817 98.2388 149.623 98.2388C149.974 98.2388 150.249 98.1714 150.45 98.0365C150.654 97.8987 150.756 97.7085 150.756 97.4658C150.756 97.292 150.688 97.1542 150.553 97.0523C150.419 96.9594 150.167 96.8666 149.798 96.7737L148.855 96.54C148.109 96.3602 147.736 95.9632 147.736 95.349C147.736 94.9086 147.894 94.5461 148.212 94.2615C148.532 93.9738 148.989 93.83 149.583 93.83C150.101 93.83 150.523 93.9544 150.85 94.203C151.177 94.4517 151.359 94.8307 151.398 95.3401H150.603C150.564 94.8097 150.2 94.5446 149.511 94.5446C148.858 94.5446 148.531 94.7738 148.531 95.2322C148.531 95.4329 148.607 95.5737 148.76 95.6546C148.913 95.7325 149.127 95.8044 149.403 95.8704L150.203 96.0726C150.691 96.1984 151.037 96.3557 151.241 96.5445C151.448 96.7422 151.551 97.0119 151.551 97.3534C151.551 97.8268 151.382 98.2118 151.043 98.5084C150.708 98.805 150.221 98.9533 149.583 98.9533C148.992 98.9533 148.519 98.829 148.162 98.5803C147.806 98.3316 147.613 97.9047 147.583 97.2995ZM152.342 97.4568V93.9828H153.151V97.1737C153.151 97.8837 153.472 98.2388 154.113 98.2388C154.49 98.2388 154.805 98.1054 155.057 97.8388C155.308 97.5721 155.434 97.1737 155.434 96.6434V93.9828H156.243V98.8005H155.484V98.0905C155.367 98.3062 155.191 98.5024 154.958 98.6792C154.724 98.856 154.389 98.9473 153.951 98.9533C153.46 98.9533 153.069 98.8275 152.778 98.5758C152.487 98.3212 152.342 97.9481 152.342 97.4568ZM157.192 98.8005V92.1852H158V94.621C158.339 94.0937 158.824 93.83 159.457 93.83C160.011 93.83 160.481 94.0383 160.868 94.4547C161.257 94.8712 161.452 95.4764 161.452 96.2703C161.452 97.0553 161.26 97.6995 160.877 98.2028C160.496 98.7032 159.981 98.9533 159.331 98.9533C158.758 98.9533 158.299 98.7137 157.951 98.2343V98.8005H157.192ZM157.965 96.5085C157.965 97.0328 158.08 97.4523 158.311 97.7669C158.544 98.0815 158.878 98.2388 159.313 98.2388C159.714 98.2388 160.032 98.08 160.266 97.7624C160.499 97.4418 160.616 96.9564 160.616 96.3063C160.616 95.1318 160.177 94.5446 159.299 94.5446C158.409 94.5446 157.965 95.1992 157.965 96.5085ZM162.311 98.8005V93.9828H163.07V94.7873C163.292 94.4188 163.506 94.1671 163.713 94.0323C163.922 93.8974 164.161 93.83 164.427 93.83C164.481 93.83 164.549 93.8405 164.629 93.8615V94.6929H164.324C163.967 94.6929 163.677 94.8202 163.452 95.0749C163.23 95.3296 163.119 95.6352 163.119 95.9917V98.8005H162.311ZM164.809 97.5287C164.809 96.6628 165.293 96.167 166.261 96.0411L167.524 95.8749C167.716 95.8509 167.844 95.794 167.91 95.7041C167.979 95.6142 168.014 95.4779 168.014 95.2951C168.014 94.7678 167.647 94.5041 166.913 94.5041C166.535 94.5041 166.267 94.5805 166.108 94.7333C165.949 94.8861 165.846 95.1124 165.798 95.412H165.052C165.076 94.3573 165.722 93.83 166.989 93.83C167.522 93.83 167.958 93.9469 168.297 94.1806C168.638 94.4143 168.809 94.7483 168.809 95.1828V97.9871C168.809 98.101 168.83 98.1774 168.872 98.2163C168.914 98.2552 168.979 98.2747 169.065 98.2747C169.119 98.2747 169.211 98.2612 169.34 98.2343V98.823C169.142 98.8829 168.986 98.9129 168.872 98.9129C168.591 98.9129 168.387 98.85 168.261 98.7241C168.138 98.5983 168.068 98.4125 168.05 98.1669C167.591 98.6912 167.022 98.9533 166.342 98.9533C165.937 98.9533 165.581 98.835 165.272 98.5983C164.964 98.3586 164.809 98.0021 164.809 97.5287ZM165.645 97.4613C165.645 98.0066 165.936 98.2792 166.517 98.2792C166.901 98.2792 167.244 98.1714 167.546 97.9556C167.849 97.7399 168 97.4673 168 97.1377V96.3422C167.877 96.4381 167.626 96.5145 167.245 96.5714C166.865 96.6254 166.672 96.6523 166.666 96.6523C165.985 96.7452 165.645 97.0149 165.645 97.4613ZM169.493 93.9828H170.418L171.708 97.9017L172.98 93.9828H173.879L172.153 98.7196C171.805 99.6934 171.524 100.278 171.308 100.472C171.092 100.664 170.791 100.76 170.405 100.76C170.243 100.76 170.083 100.736 169.924 100.688V99.96C170.107 100.017 170.277 100.045 170.436 100.045C170.625 100.045 170.757 99.9975 170.832 99.9016C170.907 99.8027 170.976 99.6769 171.038 99.5241L171.29 98.9354L169.493 93.9828ZM174.167 97.5287C174.167 96.6628 174.65 96.167 175.618 96.0411L176.881 95.8749C177.073 95.8509 177.202 95.794 177.268 95.7041C177.336 95.6142 177.371 95.4779 177.371 95.2951C177.371 94.7678 177.004 94.5041 176.27 94.5041C175.892 94.5041 175.624 94.5805 175.465 94.7333C175.307 94.8861 175.203 95.1124 175.155 95.412H174.409C174.433 94.3573 175.079 93.83 176.346 93.83C176.88 93.83 177.315 93.9469 177.654 94.1806C177.996 94.4143 178.166 94.7483 178.166 95.1828V97.9871C178.166 98.101 178.187 98.1774 178.229 98.2163C178.271 98.2552 178.336 98.2747 178.423 98.2747C178.476 98.2747 178.568 98.2612 178.697 98.2343V98.823C178.499 98.8829 178.343 98.9129 178.229 98.9129C177.948 98.9129 177.744 98.85 177.618 98.7241C177.495 98.5983 177.425 98.4125 177.407 98.1669C176.948 98.6912 176.379 98.9533 175.699 98.9533C175.295 98.9533 174.938 98.835 174.629 98.5983C174.321 98.3586 174.167 98.0021 174.167 97.5287ZM175.002 97.4613C175.002 98.0066 175.293 98.2792 175.874 98.2792C176.258 98.2792 176.601 98.1714 176.904 97.9556C177.206 97.7399 177.357 97.4673 177.357 97.1377V96.3422C177.235 96.4381 176.983 96.5145 176.602 96.5714C176.222 96.6254 176.029 96.6523 176.023 96.6523C175.343 96.7452 175.002 97.0149 175.002 97.4613ZM179.092 96.2703C179.092 95.5333 179.274 94.9431 179.636 94.4997C179.999 94.0532 180.478 93.83 181.074 93.83C181.724 93.83 182.214 94.1176 182.544 94.6929V92.1852H183.353V98.8005H182.593V98.1624C182.297 98.6897 181.832 98.9533 181.2 98.9533C180.562 98.9533 180.051 98.7092 179.668 98.2208C179.284 97.7324 179.092 97.0823 179.092 96.2703ZM179.928 96.3063C179.928 96.9025 180.039 97.3744 180.261 97.7219C180.486 98.0665 180.805 98.2388 181.218 98.2388C181.635 98.2388 181.957 98.0845 182.184 97.7759C182.415 97.4673 182.53 97.0343 182.53 96.4771C182.53 95.8299 182.42 95.346 182.198 95.0255C181.979 94.7049 181.647 94.5446 181.2 94.5446C180.352 94.5446 179.928 95.1318 179.928 96.3063ZM184.045 97.5287C184.045 96.6628 184.529 96.167 185.497 96.0411L186.76 95.8749C186.951 95.8509 187.08 95.794 187.146 95.7041C187.215 95.6142 187.249 95.4779 187.249 95.2951C187.249 94.7678 186.882 94.5041 186.148 94.5041C185.771 94.5041 185.503 94.5805 185.344 94.7333C185.185 94.8861 185.082 95.1124 185.034 95.412H184.288C184.312 94.3573 184.957 93.83 186.225 93.83C186.758 93.83 187.194 93.9469 187.533 94.1806C187.874 94.4143 188.045 94.7483 188.045 95.1828V97.9871C188.045 98.101 188.066 98.1774 188.108 98.2163C188.15 98.2552 188.214 98.2747 188.301 98.2747C188.355 98.2747 188.446 98.2612 188.575 98.2343V98.823C188.377 98.8829 188.222 98.9129 188.108 98.9129C187.826 98.9129 187.622 98.85 187.497 98.7241C187.374 98.5983 187.303 98.4125 187.285 98.1669C186.827 98.6912 186.258 98.9533 185.578 98.9533C185.173 98.9533 184.817 98.835 184.508 98.5983C184.199 98.3586 184.045 98.0021 184.045 97.5287ZM184.881 97.4613C184.881 98.0066 185.172 98.2792 185.753 98.2792C186.136 98.2792 186.479 98.1714 186.782 97.9556C187.085 97.7399 187.236 97.4673 187.236 97.1377V96.3422C187.113 96.4381 186.861 96.5145 186.481 96.5714C186.1 96.6254 185.907 96.6523 185.901 96.6523C185.221 96.7452 184.881 97.0149 184.881 97.4613Z" fill="#141414"/>
<path d="M115.697 115.049V108.045H117.058L119.062 113.955L121.055 108.045H122.416V115.049H121.498V109.168L119.523 115.049H118.591L116.616 109.139V115.049H115.697ZM123.259 113.702C123.259 112.786 123.771 112.261 124.796 112.127L126.133 111.951C126.336 111.926 126.472 111.866 126.542 111.77C126.615 111.675 126.652 111.531 126.652 111.337C126.652 110.779 126.263 110.5 125.486 110.5C125.086 110.5 124.802 110.581 124.634 110.743C124.466 110.904 124.356 111.144 124.306 111.461H123.516C123.541 110.345 124.225 109.786 125.567 109.786C126.131 109.786 126.593 109.91 126.951 110.157C127.313 110.405 127.494 110.758 127.494 111.218V114.188C127.494 114.308 127.516 114.389 127.561 114.43C127.605 114.472 127.673 114.492 127.765 114.492C127.822 114.492 127.919 114.478 128.055 114.45V115.073C127.846 115.136 127.681 115.168 127.561 115.168C127.262 115.168 127.047 115.101 126.913 114.968C126.783 114.835 126.709 114.638 126.69 114.378C126.204 114.933 125.602 115.211 124.881 115.211C124.453 115.211 124.076 115.086 123.749 114.835C123.422 114.581 123.259 114.204 123.259 113.702ZM124.144 113.631C124.144 114.208 124.452 114.497 125.067 114.497C125.473 114.497 125.836 114.383 126.157 114.154C126.477 113.926 126.637 113.637 126.637 113.288V112.446C126.507 112.548 126.241 112.629 125.838 112.689C125.435 112.746 125.23 112.775 125.224 112.775C124.504 112.873 124.144 113.158 124.144 113.631ZM128.251 115.049L130.021 112.399L128.346 109.948H129.445L130.606 111.723L131.762 109.948H132.819L131.115 112.399L132.885 115.049H131.801L130.544 113.136L129.336 115.049H128.251ZM136.045 115.049V108.045H137.406L139.41 113.955L141.404 108.045H142.764V115.049H141.846V109.168L139.871 115.049H138.939L136.964 109.139V115.049H136.045ZM143.916 115.049V109.948H144.773V115.049H143.916ZM143.916 109.034V108.054H144.773V109.034H143.916ZM145.625 112.584C145.625 111.763 145.834 111.092 146.253 110.571C146.675 110.048 147.265 109.786 148.023 109.786C148.737 109.786 149.279 110.032 149.65 110.524C150.025 111.012 150.221 111.759 150.24 112.765H146.51C146.51 113.298 146.63 113.714 146.871 114.012C147.116 114.307 147.481 114.454 147.966 114.454C148.312 114.451 148.613 114.353 148.87 114.159C149.13 113.963 149.284 113.729 149.332 113.46H150.174C150.063 113.996 149.822 114.423 149.451 114.74C149.079 115.054 148.592 115.211 147.99 115.211C147.273 115.211 146.699 114.986 146.267 114.535C145.839 114.085 145.625 113.434 145.625 112.584ZM146.51 112.089H149.355C149.295 111.521 149.149 111.122 148.918 110.89C148.686 110.659 148.372 110.543 147.975 110.543C147.557 110.543 147.214 110.686 146.948 110.971C146.681 111.253 146.535 111.626 146.51 112.089ZM150.797 112.37C150.797 111.59 150.989 110.965 151.373 110.495C151.757 110.023 152.265 109.786 152.896 109.786C153.584 109.786 154.103 110.091 154.452 110.7V108.045H155.308V115.049H154.504V114.373C154.19 114.932 153.698 115.211 153.029 115.211C152.353 115.211 151.813 114.952 151.406 114.435C151 113.918 150.797 113.23 150.797 112.37ZM151.682 112.408C151.682 113.039 151.8 113.539 152.035 113.907C152.273 114.272 152.61 114.454 153.048 114.454C153.489 114.454 153.83 114.291 154.071 113.964C154.316 113.637 154.438 113.179 154.438 112.589C154.438 111.904 154.32 111.391 154.086 111.052C153.854 110.712 153.502 110.543 153.029 110.543C152.131 110.543 151.682 111.165 151.682 112.408ZM156.351 115.049V109.948H157.207V115.049H156.351ZM156.351 109.034V108.054H157.207V109.034H156.351ZM158.297 115.049V109.948H159.101V110.7C159.53 110.091 160.067 109.786 160.714 109.786C161.26 109.786 161.682 109.948 161.98 110.272C162.278 110.592 162.428 111.027 162.428 111.575V115.049H161.571V111.88C161.571 111.366 161.481 111.015 161.3 110.828C161.122 110.638 160.857 110.543 160.505 110.543C160.105 110.543 159.78 110.692 159.53 110.99C159.279 111.288 159.154 111.709 159.154 112.251V115.049H158.297ZM163.289 112.37C163.289 111.625 163.475 111.008 163.846 110.519C164.217 110.03 164.732 109.786 165.392 109.786C165.738 109.786 166.031 109.859 166.273 110.005C166.514 110.148 166.739 110.371 166.948 110.676V109.948H167.752V114.592C167.752 115.547 167.553 116.213 167.153 116.591C166.753 116.965 166.173 117.152 165.411 117.152C164.872 117.152 164.428 117.037 164.079 116.805C163.733 116.57 163.521 116.178 163.441 115.63H164.298C164.409 116.147 164.794 116.405 165.454 116.405C165.933 116.405 166.293 116.283 166.534 116.039C166.775 115.795 166.896 115.382 166.896 114.802V114.464C166.588 114.962 166.123 115.211 165.502 115.211C164.832 115.211 164.296 114.954 163.893 114.44C163.49 113.926 163.289 113.236 163.289 112.37ZM164.174 112.408C164.174 113.049 164.295 113.55 164.536 113.912C164.78 114.273 165.116 114.454 165.545 114.454C165.985 114.454 166.327 114.291 166.568 113.964C166.812 113.637 166.934 113.179 166.934 112.589C166.934 111.225 166.463 110.543 165.521 110.543C164.623 110.543 164.174 111.165 164.174 112.408ZM168.519 112.584C168.519 111.763 168.728 111.092 169.147 110.571C169.569 110.048 170.159 109.786 170.917 109.786C171.631 109.786 172.173 110.032 172.544 110.524C172.919 111.012 173.115 111.759 173.135 112.765H169.404C169.404 113.298 169.524 113.714 169.766 114.012C170.01 114.307 170.375 114.454 170.86 114.454C171.206 114.451 171.507 114.353 171.764 114.159C172.024 113.963 172.178 113.729 172.226 113.46H173.068C172.957 113.996 172.716 114.423 172.345 114.74C171.973 115.054 171.486 115.211 170.884 115.211C170.167 115.211 169.593 114.986 169.161 114.535C168.733 114.085 168.519 113.434 168.519 112.584ZM169.404 112.089H172.249C172.189 111.521 172.043 111.122 171.812 110.89C171.58 110.659 171.266 110.543 170.869 110.543C170.451 110.543 170.108 110.686 169.842 110.971C169.575 111.253 169.429 111.626 169.404 112.089ZM174.11 115.049V109.948H174.914V110.8C175.149 110.41 175.376 110.143 175.595 110C175.817 109.858 176.069 109.786 176.351 109.786C176.409 109.786 176.48 109.797 176.566 109.819V110.7H176.242C175.865 110.7 175.557 110.835 175.319 111.104C175.084 111.374 174.967 111.698 174.967 112.075V115.049H174.11Z" fill="#141414"/>
<line x1="197.959" y1="91.2278" x2="197.959" y2="44.125" stroke="#141414" stroke-width="1.08282"/>
<path d="M235.098 23.8H235.688C235.722 24.5149 236.161 24.8723 237.007 24.8723C237.394 24.8723 237.688 24.8067 237.889 24.6756C238.09 24.5424 238.191 24.3351 238.191 24.0538C238.191 23.874 238.135 23.7249 238.023 23.6065C237.913 23.486 237.639 23.3739 237.201 23.2702L236.237 23.0545C235.93 22.9784 235.689 22.8526 235.513 22.677C235.338 22.4994 235.25 22.253 235.25 21.9379C235.25 21.5085 235.393 21.1638 235.678 20.9037C235.966 20.6436 236.376 20.5135 236.909 20.5135C237.398 20.5135 237.803 20.6288 238.124 20.8593C238.448 21.0898 238.623 21.4652 238.651 21.9855H238.061C237.999 21.3721 237.613 21.0655 236.903 21.0655C236.592 21.0655 236.34 21.1332 236.148 21.2685C235.957 21.4039 235.862 21.6027 235.862 21.8649C235.862 22.0172 235.908 22.1441 235.999 22.2456C236.09 22.3471 236.262 22.4254 236.516 22.4803L237.743 22.7754C238.097 22.8536 238.361 22.9943 238.536 23.1973C238.714 23.3982 238.803 23.6721 238.803 24.0189C238.803 24.4736 238.636 24.8215 238.302 25.0626C237.968 25.3037 237.512 25.4243 236.934 25.4243C236.332 25.4243 235.875 25.2773 235.564 24.9833C235.253 24.6893 235.098 24.2949 235.098 23.8ZM239.228 24.4059C239.228 23.7947 239.57 23.4447 240.253 23.3559L241.144 23.2385C241.28 23.2216 241.371 23.1814 241.417 23.118C241.466 23.0545 241.49 22.9583 241.49 22.8293C241.49 22.4571 241.231 22.271 240.713 22.271C240.446 22.271 240.257 22.3249 240.145 22.4328C240.033 22.5406 239.96 22.7003 239.926 22.9118H239.399C239.416 22.1673 239.872 21.7951 240.767 21.7951C241.143 21.7951 241.451 21.8776 241.69 22.0426C241.931 22.2075 242.052 22.4433 242.052 22.75V24.7295C242.052 24.8099 242.066 24.8638 242.096 24.8913C242.126 24.9188 242.171 24.9325 242.232 24.9325C242.27 24.9325 242.335 24.923 242.426 24.904V25.3196C242.286 25.3619 242.176 25.383 242.096 25.383C241.897 25.383 241.753 25.3386 241.664 25.2498C241.578 25.161 241.528 25.0298 241.515 24.8564C241.192 25.2265 240.79 25.4116 240.31 25.4116C240.024 25.4116 239.773 25.328 239.555 25.161C239.337 24.9918 239.228 24.7401 239.228 24.4059ZM239.818 24.3584C239.818 24.7433 240.023 24.9357 240.434 24.9357C240.704 24.9357 240.946 24.8596 241.16 24.7073C241.374 24.555 241.48 24.3626 241.48 24.1299V23.5684C241.394 23.6361 241.216 23.6901 240.948 23.7302C240.679 23.7683 240.543 23.7873 240.538 23.7873C240.058 23.8529 239.818 24.0432 239.818 24.3584ZM242.902 25.3037V21.903H243.438V22.4042C243.723 21.9981 244.082 21.7951 244.513 21.7951C244.877 21.7951 245.158 21.903 245.357 22.1187C245.556 22.3323 245.655 22.622 245.655 22.9879V25.3037H245.084V23.1909C245.084 22.8483 245.024 22.6146 244.904 22.4899C244.785 22.363 244.609 22.2995 244.374 22.2995C244.107 22.2995 243.891 22.3989 243.723 22.5977C243.556 22.7965 243.473 23.0767 243.473 23.4384V25.3037H242.902ZM246.166 24.2442H246.728C246.745 24.6862 247.038 24.9072 247.607 24.9072C247.854 24.9072 248.049 24.8596 248.19 24.7644C248.334 24.6671 248.406 24.5328 248.406 24.3615C248.406 24.2389 248.358 24.1416 248.263 24.0697C248.168 24.0041 247.99 23.9386 247.73 23.873L247.064 23.708C246.537 23.5811 246.274 23.3009 246.274 22.8674C246.274 22.5565 246.386 22.3006 246.61 22.0997C246.837 21.8966 247.159 21.7951 247.578 21.7951C247.944 21.7951 248.242 21.8829 248.473 22.0584C248.703 22.234 248.832 22.5015 248.86 22.861H248.298C248.271 22.4867 248.014 22.2995 247.527 22.2995C247.066 22.2995 246.836 22.4613 246.836 22.7849C246.836 22.9266 246.89 23.026 246.997 23.0831C247.105 23.1381 247.257 23.1888 247.451 23.2354L248.016 23.3781C248.36 23.4669 248.605 23.578 248.749 23.7112C248.894 23.8508 248.967 24.0411 248.967 24.2822C248.967 24.6164 248.848 24.8881 248.609 25.0975C248.372 25.3069 248.028 25.4116 247.578 25.4116C247.161 25.4116 246.827 25.3238 246.576 25.1483C246.324 24.9727 246.187 24.6714 246.166 24.2442ZM251.071 23.8H251.661C251.695 24.5149 252.135 24.8723 252.981 24.8723C253.368 24.8723 253.662 24.8067 253.863 24.6756C254.064 24.5424 254.164 24.3351 254.164 24.0538C254.164 23.874 254.108 23.7249 253.996 23.6065C253.886 23.486 253.612 23.3739 253.174 23.2702L252.21 23.0545C251.903 22.9784 251.662 22.8526 251.487 22.677C251.311 22.4994 251.223 22.253 251.223 21.9379C251.223 21.5085 251.366 21.1638 251.651 20.9037C251.939 20.6436 252.349 20.5135 252.882 20.5135C253.371 20.5135 253.776 20.6288 254.097 20.8593C254.421 21.0898 254.596 21.4652 254.624 21.9855H254.034C253.973 21.3721 253.587 21.0655 252.876 21.0655C252.565 21.0655 252.313 21.1332 252.121 21.2685C251.931 21.4039 251.835 21.6027 251.835 21.8649C251.835 22.0172 251.881 22.1441 251.972 22.2456C252.063 22.3471 252.235 22.4254 252.489 22.4803L253.717 22.7754C254.07 22.8536 254.334 22.9943 254.51 23.1973C254.687 23.3982 254.776 23.6721 254.776 24.0189C254.776 24.4736 254.609 24.8215 254.275 25.0626C253.941 25.3037 253.485 25.4243 252.908 25.4243C252.305 25.4243 251.848 25.2773 251.537 24.9833C251.226 24.6893 251.071 24.2949 251.071 23.8ZM255.23 23.6604C255.23 23.1127 255.37 22.6654 255.649 22.3185C255.93 21.9696 256.323 21.7951 256.829 21.7951C257.305 21.7951 257.666 21.959 257.914 22.2868C258.163 22.6125 258.294 23.1106 258.307 23.781H255.82C255.82 24.1363 255.9 24.4133 256.061 24.6121C256.224 24.8088 256.467 24.9072 256.791 24.9072C257.021 24.9051 257.222 24.8395 257.394 24.7105C257.567 24.5794 257.67 24.4239 257.701 24.2442H258.263C258.189 24.6016 258.028 24.886 257.781 25.0975C257.533 25.3069 257.208 25.4116 256.807 25.4116C256.329 25.4116 255.946 25.2614 255.658 24.9611C255.373 24.6608 255.23 24.2272 255.23 23.6604ZM255.82 23.3305H257.717C257.677 22.952 257.58 22.6855 257.425 22.5311C257.271 22.3767 257.062 22.2995 256.797 22.2995C256.518 22.2995 256.29 22.3947 256.112 22.585C255.934 22.7732 255.837 23.0217 255.82 23.3305ZM258.958 25.3037V21.903H259.494V22.4708C259.65 22.2107 259.801 22.033 259.947 21.9379C260.095 21.8427 260.264 21.7951 260.452 21.7951C260.49 21.7951 260.537 21.8025 260.595 21.8173V22.4042H260.379C260.127 22.4042 259.922 22.4941 259.763 22.6738C259.607 22.8536 259.529 23.0693 259.529 23.321V25.3037H258.958ZM260.928 25.3037V21.903H261.499V25.3037H260.928ZM260.928 21.2939V20.6404H261.499V21.2939H260.928ZM261.908 22.3788V21.903H262.365V21.351C262.365 21.0739 262.44 20.8741 262.59 20.7514C262.742 20.6288 262.957 20.5674 263.234 20.5674H263.339C263.362 20.5674 263.414 20.5717 263.494 20.5801V21.0877C263.367 21.0771 263.294 21.0718 263.275 21.0718C263.159 21.0718 263.073 21.1057 263.018 21.1733C262.963 21.2389 262.936 21.3394 262.936 21.4747V21.903H263.494V22.3788H262.936V25.3037H262.365V22.3788H261.908Z" fill="#141414"/>
<path d="M233.615 55.959L230.046 64.5522H228.279L238.709 39.604H239.679L250.144 64.5522H248.272L244.704 55.959H233.615ZM239.09 42.3761C239.067 42.3992 239.021 42.5378 238.952 42.7919C238.628 43.7852 238.316 44.6283 238.016 45.3213L234.204 54.5383H244.114L240.303 45.356C239.494 43.6004 239.09 42.6071 239.09 42.3761ZM255.275 56.7559L252.052 64.5522H250.424L259.849 41.9256H260.784L270.278 64.5522H268.511L265.254 56.7559H255.275ZM260.23 44.4897C259.883 45.5292 259.571 46.3955 259.294 47.0885L255.829 55.4046H264.7L261.269 47.1231C260.738 45.8295 260.392 44.9517 260.23 44.4897Z" fill="#141414"/>
<path d="M238.779 83.5522V78.8826H240.933C241.443 78.8826 241.824 78.9873 242.075 79.1966C242.329 79.4039 242.456 79.7254 242.456 80.161C242.456 80.6686 242.239 81.0387 241.806 81.2713C241.996 81.3475 242.134 81.449 242.218 81.5759C242.303 81.7028 242.35 81.9174 242.361 82.2199L242.396 82.9812C242.4 83.0658 242.412 83.1504 242.431 83.235C242.45 83.3175 242.517 83.3883 242.634 83.4476V83.5522H241.856C241.785 83.2456 241.749 82.8818 241.749 82.461C241.749 82.1226 241.686 81.8878 241.561 81.7567C241.437 81.6235 241.225 81.5569 240.927 81.5569H239.411V83.5522H238.779ZM239.411 81.0302H240.86C241.491 81.0302 241.806 80.7585 241.806 80.215C241.806 79.9464 241.734 79.7497 241.59 79.6249C241.448 79.498 241.243 79.4346 240.975 79.4346H239.411V81.0302ZM243.034 81.909C243.034 81.3612 243.173 80.9139 243.452 80.5671C243.734 80.2181 244.127 80.0436 244.632 80.0436C245.108 80.0436 245.47 80.2076 245.717 80.5354C245.967 80.8611 246.098 81.3591 246.111 82.0295H243.624C243.624 82.3848 243.704 82.6619 243.865 82.8607C244.028 83.0574 244.271 83.1557 244.594 83.1557C244.825 83.1536 245.026 83.088 245.197 82.959C245.37 82.8279 245.473 82.6725 245.505 82.4927H246.066C245.992 82.8501 245.832 83.1346 245.584 83.346C245.337 83.5554 245.012 83.6601 244.61 83.6601C244.132 83.6601 243.749 83.5099 243.462 83.2096C243.176 82.9093 243.034 82.4758 243.034 81.909ZM243.624 81.5791H245.521C245.48 81.2005 245.383 80.934 245.229 80.7796C245.074 80.6252 244.865 80.548 244.601 80.548C244.322 80.548 244.093 80.6432 243.915 80.8336C243.738 81.0218 243.641 81.2703 243.624 81.5791ZM246.52 81.7662C246.52 81.2692 246.644 80.8579 246.891 80.5322C247.139 80.2065 247.482 80.0436 247.922 80.0436C248.153 80.0436 248.348 80.0923 248.509 80.1896C248.67 80.2847 248.82 80.4338 248.96 80.6369V80.1515H249.496V83.2477C249.496 83.8843 249.362 84.3284 249.096 84.5801C248.83 84.8296 248.442 84.9544 247.935 84.9544C247.575 84.9544 247.279 84.8772 247.047 84.7228C246.816 84.5663 246.674 84.3051 246.622 83.9393H247.193C247.267 84.284 247.524 84.4564 247.963 84.4564C248.283 84.4564 248.523 84.3749 248.684 84.2121C248.844 84.0492 248.925 83.7743 248.925 83.3873V83.162C248.72 83.4941 248.41 83.6601 247.995 83.6601C247.549 83.6601 247.192 83.4888 246.923 83.1462C246.654 82.8036 246.52 82.3436 246.52 81.7662ZM247.11 81.7916C247.11 82.2188 247.19 82.553 247.351 82.7941C247.514 83.0352 247.738 83.1557 248.024 83.1557C248.318 83.1557 248.545 83.0468 248.706 82.829C248.869 82.6111 248.95 82.3055 248.95 81.9122C248.95 81.0028 248.636 80.548 248.008 80.548C247.409 80.548 247.11 80.9626 247.11 81.7916ZM250.184 82.6037V80.1515H250.755V82.4039C250.755 82.9051 250.982 83.1557 251.434 83.1557C251.701 83.1557 251.923 83.0616 252.1 82.8734C252.278 82.6851 252.367 82.4039 252.367 82.0295V80.1515H252.938V83.5522H252.402V83.051C252.319 83.2033 252.195 83.3418 252.031 83.4666C251.866 83.5914 251.629 83.6559 251.32 83.6601C250.973 83.6601 250.697 83.5713 250.492 83.3936C250.287 83.2139 250.184 82.9506 250.184 82.6037ZM253.671 83.5522V78.8826H254.242V83.5522H253.671ZM254.781 82.6545C254.781 82.0433 255.123 81.6933 255.806 81.6044L256.697 81.4871C256.833 81.4701 256.924 81.43 256.97 81.3665C257.019 81.3031 257.043 81.2068 257.043 81.0778C257.043 80.7056 256.784 80.5195 256.266 80.5195C255.999 80.5195 255.81 80.5734 255.698 80.6813C255.586 80.7891 255.513 80.9488 255.479 81.1603H254.952C254.969 80.4159 255.425 80.0436 256.32 80.0436C256.696 80.0436 257.004 80.1261 257.243 80.2911C257.484 80.4561 257.605 80.6919 257.605 80.9985V82.9781C257.605 83.0584 257.619 83.1123 257.649 83.1398C257.679 83.1673 257.724 83.1811 257.785 83.1811C257.823 83.1811 257.888 83.1716 257.979 83.1525V83.5681C257.839 83.6104 257.729 83.6316 257.649 83.6316C257.45 83.6316 257.306 83.5871 257.218 83.4983C257.131 83.4095 257.081 83.2784 257.068 83.1049C256.745 83.4751 256.343 83.6601 255.863 83.6601C255.577 83.6601 255.326 83.5766 255.108 83.4095C254.89 83.2403 254.781 82.9886 254.781 82.6545ZM255.371 82.6069C255.371 82.9918 255.576 83.1843 255.987 83.1843C256.257 83.1843 256.5 83.1081 256.713 82.9558C256.927 82.8036 257.034 82.6111 257.034 82.3785V81.817C256.947 81.8847 256.769 81.9386 256.501 81.9788C256.232 82.0168 256.096 82.0359 256.091 82.0359C255.611 82.1014 255.371 82.2918 255.371 82.6069ZM258.537 83.5522V80.1515H259.073V80.7194C259.23 80.4592 259.381 80.2816 259.527 80.1864C259.675 80.0912 259.843 80.0436 260.032 80.0436C260.07 80.0436 260.117 80.0511 260.174 80.0659V80.6527H259.959C259.707 80.6527 259.502 80.7426 259.343 80.9224C259.187 81.1021 259.108 81.3179 259.108 81.5695V83.5522H258.537Z" fill="#141414"/>
<path d="M218.899 97.3085V96.6703H219.735V97.1287C219.735 97.5182 219.82 97.7924 219.991 97.9511C220.162 98.1099 220.413 98.1893 220.746 98.1893C221.441 98.1893 221.789 97.8058 221.789 97.0388V92.1852H222.683V97.0119C222.683 97.6411 222.517 98.1249 222.184 98.4635C221.854 98.802 221.375 98.9713 220.746 98.9713C220.21 98.9713 219.768 98.8305 219.42 98.5489C219.073 98.2672 218.899 97.8538 218.899 97.3085ZM223.784 97.4568V93.9828H224.593V97.1737C224.593 97.8837 224.914 98.2388 225.555 98.2388C225.932 98.2388 226.247 98.1054 226.499 97.8388C226.75 97.5721 226.876 97.1737 226.876 96.6434V93.9828H227.685V98.8005H226.925V98.0905C226.809 98.3062 226.633 98.5024 226.4 98.6792C226.166 98.856 225.83 98.9473 225.393 98.9533C224.902 98.9533 224.511 98.8275 224.22 98.5758C223.929 98.3212 223.784 97.9481 223.784 97.4568ZM228.723 98.8005V92.1852H229.532V98.8005H228.723ZM230.589 98.8005V93.9828H231.398V98.8005H230.589ZM230.589 93.12V92.1942H231.398V93.12H230.589ZM232.454 97.4568V93.9828H233.263V97.1737C233.263 97.8837 233.583 98.2388 234.224 98.2388C234.602 98.2388 234.917 98.1054 235.168 97.8388C235.42 97.5721 235.546 97.1737 235.546 96.6434V93.9828H236.355V98.8005H235.595V98.0905C235.478 98.3062 235.303 98.5024 235.069 98.6792C234.836 98.856 234.5 98.9473 234.063 98.9533C233.571 98.9533 233.18 98.8275 232.89 98.5758C232.599 98.3212 232.454 97.9481 232.454 97.4568ZM237.051 97.2995H237.847C237.871 97.9257 238.286 98.2388 239.092 98.2388C239.442 98.2388 239.718 98.1714 239.919 98.0365C240.122 97.8987 240.224 97.7085 240.224 97.4658C240.224 97.292 240.157 97.1542 240.022 97.0523C239.887 96.9594 239.636 96.8666 239.267 96.7737L238.323 96.54C237.577 96.3602 237.204 95.9632 237.204 95.349C237.204 94.9086 237.363 94.5461 237.681 94.2615C238.001 93.9738 238.458 93.83 239.051 93.83C239.57 93.83 239.992 93.9544 240.319 94.203C240.645 94.4517 240.828 94.8307 240.867 95.3401H240.072C240.033 94.8097 239.669 94.5446 238.979 94.5446C238.326 94.5446 238 94.7738 238 95.2322C238 95.4329 238.076 95.5737 238.229 95.6546C238.382 95.7325 238.596 95.8044 238.872 95.8704L239.672 96.0726C240.16 96.1984 240.506 96.3557 240.71 96.5445C240.916 96.7422 241.02 97.0119 241.02 97.3534C241.02 97.8268 240.851 98.2118 240.512 98.5084C240.176 98.805 239.69 98.9533 239.051 98.9533C238.461 98.9533 237.988 98.829 237.631 98.5803C237.275 98.3316 237.081 97.9047 237.051 97.2995ZM243.847 97.2995H244.642C244.666 97.9257 245.081 98.2388 245.887 98.2388C246.238 98.2388 246.513 98.1714 246.714 98.0365C246.918 97.8987 247.02 97.7085 247.02 97.4658C247.02 97.292 246.952 97.1542 246.818 97.0523C246.683 96.9594 246.431 96.8666 246.063 96.7737L245.119 96.54C244.373 96.3602 244 95.9632 244 95.349C244 94.9086 244.159 94.5461 244.476 94.2615C244.797 93.9738 245.254 93.83 245.847 93.83C246.365 93.83 246.788 93.9544 247.114 94.203C247.441 94.4517 247.624 94.8307 247.662 95.3401H246.867C246.828 94.8097 246.464 94.5446 245.775 94.5446C245.122 94.5446 244.795 94.7738 244.795 95.2322C244.795 95.4329 244.872 95.5737 245.024 95.6546C245.177 95.7325 245.391 95.8044 245.667 95.8704L246.467 96.0726C246.955 96.1984 247.301 96.3557 247.505 96.5445C247.712 96.7422 247.815 97.0119 247.815 97.3534C247.815 97.8268 247.646 98.2118 247.307 98.5084C246.972 98.805 246.485 98.9533 245.847 98.9533C245.257 98.9533 244.783 98.829 244.427 98.5803C244.07 98.3316 243.877 97.9047 243.847 97.2995ZM248.314 97.5287C248.314 96.6628 248.798 96.167 249.766 96.0411L251.029 95.8749C251.221 95.8509 251.349 95.794 251.415 95.7041C251.484 95.6142 251.519 95.4779 251.519 95.2951C251.519 94.7678 251.152 94.5041 250.418 94.5041C250.04 94.5041 249.772 94.5805 249.613 94.7333C249.454 94.8861 249.351 95.1124 249.303 95.412H248.557C248.581 94.3573 249.227 93.83 250.494 93.83C251.027 93.83 251.463 93.9469 251.802 94.1806C252.143 94.4143 252.314 94.7483 252.314 95.1828V97.9871C252.314 98.101 252.335 98.1774 252.377 98.2163C252.419 98.2552 252.483 98.2747 252.57 98.2747C252.624 98.2747 252.716 98.2612 252.844 98.2343V98.823C252.647 98.8829 252.491 98.9129 252.377 98.9129C252.095 98.9129 251.892 98.85 251.766 98.7241C251.643 98.5983 251.573 98.4125 251.555 98.1669C251.096 98.6912 250.527 98.9533 249.847 98.9533C249.442 98.9533 249.086 98.835 248.777 98.5983C248.469 98.3586 248.314 98.0021 248.314 97.5287ZM249.15 97.4613C249.15 98.0066 249.441 98.2792 250.022 98.2792C250.406 98.2792 250.749 98.1714 251.051 97.9556C251.354 97.7399 251.505 97.4673 251.505 97.1377V96.3422C251.382 96.4381 251.131 96.5145 250.75 96.5714C250.37 96.6254 250.176 96.6523 250.17 96.6523C249.49 96.7452 249.15 97.0149 249.15 97.4613ZM253.519 98.8005V93.9828H254.278V94.6929C254.683 94.1176 255.191 93.83 255.802 93.83C256.317 93.83 256.716 93.9828 256.997 94.2884C257.279 94.591 257.42 95.0015 257.42 95.5198V98.8005H256.611V95.8074C256.611 95.3221 256.525 94.991 256.355 94.8142C256.187 94.6345 255.937 94.5446 255.604 94.5446C255.226 94.5446 254.919 94.6854 254.683 94.967C254.446 95.2487 254.328 95.6457 254.328 96.158V98.8005H253.519ZM258.143 97.2995H258.939C258.963 97.9257 259.378 98.2388 260.184 98.2388C260.534 98.2388 260.81 98.1714 261.011 98.0365C261.214 97.8987 261.316 97.7085 261.316 97.4658C261.316 97.292 261.249 97.1542 261.114 97.0523C260.979 96.9594 260.727 96.8666 260.359 96.7737L259.415 96.54C258.669 96.3602 258.296 95.9632 258.296 95.349C258.296 94.9086 258.455 94.5461 258.773 94.2615C259.093 93.9738 259.55 93.83 260.143 93.83C260.662 93.83 261.084 93.9544 261.411 94.203C261.737 94.4517 261.92 94.8307 261.959 95.3401H261.163C261.124 94.8097 260.76 94.5446 260.071 94.5446C259.418 94.5446 259.092 94.7738 259.092 95.2322C259.092 95.4329 259.168 95.5737 259.321 95.6546C259.474 95.7325 259.688 95.8044 259.963 95.8704L260.763 96.0726C261.252 96.1984 261.598 96.3557 261.802 96.5445C262.008 96.7422 262.112 97.0119 262.112 97.3534C262.112 97.8268 261.942 98.2118 261.604 98.5084C261.268 98.805 260.781 98.9533 260.143 98.9533C259.553 98.9533 259.08 98.829 258.723 98.5803C258.367 98.3316 258.173 97.9047 258.143 97.2995ZM264.975 96.4097C264.975 95.6457 265.18 95.0255 265.59 94.5491C266.001 94.0697 266.546 93.83 267.226 93.83C267.883 93.83 268.422 94.0622 268.844 94.5266C269.267 94.991 269.478 95.6127 269.478 96.3917C269.478 97.1257 269.274 97.7369 268.867 98.2253C268.459 98.7107 267.918 98.9533 267.244 98.9533C266.582 98.9533 266.038 98.7196 265.613 98.2523C265.188 97.7819 264.975 97.1677 264.975 96.4097ZM265.811 96.3917C265.811 96.916 265.932 97.3549 266.175 97.7085C266.42 98.062 266.771 98.2388 267.226 98.2388C267.622 98.2388 267.956 98.0845 268.229 97.7759C268.504 97.4643 268.642 97.0029 268.642 96.3917C268.642 95.8674 268.522 95.4284 268.282 95.0749C268.043 94.7214 267.691 94.5446 267.226 94.5446C266.807 94.5446 266.465 94.7034 266.202 95.021C265.941 95.3386 265.811 95.7955 265.811 96.3917ZM270.193 98.8005V93.9828H270.952V94.6929C271.357 94.1176 271.864 93.83 272.476 93.83C272.991 93.83 273.389 93.9828 273.671 94.2884C273.953 94.591 274.094 95.0015 274.094 95.5198V98.8005H273.285V95.8074C273.285 95.3221 273.199 94.991 273.028 94.8142C272.861 94.6345 272.611 94.5446 272.278 94.5446C271.9 94.5446 271.593 94.6854 271.357 94.967C271.12 95.2487 271.002 95.6457 271.002 96.158V98.8005H270.193ZM274.907 96.4726C274.907 95.6966 275.105 95.0629 275.5 94.5716C275.899 94.0772 276.456 93.83 277.172 93.83C277.846 93.83 278.359 94.0622 278.709 94.5266C279.063 94.988 279.249 95.6936 279.267 96.6434H275.743C275.743 97.1467 275.857 97.5392 276.085 97.8208C276.315 98.0995 276.66 98.2388 277.118 98.2388C277.445 98.2358 277.73 98.1429 277.972 97.9601C278.218 97.7744 278.363 97.5542 278.408 97.2995H279.204C279.099 97.8058 278.871 98.2088 278.52 98.5084C278.17 98.805 277.71 98.9533 277.141 98.9533C276.464 98.9533 275.921 98.7406 275.514 98.3152C275.109 97.8897 274.907 97.2755 274.907 96.4726ZM275.743 96.0052H278.431C278.374 95.4689 278.236 95.0914 278.017 94.8727C277.798 94.6539 277.502 94.5446 277.127 94.5446C276.732 94.5446 276.408 94.6794 276.157 94.9491C275.905 95.2157 275.767 95.5678 275.743 96.0052Z" fill="#141414"/>
<path d="M212.947 111.846H213.861C213.813 112.284 213.688 112.675 213.485 113.021C213.282 113.367 212.995 113.641 212.624 113.844C212.253 114.044 211.789 114.144 211.234 114.144C210.828 114.144 210.459 114.068 210.126 113.916C209.796 113.764 209.512 113.548 209.274 113.269C209.036 112.986 208.852 112.648 208.722 112.255C208.595 111.859 208.531 111.418 208.531 110.932V110.242C208.531 109.757 208.595 109.318 208.722 108.924C208.852 108.528 209.037 108.188 209.278 107.906C209.523 107.624 209.816 107.406 210.159 107.254C210.501 107.102 210.887 107.026 211.315 107.026C211.839 107.026 212.281 107.124 212.643 107.321C213.004 107.517 213.285 107.79 213.485 108.139C213.688 108.485 213.813 108.886 213.861 109.343H212.947C212.903 109.019 212.82 108.742 212.7 108.51C212.579 108.275 212.408 108.095 212.186 107.968C211.964 107.841 211.674 107.777 211.315 107.777C211.007 107.777 210.736 107.836 210.501 107.953C210.27 108.071 210.075 108.237 209.916 108.453C209.761 108.669 209.643 108.927 209.564 109.229C209.485 109.53 209.445 109.865 209.445 110.233V110.932C209.445 111.272 209.48 111.591 209.55 111.889C209.623 112.187 209.732 112.449 209.878 112.674C210.024 112.899 210.21 113.077 210.435 113.207C210.66 113.334 210.927 113.397 211.234 113.397C211.624 113.397 211.935 113.335 212.167 113.212C212.398 113.088 212.573 112.91 212.69 112.679C212.811 112.447 212.897 112.169 212.947 111.846ZM215.665 106.74V114.049H214.784V106.74H215.665ZM215.455 111.28L215.089 111.265C215.092 110.913 215.144 110.588 215.246 110.29C215.347 109.988 215.49 109.727 215.674 109.505C215.858 109.283 216.077 109.111 216.331 108.991C216.588 108.867 216.872 108.805 217.183 108.805C217.436 108.805 217.665 108.84 217.868 108.91C218.071 108.977 218.244 109.084 218.386 109.233C218.532 109.383 218.643 109.576 218.72 109.814C218.796 110.049 218.834 110.336 218.834 110.675V114.049H217.949V110.666C217.949 110.396 217.909 110.18 217.83 110.019C217.75 109.854 217.635 109.735 217.482 109.662C217.33 109.586 217.143 109.548 216.921 109.548C216.702 109.548 216.502 109.594 216.321 109.686C216.144 109.778 215.99 109.904 215.86 110.066C215.733 110.228 215.633 110.414 215.56 110.623C215.49 110.829 215.455 111.048 215.455 111.28ZM220.837 109.709V114.049H219.957V108.9H220.813L220.837 109.709ZM222.446 108.872L222.441 109.69C222.368 109.674 222.298 109.665 222.231 109.662C222.168 109.655 222.095 109.652 222.013 109.652C221.81 109.652 221.63 109.684 221.475 109.747C221.319 109.811 221.188 109.9 221.08 110.014C220.972 110.128 220.886 110.264 220.823 110.423C220.763 110.579 220.723 110.75 220.704 110.937L220.457 111.08C220.457 110.769 220.487 110.477 220.547 110.204C220.61 109.931 220.707 109.69 220.837 109.481C220.967 109.268 221.132 109.103 221.332 108.986C221.535 108.865 221.776 108.805 222.055 108.805C222.119 108.805 222.192 108.813 222.274 108.829C222.357 108.842 222.414 108.856 222.446 108.872ZM224.021 108.9V114.049H223.136V108.9H224.021ZM223.069 107.535C223.069 107.392 223.112 107.271 223.198 107.173C223.286 107.075 223.417 107.026 223.588 107.026C223.756 107.026 223.884 107.075 223.973 107.173C224.065 107.271 224.111 107.392 224.111 107.535C224.111 107.671 224.065 107.788 223.973 107.887C223.884 107.982 223.756 108.03 223.588 108.03C223.417 108.03 223.286 107.982 223.198 107.887C223.112 107.788 223.069 107.671 223.069 107.535ZM228.237 112.683C228.237 112.556 228.209 112.439 228.151 112.331C228.098 112.22 227.985 112.12 227.814 112.031C227.645 111.939 227.392 111.86 227.052 111.794C226.767 111.733 226.508 111.662 226.277 111.579C226.048 111.497 225.853 111.397 225.691 111.28C225.533 111.162 225.411 111.024 225.325 110.866C225.239 110.707 225.196 110.521 225.196 110.309C225.196 110.106 225.241 109.914 225.33 109.733C225.422 109.552 225.55 109.392 225.715 109.253C225.883 109.113 226.085 109.003 226.319 108.924C226.554 108.845 226.816 108.805 227.105 108.805C227.517 108.805 227.869 108.878 228.161 109.024C228.453 109.17 228.676 109.365 228.832 109.609C228.987 109.85 229.065 110.119 229.065 110.414H228.185C228.185 110.271 228.142 110.133 228.056 110C227.974 109.863 227.852 109.751 227.69 109.662C227.531 109.573 227.336 109.529 227.105 109.529C226.86 109.529 226.662 109.567 226.51 109.643C226.361 109.716 226.251 109.809 226.181 109.923C226.115 110.038 226.082 110.158 226.082 110.285C226.082 110.38 226.097 110.466 226.129 110.542C226.164 110.615 226.224 110.683 226.31 110.747C226.396 110.807 226.516 110.864 226.672 110.918C226.827 110.972 227.025 111.026 227.266 111.08C227.688 111.175 228.036 111.289 228.308 111.422C228.581 111.556 228.784 111.719 228.918 111.913C229.051 112.106 229.117 112.341 229.117 112.617C229.117 112.842 229.07 113.048 228.975 113.235C228.883 113.423 228.748 113.584 228.57 113.721C228.396 113.854 228.186 113.959 227.942 114.035C227.701 114.108 227.43 114.144 227.128 114.144C226.675 114.144 226.291 114.063 225.977 113.902C225.663 113.74 225.425 113.53 225.263 113.273C225.101 113.016 225.02 112.745 225.02 112.46H225.905C225.918 112.701 225.988 112.893 226.115 113.036C226.242 113.175 226.397 113.275 226.581 113.335C226.765 113.392 226.948 113.421 227.128 113.421C227.369 113.421 227.571 113.389 227.733 113.326C227.898 113.262 228.023 113.175 228.109 113.064C228.194 112.953 228.237 112.826 228.237 112.683ZM232.234 108.9V109.576H229.451V108.9H232.234ZM230.393 107.649H231.273V112.774C231.273 112.948 231.3 113.08 231.354 113.169C231.408 113.258 231.478 113.316 231.563 113.345C231.649 113.373 231.741 113.388 231.839 113.388C231.912 113.388 231.989 113.381 232.068 113.369C232.15 113.353 232.212 113.34 232.253 113.331L232.258 114.049C232.188 114.071 232.096 114.092 231.982 114.111C231.871 114.133 231.736 114.144 231.578 114.144C231.362 114.144 231.164 114.101 230.983 114.016C230.802 113.93 230.658 113.787 230.55 113.587C230.445 113.384 230.393 113.112 230.393 112.769V107.649ZM234.029 108.9V114.049H233.143V108.9H234.029ZM233.077 107.535C233.077 107.392 233.12 107.271 233.205 107.173C233.294 107.075 233.424 107.026 233.596 107.026C233.764 107.026 233.892 107.075 233.981 107.173C234.073 107.271 234.119 107.392 234.119 107.535C234.119 107.671 234.073 107.788 233.981 107.887C233.892 107.982 233.764 108.03 233.596 108.03C233.424 108.03 233.294 107.982 233.205 107.887C233.12 107.788 233.077 107.671 233.077 107.535ZM238.283 113.169V110.518C238.283 110.315 238.242 110.139 238.159 109.99C238.08 109.838 237.959 109.72 237.797 109.638C237.636 109.555 237.436 109.514 237.198 109.514C236.976 109.514 236.781 109.552 236.613 109.628C236.448 109.705 236.318 109.804 236.222 109.928C236.13 110.052 236.084 110.185 236.084 110.328H235.204C235.204 110.144 235.252 109.962 235.347 109.781C235.442 109.6 235.578 109.437 235.756 109.291C235.937 109.141 236.153 109.024 236.403 108.938C236.657 108.85 236.939 108.805 237.25 108.805C237.625 108.805 237.955 108.869 238.24 108.996C238.529 109.122 238.754 109.314 238.916 109.571C239.081 109.825 239.163 110.144 239.163 110.528V112.926C239.163 113.097 239.177 113.28 239.206 113.473C239.238 113.667 239.284 113.833 239.344 113.973V114.049H238.426C238.381 113.948 238.346 113.813 238.321 113.645C238.296 113.473 238.283 113.315 238.283 113.169ZM238.435 110.927L238.445 111.546H237.555C237.304 111.546 237.081 111.567 236.884 111.608C236.687 111.646 236.522 111.705 236.389 111.784C236.256 111.863 236.154 111.963 236.084 112.084C236.015 112.201 235.98 112.339 235.98 112.498C235.98 112.66 236.016 112.807 236.089 112.94C236.162 113.074 236.272 113.18 236.418 113.259C236.567 113.335 236.749 113.373 236.965 113.373C237.234 113.373 237.472 113.316 237.679 113.202C237.885 113.088 238.048 112.948 238.169 112.783C238.292 112.618 238.359 112.458 238.369 112.303L238.744 112.726C238.722 112.859 238.662 113.007 238.564 113.169C238.465 113.331 238.334 113.486 238.169 113.635C238.007 113.781 237.813 113.903 237.588 114.001C237.366 114.097 237.115 114.144 236.836 114.144C236.487 114.144 236.181 114.076 235.918 113.94C235.658 113.803 235.455 113.621 235.309 113.392C235.166 113.161 235.095 112.902 235.095 112.617C235.095 112.341 235.149 112.098 235.256 111.889C235.364 111.676 235.52 111.5 235.723 111.361C235.926 111.218 236.17 111.11 236.456 111.037C236.741 110.964 237.06 110.927 237.412 110.927H238.435ZM241.233 110V114.049H240.353V108.9H241.186L241.233 110ZM241.024 111.28L240.658 111.265C240.661 110.913 240.713 110.588 240.815 110.29C240.916 109.988 241.059 109.727 241.243 109.505C241.427 109.283 241.646 109.111 241.9 108.991C242.156 108.867 242.44 108.805 242.751 108.805C243.005 108.805 243.233 108.84 243.436 108.91C243.64 108.977 243.812 109.084 243.955 109.233C244.101 109.383 244.212 109.576 244.288 109.814C244.364 110.049 244.402 110.336 244.402 110.675V114.049H243.517V110.666C243.517 110.396 243.478 110.18 243.398 110.019C243.319 109.854 243.203 109.735 243.051 109.662C242.899 109.586 242.712 109.548 242.49 109.548C242.271 109.548 242.071 109.594 241.89 109.686C241.712 109.778 241.558 109.904 241.428 110.066C241.302 110.228 241.202 110.414 241.129 110.623C241.059 110.829 241.024 111.048 241.024 111.28ZM247.9 107.121H250.194C250.714 107.121 251.154 107.2 251.512 107.359C251.874 107.517 252.148 107.752 252.335 108.063C252.526 108.371 252.621 108.75 252.621 109.2C252.621 109.517 252.556 109.808 252.426 110.071C252.299 110.331 252.115 110.553 251.874 110.737C251.636 110.918 251.35 111.053 251.017 111.142L250.76 111.242H248.605L248.595 110.494H250.222C250.552 110.494 250.827 110.437 251.046 110.323C251.265 110.206 251.43 110.049 251.541 109.852C251.652 109.655 251.707 109.438 251.707 109.2C251.707 108.934 251.655 108.701 251.55 108.501C251.445 108.301 251.28 108.147 251.055 108.039C250.833 107.928 250.546 107.873 250.194 107.873H248.819V114.049H247.9V107.121ZM251.95 114.049L250.265 110.908L251.222 110.904L252.93 113.992V114.049H251.95ZM253.344 111.532V111.422C253.344 111.051 253.398 110.707 253.506 110.39C253.614 110.069 253.769 109.792 253.972 109.557C254.175 109.319 254.421 109.135 254.71 109.005C254.999 108.872 255.322 108.805 255.681 108.805C256.042 108.805 256.367 108.872 256.656 109.005C256.948 109.135 257.195 109.319 257.398 109.557C257.605 109.792 257.762 110.069 257.87 110.39C257.977 110.707 258.031 111.051 258.031 111.422V111.532C258.031 111.903 257.977 112.247 257.87 112.564C257.762 112.882 257.605 113.159 257.398 113.397C257.195 113.632 256.95 113.816 256.661 113.949C256.375 114.079 256.052 114.144 255.69 114.144C255.329 114.144 255.003 114.079 254.715 113.949C254.426 113.816 254.179 113.632 253.972 113.397C253.769 113.159 253.614 112.882 253.506 112.564C253.398 112.247 253.344 111.903 253.344 111.532ZM254.225 111.422V111.532C254.225 111.789 254.255 112.031 254.315 112.26C254.375 112.485 254.466 112.685 254.586 112.859C254.71 113.034 254.864 113.172 255.048 113.273C255.232 113.372 255.446 113.421 255.69 113.421C255.931 113.421 256.142 113.372 256.323 113.273C256.507 113.172 256.659 113.034 256.78 112.859C256.9 112.685 256.991 112.485 257.051 112.26C257.115 112.031 257.146 111.789 257.146 111.532V111.422C257.146 111.169 257.115 110.929 257.051 110.704C256.991 110.475 256.899 110.274 256.775 110.1C256.655 109.922 256.502 109.782 256.318 109.681C256.137 109.579 255.925 109.529 255.681 109.529C255.44 109.529 255.227 109.579 255.043 109.681C254.862 109.782 254.71 109.922 254.586 110.1C254.466 110.274 254.375 110.475 254.315 110.704C254.255 110.929 254.225 111.169 254.225 111.422ZM258.936 106.74H259.821V113.05L259.745 114.049H258.936V106.74ZM263.299 111.432V111.532C263.299 111.906 263.255 112.254 263.166 112.574C263.077 112.891 262.947 113.167 262.776 113.402C262.604 113.637 262.395 113.819 262.148 113.949C261.9 114.079 261.616 114.144 261.296 114.144C260.969 114.144 260.682 114.089 260.435 113.978C260.19 113.863 259.984 113.7 259.816 113.488C259.648 113.275 259.513 113.018 259.412 112.717C259.313 112.415 259.245 112.076 259.207 111.698V111.261C259.245 110.88 259.313 110.539 259.412 110.238C259.513 109.936 259.648 109.679 259.816 109.467C259.984 109.251 260.19 109.088 260.435 108.977C260.679 108.862 260.963 108.805 261.286 108.805C261.61 108.805 261.897 108.869 262.148 108.996C262.398 109.119 262.608 109.297 262.776 109.529C262.947 109.76 263.077 110.038 263.166 110.361C263.255 110.682 263.299 111.039 263.299 111.432ZM262.414 111.532V111.432C262.414 111.175 262.39 110.934 262.343 110.709C262.295 110.48 262.219 110.28 262.114 110.109C262.01 109.935 261.872 109.798 261.7 109.7C261.529 109.598 261.318 109.548 261.067 109.548C260.845 109.548 260.652 109.586 260.487 109.662C260.325 109.738 260.187 109.841 260.073 109.971C259.959 110.098 259.865 110.244 259.792 110.409C259.722 110.571 259.67 110.739 259.635 110.913V112.06C259.686 112.282 259.768 112.496 259.883 112.702C260 112.905 260.155 113.072 260.349 113.202C260.546 113.332 260.788 113.397 261.077 113.397C261.315 113.397 261.518 113.35 261.686 113.254C261.857 113.156 261.995 113.021 262.1 112.85C262.208 112.679 262.287 112.48 262.338 112.255C262.389 112.03 262.414 111.789 262.414 111.532ZM266.354 114.144C265.996 114.144 265.671 114.084 265.379 113.963C265.09 113.84 264.841 113.667 264.632 113.445C264.426 113.223 264.267 112.959 264.156 112.655C264.045 112.35 263.989 112.017 263.989 111.656V111.456C263.989 111.037 264.051 110.664 264.175 110.337C264.299 110.008 264.467 109.728 264.679 109.5C264.892 109.272 265.133 109.099 265.403 108.981C265.672 108.864 265.951 108.805 266.24 108.805C266.608 108.805 266.925 108.869 267.192 108.996C267.461 109.122 267.682 109.3 267.853 109.529C268.025 109.754 268.151 110.02 268.234 110.328C268.316 110.632 268.358 110.966 268.358 111.327V111.722H264.513V111.004H267.477V110.937C267.465 110.709 267.417 110.487 267.335 110.271C267.255 110.055 267.128 109.877 266.954 109.738C266.779 109.598 266.542 109.529 266.24 109.529C266.04 109.529 265.856 109.571 265.688 109.657C265.52 109.739 265.376 109.863 265.255 110.028C265.135 110.193 265.041 110.395 264.974 110.632C264.908 110.87 264.874 111.145 264.874 111.456V111.656C264.874 111.9 264.908 112.13 264.974 112.346C265.044 112.558 265.144 112.745 265.274 112.907C265.407 113.069 265.568 113.196 265.755 113.288C265.945 113.38 266.161 113.426 266.402 113.426C266.713 113.426 266.976 113.362 267.192 113.235C267.408 113.108 267.596 112.939 267.758 112.726L268.291 113.15C268.18 113.318 268.039 113.478 267.868 113.63C267.696 113.783 267.485 113.906 267.235 114.001C266.987 114.097 266.694 114.144 266.354 114.144ZM270.071 109.709V114.049H269.191V108.9H270.047L270.071 109.709ZM271.679 108.872L271.675 109.69C271.602 109.674 271.532 109.665 271.465 109.662C271.402 109.655 271.329 109.652 271.246 109.652C271.043 109.652 270.864 109.684 270.709 109.747C270.553 109.811 270.421 109.9 270.314 110.014C270.206 110.128 270.12 110.264 270.057 110.423C269.996 110.579 269.957 110.75 269.938 110.937L269.69 111.08C269.69 110.769 269.72 110.477 269.781 110.204C269.844 109.931 269.941 109.69 270.071 109.481C270.201 109.268 270.366 109.103 270.566 108.986C270.769 108.865 271.01 108.805 271.289 108.805C271.353 108.805 271.426 108.813 271.508 108.829C271.59 108.842 271.648 108.856 271.679 108.872ZM274.692 108.9V109.576H271.908V108.9H274.692ZM272.85 107.649H273.73V112.774C273.73 112.948 273.757 113.08 273.811 113.169C273.865 113.258 273.935 113.316 274.021 113.345C274.106 113.373 274.198 113.388 274.297 113.388C274.37 113.388 274.446 113.381 274.525 113.369C274.608 113.353 274.669 113.34 274.711 113.331L274.715 114.049C274.646 114.071 274.554 114.092 274.439 114.111C274.328 114.133 274.194 114.144 274.035 114.144C273.819 114.144 273.621 114.101 273.44 114.016C273.259 113.93 273.115 113.787 273.007 113.587C272.902 113.384 272.85 113.112 272.85 112.769V107.649ZM278.527 112.683C278.527 112.556 278.499 112.439 278.441 112.331C278.388 112.22 278.275 112.12 278.104 112.031C277.936 111.939 277.682 111.86 277.342 111.794C277.057 111.733 276.798 111.662 276.567 111.579C276.338 111.497 276.143 111.397 275.981 111.28C275.823 111.162 275.701 111.024 275.615 110.866C275.529 110.707 275.486 110.521 275.486 110.309C275.486 110.106 275.531 109.914 275.62 109.733C275.712 109.552 275.84 109.392 276.005 109.253C276.173 109.113 276.375 109.003 276.609 108.924C276.844 108.845 277.106 108.805 277.395 108.805C277.807 108.805 278.159 108.878 278.451 109.024C278.743 109.17 278.967 109.365 279.122 109.609C279.277 109.85 279.355 110.119 279.355 110.414H278.475C278.475 110.271 278.432 110.133 278.346 110C278.264 109.863 278.142 109.751 277.98 109.662C277.821 109.573 277.626 109.529 277.395 109.529C277.15 109.529 276.952 109.567 276.8 109.643C276.651 109.716 276.541 109.809 276.471 109.923C276.405 110.038 276.372 110.158 276.372 110.285C276.372 110.38 276.387 110.466 276.419 110.542C276.454 110.615 276.514 110.683 276.6 110.747C276.686 110.807 276.806 110.864 276.962 110.918C277.117 110.972 277.315 111.026 277.556 111.08C277.978 111.175 278.326 111.289 278.599 111.422C278.871 111.556 279.074 111.719 279.208 111.913C279.341 112.106 279.407 112.341 279.407 112.617C279.407 112.842 279.36 113.048 279.265 113.235C279.173 113.423 279.038 113.584 278.86 113.721C278.686 113.854 278.476 113.959 278.232 114.035C277.991 114.108 277.72 114.144 277.418 114.144C276.965 114.144 276.581 114.063 276.267 113.902C275.953 113.74 275.715 113.53 275.553 113.273C275.391 113.016 275.31 112.745 275.31 112.46H276.195C276.208 112.701 276.278 112.893 276.405 113.036C276.532 113.175 276.687 113.275 276.871 113.335C277.055 113.392 277.238 113.421 277.418 113.421C277.66 113.421 277.861 113.389 278.023 113.326C278.188 113.262 278.313 113.175 278.399 113.064C278.484 112.953 278.527 112.826 278.527 112.683ZM280.136 111.532V111.422C280.136 111.051 280.19 110.707 280.298 110.39C280.405 110.069 280.561 109.792 280.764 109.557C280.967 109.319 281.213 109.135 281.501 109.005C281.79 108.872 282.114 108.805 282.472 108.805C282.834 108.805 283.159 108.872 283.448 109.005C283.739 109.135 283.987 109.319 284.19 109.557C284.396 109.792 284.553 110.069 284.661 110.39C284.769 110.707 284.823 111.051 284.823 111.422V111.532C284.823 111.903 284.769 112.247 284.661 112.564C284.553 112.882 284.396 113.159 284.19 113.397C283.987 113.632 283.741 113.816 283.452 113.949C283.167 114.079 282.843 114.144 282.482 114.144C282.12 114.144 281.795 114.079 281.506 113.949C281.217 113.816 280.97 113.632 280.764 113.397C280.561 113.159 280.405 112.882 280.298 112.564C280.19 112.247 280.136 111.903 280.136 111.532ZM281.016 111.422V111.532C281.016 111.789 281.046 112.031 281.106 112.26C281.167 112.485 281.257 112.685 281.378 112.859C281.501 113.034 281.655 113.172 281.839 113.273C282.023 113.372 282.237 113.421 282.482 113.421C282.723 113.421 282.934 113.372 283.115 113.273C283.299 113.172 283.451 113.034 283.571 112.859C283.692 112.685 283.782 112.485 283.843 112.26C283.906 112.031 283.938 111.789 283.938 111.532V111.422C283.938 111.169 283.906 110.929 283.843 110.704C283.782 110.475 283.69 110.274 283.567 110.1C283.446 109.922 283.294 109.782 283.11 109.681C282.929 109.579 282.716 109.529 282.472 109.529C282.231 109.529 282.018 109.579 281.835 109.681C281.654 109.782 281.501 109.922 281.378 110.1C281.257 110.274 281.167 110.475 281.106 110.704C281.046 110.929 281.016 111.169 281.016 111.422ZM286.612 110V114.049H285.732V108.9H286.565L286.612 110ZM286.403 111.28L286.036 111.265C286.04 110.913 286.092 110.588 286.193 110.29C286.295 109.988 286.438 109.727 286.622 109.505C286.806 109.283 287.025 109.111 287.278 108.991C287.535 108.867 287.819 108.805 288.13 108.805C288.384 108.805 288.612 108.84 288.815 108.91C289.018 108.977 289.191 109.084 289.334 109.233C289.48 109.383 289.591 109.576 289.667 109.814C289.743 110.049 289.781 110.336 289.781 110.675V114.049H288.896V110.666C288.896 110.396 288.857 110.18 288.777 110.019C288.698 109.854 288.582 109.735 288.43 109.662C288.278 109.586 288.091 109.548 287.868 109.548C287.65 109.548 287.45 109.594 287.269 109.686C287.091 109.778 286.937 109.904 286.807 110.066C286.68 110.228 286.581 110.414 286.508 110.623C286.438 110.829 286.403 111.048 286.403 111.28Z" fill="#141414"/>
</svg>
