<svg width="28" height="27" viewBox="0 0 28 27" fill="none" xmlns="http://www.w3.org/2000/svg">
<g opacity="0.75">
<mask id="mask0_120_953" style="mask-type:alpha" maskUnits="userSpaceOnUse" x="0" y="0" width="28" height="27">
<rect width="27.6743" height="26.8013" fill="white"/>
</mask>
<g mask="url(#mask0_120_953)">
<path d="M23.2753 22.4894C23.2753 23.0132 22.7468 23.4379 22.0946 23.4379C21.4424 23.4379 20.9138 23.0132 20.9138 22.4894C20.9138 21.9655 21.4424 21.5408 22.0946 21.5408C22.7468 21.5408 23.2753 21.9655 23.2753 22.4894Z" fill="white"/>
<path d="M0 16.9733V13.2921L10.179 8.32607L0 3.36002V0L12.9214 6.49778V10.4755L0 16.9733Z" fill="white"/>
<path d="M0 18.4824H2.13827V20.2149C2.77818 18.9194 4.0268 18.3731 5.89968 18.3888V20.1367C3.79266 20.0587 2.13827 20.6986 2.13827 22.6184V26.6452H0V18.4824Z" fill="white"/>
<path d="M6.50537 24.0854H8.53439C8.69046 24.9126 9.43961 25.412 11.1877 25.412C12.8733 25.412 13.5757 25.053 13.5757 24.3663C13.5757 23.6484 12.8109 23.4456 10.7506 23.2271C7.92569 22.946 6.78635 22.3062 6.78635 20.7922C6.78635 19.1066 8.76855 18.3105 10.9535 18.3105C13.3103 18.3105 15.0427 18.9349 15.3393 20.7766H13.3415C13.0918 20.0275 12.3895 19.6996 10.9379 19.6996C9.61127 19.6996 8.78412 20.0275 8.78412 20.6205C8.78412 21.2292 9.4552 21.4321 11.3438 21.6506C14.1844 21.9159 15.6671 22.3842 15.6671 24.1635C15.6671 25.8335 14.0751 26.8011 11.2033 26.8011C8.31589 26.8167 6.61459 25.8022 6.50537 24.0854Z" fill="white"/>
<path d="M16.5149 22.583V22.4581C16.5149 19.9297 18.9654 18.244 22.1025 18.244C25.2396 18.244 27.6744 19.9141 27.6744 22.4113V22.5361C27.6744 25.0802 25.224 26.7346 22.0713 26.7346C18.9186 26.7346 16.5149 25.0646 16.5149 22.583ZM25.4738 22.5674V22.4425C25.4738 20.7725 24.0847 19.7424 22.1025 19.7424C20.1047 19.7424 18.7156 20.7725 18.7156 22.4269V22.5517C18.7156 24.2061 20.0735 25.2518 22.1025 25.2518C24.1002 25.2518 25.4738 24.1906 25.4738 22.5674Z" fill="white"/>
<path d="M23.1253 11.3223C24.7626 11.2369 25.5814 10.1336 25.5814 8.01195C25.5814 7.22912 25.3571 6.41377 24.9086 5.5666C24.4601 4.71969 23.9298 4.03249 23.3175 3.50568L23.9155 2.58733C25.8946 3.76931 27.1051 5.65558 27.5462 8.24691C27.6316 8.81641 27.6743 9.36481 27.6743 9.89136C27.6743 11.4291 27.1653 12.7105 26.1473 13.7356C25.1295 14.7607 23.887 15.2733 22.4205 15.2733C20.9543 15.2733 19.5981 14.8248 18.3521 13.9278C17.1063 13.0308 16.1417 11.9096 15.4583 10.5641C14.7748 9.21862 14.4331 7.89116 14.4331 6.58104C14.4331 5.27118 14.7321 4.1357 15.3301 3.17464C15.9281 2.21358 16.7325 1.72239 17.7433 1.70103C18.7545 1.67966 19.6264 1.97534 20.3596 2.58733C21.0931 3.19958 21.6517 3.97553 22.0361 4.91523C22.791 6.78063 23.168 8.60994 23.168 10.4039L23.1253 11.3223ZM21.9507 11.4504C21.894 9.87 21.6411 8.59929 21.1926 7.63823C20.744 6.67717 20.2315 6.00799 19.6548 5.63067C19.0782 5.25361 18.4731 5.06473 17.8395 5.06473C17.2061 5.06473 16.7363 5.22847 16.43 5.55591C16.1238 5.88364 15.9708 6.23223 15.9708 6.60241C15.9708 7.51363 16.2878 8.35036 16.9211 9.11184C17.5547 9.87357 18.3236 10.454 19.2277 10.8524C20.1321 11.2511 21.0397 11.4504 21.9507 11.4504Z" fill="white"/>
</g>
</g>
</svg>
