<svg width="22" height="22" viewBox="0 0 22 22" fill="none" xmlns="http://www.w3.org/2000/svg">
<path d="M11.4863 10.3638C11.3925 10.8625 11.7188 11.3438 12.2175 11.44C12.275 11.4513 12.335 11.4562 12.3925 11.4562C12.825 11.4562 13.2088 11.1475 13.2938 10.7087L13.9838 7.0925C14.0775 6.59375 13.7513 6.1125 13.2525 6.01625C13.195 6.005 13.135 6 13.0775 6C12.645 6 12.2613 6.30875 12.1763 6.7475L11.4863 10.3638Z" fill="#F4F4F4"/>
<path d="M15.2725 11.0837C15.05 11.665 14.755 12.21 14.3975 12.7087H15.8837C16.175 12.1987 16.4162 11.655 16.5987 11.085C16.5937 11.085 16.5887 11.0837 16.5837 11.0837H15.2725Z" fill="#F4F4F4"/>
<path d="M8.5 15.75C4.5025 15.75 1.25 12.4975 1.25 8.5C1.25 4.5025 4.5025 1.25 8.5 1.25C12.4975 1.25 15.75 4.5025 15.75 8.5C15.75 9.01375 15.695 9.51625 15.5925 10H16.865C16.9512 9.5125 17 9.0125 17 8.5C17 3.805 13.195 0 8.5 0C3.805 0 0 3.805 0 8.5C0 13.195 3.805 17 8.5 17C8.6675 17 8.835 16.9937 9 16.9837V15.73C8.835 15.7412 8.66875 15.7488 8.5 15.7488V15.75Z" fill="#F4F4F4"/>
<path d="M10.625 15.4313V16.7313C12.2862 16.3038 13.7488 15.3863 14.8538 14.1426H13.0438C12.335 14.7151 11.5163 15.1563 10.625 15.4301V15.4313Z" fill="#F4F4F4"/>
<path d="M20.9163 12.7087H18.2075V11.0837C18.2075 10.4875 17.72 10 17.1238 10H16.8638C16.7975 10.37 16.7087 10.7325 16.5975 11.085C16.8887 11.0937 17.1238 11.3325 17.1238 11.625V12.7087H15.8825C15.5887 13.2237 15.2438 13.7037 14.8525 14.1437H19.8325C20.13 14.1437 20.3738 14.3875 20.3738 14.685V19.9387C20.3738 20.2362 20.13 20.48 19.8325 20.48H11.1663C10.8688 20.48 10.625 20.2362 10.625 19.9387V16.7313C10.1012 16.8663 9.5575 16.9512 9 16.9837V20.8325C9 21.4288 9.4875 21.9163 10.0837 21.9163H20.9175C21.5137 21.9163 22.0012 21.4288 22.0012 20.8325V13.7913C22.0012 13.195 21.5137 12.7075 20.9175 12.7075L20.9163 12.7087Z" fill="#F4F4F4"/>
<path d="M10.625 15.4312C10.1062 15.5912 9.56125 15.6924 9 15.7299V16.9837C9.5575 16.9512 10.1012 16.8662 10.625 16.7312V15.4312Z" fill="#F4F4F4"/>
<path d="M15.2725 11.0837H16.5837C16.5837 11.0837 16.5937 11.085 16.5987 11.085C16.7112 10.7325 16.8 10.37 16.865 10H15.5925C15.5137 10.3725 15.4062 10.7337 15.2725 11.0837Z" fill="#F4F4F4"/>
<path d="M13.0439 14.1437H14.8539C15.2452 13.7037 15.5902 13.2225 15.8839 12.7087H14.3977C14.0127 13.2462 13.5577 13.73 13.0439 14.1437Z" fill="#F4F4F4"/>
</svg>
