<svg width="22" height="22" viewBox="0 0 22 22" fill="none" xmlns="http://www.w3.org/2000/svg">
<path d="M20.9175 12.7925H18.2087V11.1675C18.2087 10.5712 17.7212 10.0837 17.125 10.0837H16.85C16.9462 9.57 17 9.04125 17 8.5C17 5.0025 14.8862 1.99875 11.8675 0.695C10.835 0.24875 9.69625 0 8.5 0C3.805 0 0 3.805 0 8.5C0 13.195 3.435 16.615 7.80375 16.9688C8.03375 16.9875 8.265 17 8.5 17C8.6675 17 8.835 16.9937 9 16.9837V20.9163C9 21.5125 9.4875 22 10.0837 22H20.9175C21.5137 22 22.0012 21.5125 22.0012 20.9163V13.875C22.0012 13.2788 21.5137 12.7913 20.9175 12.7913V12.7925ZM12.3713 11.4525L13.1687 7.2775C13.2675 6.77 13.71 6.41375 14.21 6.41375C14.2762 6.41375 14.345 6.41875 14.4112 6.4325C14.9875 6.54375 15.365 7.09875 15.2562 7.67625L14.7962 10.0862L14.59 11.17L14.46 11.8525C14.3937 12.195 14.1687 12.4687 13.8775 12.61C13.7375 12.6775 13.5812 12.7162 13.4187 12.7162C13.3525 12.7162 13.2837 12.7113 13.2162 12.6975C13.0575 12.6663 12.915 12.6012 12.7925 12.5125C12.47 12.2775 12.2925 11.8725 12.3713 11.4537V11.4525ZM17.1262 12.7925H15.8375C16.1362 12.2825 16.3838 11.7387 16.5725 11.1675H16.585C16.8825 11.1675 17.1262 11.4112 17.1262 11.7087V12.7925Z" fill="white"/>
</svg>
